<svg xmlns="http://www.w3.org/2000/svg" xmlns:xlink="http://www.w3.org/1999/xlink" id="svg" width="400" height="400" viewBox="0, 0, 400,400"><g id="svgg"><path id="path0" d="M278.970 61.751 C 278.905 61.814,274.040 62.016,273.038 61.998 C 272.647 61.990,272.250 62.032,272.156 62.090 C 272.061 62.148,271.311 62.223,270.488 62.256 C 268.057 62.352,262.291 63.120,257.333 64.007 C 256.259 64.200,255.875 64.262,254.750 64.425 C 254.292 64.492,253.838 64.607,253.742 64.682 C 253.646 64.757,253.309 64.853,252.992 64.896 C 252.676 64.939,252.229 65.017,252.000 65.070 C 251.771 65.122,251.321 65.213,251.000 65.271 C 250.679 65.329,250.323 65.451,250.208 65.542 C 250.094 65.633,250.000 65.664,250.000 65.612 C 250.000 65.559,249.644 65.630,249.208 65.769 C 248.773 65.908,248.267 66.045,248.083 66.073 C 247.900 66.101,247.750 66.139,247.750 66.158 C 247.750 66.201,247.529 66.256,246.134 66.565 C 245.520 66.701,244.864 66.895,244.675 66.995 C 244.487 67.096,244.333 67.129,244.333 67.069 C 244.333 67.009,244.233 67.043,244.110 67.145 C 243.987 67.247,243.837 67.281,243.776 67.221 C 243.716 67.160,243.667 67.183,243.667 67.270 C 243.667 67.358,243.514 67.441,243.328 67.455 C 242.902 67.487,240.747 68.132,240.090 68.424 C 239.819 68.544,239.538 68.607,239.465 68.562 C 239.393 68.517,239.333 68.569,239.333 68.676 C 239.333 68.791,239.193 68.836,238.997 68.784 C 238.812 68.736,238.550 68.807,238.415 68.942 C 238.280 69.077,238.094 69.141,238.001 69.084 C 237.909 69.027,237.833 69.047,237.833 69.129 C 237.833 69.211,237.740 69.286,237.625 69.296 C 237.510 69.306,237.304 69.344,237.167 69.381 C 236.179 69.646,236.014 69.720,236.101 69.862 C 236.156 69.950,236.099 69.999,235.975 69.971 C 235.615 69.888,233.346 70.718,233.454 70.893 C 233.507 70.980,233.469 71.000,233.367 70.938 C 233.266 70.875,232.861 70.969,232.467 71.147 C 232.072 71.325,231.225 71.667,230.583 71.908 C 229.942 72.149,229.221 72.454,228.982 72.586 C 228.742 72.717,228.509 72.787,228.464 72.742 C 228.418 72.696,228.286 72.773,228.170 72.913 C 228.054 73.052,227.837 73.167,227.688 73.168 C 227.539 73.168,227.196 73.314,226.927 73.492 C 226.658 73.669,226.377 73.777,226.302 73.731 C 226.228 73.685,226.167 73.726,226.167 73.823 C 226.167 73.921,226.110 73.981,226.042 73.959 C 225.881 73.906,218.411 77.608,217.750 78.068 C 217.475 78.259,217.213 78.418,217.167 78.420 C 216.872 78.432,215.699 79.251,215.783 79.386 C 215.839 79.477,215.803 79.501,215.704 79.440 C 215.604 79.378,215.250 79.513,214.916 79.740 C 214.581 79.967,214.164 80.198,213.987 80.254 C 213.811 80.310,213.667 80.426,213.667 80.511 C 213.667 80.597,213.520 80.667,213.342 80.667 C 213.163 80.667,212.951 80.784,212.871 80.927 C 212.791 81.070,212.618 81.208,212.488 81.232 C 212.096 81.305,211.144 81.886,210.614 82.375 C 210.341 82.627,210.021 82.833,209.904 82.833 C 209.786 82.833,209.591 82.929,209.470 83.046 C 209.349 83.162,208.875 83.499,208.417 83.794 C 207.958 84.088,207.433 84.450,207.250 84.597 C 207.067 84.744,206.748 84.945,206.542 85.042 C 206.335 85.140,206.167 85.283,206.167 85.360 C 206.167 85.437,206.081 85.500,205.975 85.500 C 205.870 85.500,205.458 85.768,205.059 86.094 C 204.660 86.421,204.333 86.642,204.333 86.584 C 204.333 86.526,204.052 86.746,203.708 87.071 C 203.365 87.397,203.023 87.664,202.948 87.665 C 202.874 87.666,202.867 87.753,202.933 87.859 C 203.004 87.975,202.979 88.006,202.869 87.939 C 202.769 87.877,202.430 88.051,202.117 88.326 C 201.804 88.601,201.514 88.792,201.472 88.750 C 201.431 88.708,201.041 89.010,200.606 89.420 C 200.172 89.831,199.763 90.167,199.699 90.167 C 199.593 90.167,198.303 91.228,196.882 92.485 C 196.588 92.746,196.307 92.918,196.257 92.868 C 196.169 92.781,196.103 93.108,196.151 93.387 C 196.164 93.463,196.097 93.477,196.001 93.418 C 195.832 93.313,195.523 93.556,194.095 94.917 C 193.067 95.896,192.520 96.333,192.322 96.333 C 192.226 96.333,192.188 96.400,192.238 96.481 C 192.289 96.563,191.991 96.907,191.577 97.246 C 189.493 98.954,183.910 104.886,184.099 105.192 C 184.146 105.268,184.073 105.287,183.938 105.235 C 183.785 105.176,183.577 105.319,183.387 105.612 C 183.076 106.095,182.702 106.557,182.042 107.276 C 181.835 107.500,181.667 107.767,181.667 107.870 C 181.667 107.972,181.619 108.008,181.561 107.950 C 181.463 107.852,180.937 108.444,180.333 109.329 C 180.196 109.531,179.933 109.866,179.750 110.073 C 178.948 110.979,178.667 111.345,178.667 111.483 C 178.667 111.565,178.543 111.678,178.393 111.736 C 178.242 111.794,178.163 111.885,178.216 111.938 C 178.269 111.991,178.119 112.215,177.882 112.434 C 177.645 112.654,177.511 112.833,177.584 112.833 C 177.657 112.833,177.499 113.041,177.233 113.295 C 176.967 113.549,176.720 113.830,176.684 113.920 C 176.577 114.187,175.846 115.315,175.579 115.627 C 175.442 115.786,175.334 115.976,175.337 116.048 C 175.341 116.120,175.117 116.371,174.839 116.604 C 174.561 116.838,174.333 117.135,174.333 117.265 C 174.333 117.394,174.254 117.500,174.157 117.500 C 174.060 117.500,174.020 117.565,174.070 117.644 C 174.119 117.724,174.012 117.921,173.833 118.083 C 173.654 118.245,173.548 118.443,173.597 118.522 C 173.646 118.602,173.623 118.667,173.546 118.667 C 173.329 118.667,172.827 119.603,172.963 119.753 C 173.029 119.827,173.006 119.843,172.912 119.790 C 172.818 119.737,172.443 120.176,172.079 120.767 C 171.715 121.357,171.023 122.451,170.542 123.197 C 170.060 123.943,169.667 124.653,169.667 124.776 C 169.667 124.899,169.587 125.000,169.490 125.000 C 169.393 125.000,169.360 125.075,169.417 125.167 C 169.473 125.258,169.436 125.333,169.333 125.333 C 169.231 125.333,169.193 125.408,169.250 125.500 C 169.307 125.592,169.289 125.667,169.210 125.667 C 169.131 125.667,168.705 126.360,168.262 127.208 C 167.819 128.056,167.361 128.862,167.243 129.000 C 167.125 129.137,166.896 129.587,166.734 130.000 C 166.572 130.412,166.359 130.805,166.261 130.872 C 166.163 130.940,166.145 130.996,166.220 130.997 C 166.296 130.999,166.202 131.198,166.012 131.439 C 165.822 131.681,165.667 132.007,165.667 132.164 C 165.667 132.321,165.518 132.620,165.337 132.829 C 165.155 133.039,165.047 133.275,165.097 133.355 C 165.146 133.435,165.126 133.501,165.052 133.501 C 164.914 133.503,164.500 134.284,164.500 134.544 C 164.500 134.623,164.262 135.180,163.972 135.782 C 163.682 136.384,163.444 136.979,163.444 137.105 C 163.444 137.231,163.400 137.333,163.346 137.333 C 163.292 137.333,163.143 137.577,163.014 137.875 C 162.885 138.173,162.578 138.867,162.331 139.417 C 162.084 139.967,161.748 140.829,161.585 141.333 C 161.422 141.837,161.207 142.400,161.107 142.583 C 161.007 142.767,160.908 143.098,160.887 143.319 C 160.866 143.540,160.786 143.765,160.709 143.819 C 160.582 143.908,158.870 148.754,158.762 149.333 C 158.651 149.923,158.445 150.596,158.327 150.750 C 158.204 150.911,157.941 151.805,157.763 152.667 C 157.612 153.398,157.378 154.237,157.197 154.691 C 157.100 154.934,157.060 155.171,157.106 155.217 C 157.153 155.264,157.083 155.516,156.951 155.776 C 156.819 156.037,156.732 156.381,156.757 156.542 C 156.783 156.702,156.735 156.833,156.652 156.833 C 156.568 156.833,156.500 156.913,156.500 157.010 C 156.500 157.107,156.594 157.130,156.708 157.061 C 156.828 156.989,156.810 157.067,156.667 157.244 C 156.529 157.413,156.407 157.690,156.396 157.859 C 156.384 158.028,156.357 158.223,156.335 158.292 C 156.313 158.360,156.282 158.492,156.267 158.583 C 156.194 159.026,155.954 160.278,155.900 160.500 C 155.668 161.458,155.351 163.024,155.277 163.583 C 155.228 163.950,155.149 164.363,155.102 164.500 C 155.055 164.638,154.972 165.050,154.919 165.417 C 154.865 165.783,154.717 166.796,154.589 167.667 C 154.385 169.056,154.285 169.824,154.090 171.500 C 154.064 171.729,153.992 172.530,153.930 173.280 C 153.869 174.030,153.782 174.818,153.738 175.030 C 153.571 175.834,153.299 184.128,153.426 184.530 C 153.519 184.822,155.178 184.833,199.761 184.833 L 246.000 184.833 246.000 153.833 L 246.000 122.833 262.583 122.833 L 279.167 122.833 279.167 215.172 C 279.167 302.958,279.181 307.516,279.458 307.626 C 279.931 307.814,285.436 307.678,288.500 307.402 C 289.096 307.348,289.977 307.294,290.458 307.282 C 290.940 307.269,291.333 307.211,291.333 307.151 C 291.333 307.092,291.651 307.062,292.040 307.086 C 292.428 307.109,292.929 307.059,293.154 306.973 C 293.379 306.888,293.946 306.797,294.416 306.772 C 294.885 306.746,295.359 306.671,295.468 306.603 C 295.577 306.536,295.740 306.526,295.830 306.581 C 295.920 306.637,296.426 306.606,296.955 306.513 C 297.484 306.420,298.142 306.310,298.417 306.268 C 300.036 306.025,300.432 305.952,300.568 305.871 C 300.651 305.822,301.061 305.752,301.480 305.716 C 301.898 305.680,302.280 305.598,302.328 305.534 C 302.377 305.469,302.679 305.395,303.000 305.369 C 303.595 305.320,306.880 304.576,307.333 304.386 C 307.471 304.329,307.658 304.268,307.750 304.250 C 307.842 304.232,307.954 304.201,308.000 304.181 C 308.046 304.161,308.324 304.113,308.619 304.074 C 309.439 303.967,309.575 303.928,309.690 303.770 C 309.748 303.690,310.060 303.600,310.383 303.571 C 310.706 303.542,311.521 303.361,312.194 303.168 C 312.866 302.975,313.717 302.732,314.083 302.629 C 314.450 302.526,314.825 302.399,314.917 302.348 C 315.008 302.297,315.121 302.250,315.167 302.243 C 315.759 302.158,316.333 301.936,316.333 301.792 C 316.333 301.693,316.375 301.653,316.425 301.703 C 316.574 301.852,320.228 300.628,320.500 300.339 C 320.546 300.290,320.658 300.249,320.750 300.247 C 320.952 300.244,322.122 299.868,322.583 299.658 C 323.465 299.257,324.053 299.052,324.405 299.021 C 324.536 299.009,324.774 298.869,324.935 298.708 C 325.095 298.548,325.232 298.441,325.238 298.470 C 325.245 298.499,325.461 298.443,325.719 298.345 C 325.977 298.247,326.231 298.167,326.284 298.167 C 326.336 298.167,327.025 297.861,327.814 297.487 C 328.604 297.113,329.438 296.722,329.667 296.619 C 329.896 296.516,330.222 296.315,330.392 296.174 C 330.563 296.032,330.732 295.937,330.768 295.961 C 330.907 296.055,331.667 295.790,331.667 295.649 C 331.667 295.567,331.817 295.500,332.000 295.500 C 332.183 295.500,332.333 295.425,332.333 295.333 C 332.333 295.242,332.394 295.185,332.467 295.208 C 332.633 295.260,333.896 294.630,333.972 294.458 C 334.003 294.390,334.130 294.333,334.254 294.333 C 334.379 294.333,335.329 293.831,336.365 293.218 C 337.402 292.605,338.737 291.848,339.333 291.537 C 339.929 291.226,340.548 290.854,340.708 290.710 C 340.869 290.566,341.002 290.516,341.005 290.599 C 341.008 290.682,341.104 290.637,341.217 290.500 C 341.430 290.243,341.892 289.919,342.333 289.717 C 342.605 289.592,345.631 287.603,345.941 287.345 C 346.045 287.258,346.175 287.230,346.228 287.284 C 346.282 287.337,346.373 287.258,346.431 287.107 C 346.488 286.957,346.622 286.833,346.728 286.833 C 346.834 286.833,347.107 286.660,347.335 286.448 C 347.564 286.236,348.201 285.776,348.750 285.426 C 349.300 285.075,349.942 284.630,350.177 284.436 C 350.412 284.242,350.817 283.933,351.076 283.750 C 351.336 283.567,351.666 283.285,351.811 283.125 C 351.956 282.965,352.136 282.833,352.211 282.833 C 352.350 282.833,352.600 282.650,353.179 282.125 C 353.355 281.965,353.575 281.833,353.667 281.833 C 353.758 281.833,353.833 281.776,353.833 281.705 C 353.833 281.634,354.204 281.283,354.657 280.924 C 355.111 280.565,355.436 280.192,355.381 280.094 C 355.325 279.996,355.340 279.971,355.413 280.037 C 355.546 280.157,356.264 279.642,357.284 278.695 C 357.578 278.423,357.898 278.173,357.995 278.141 C 358.276 278.047,361.271 275.180,364.495 271.917 C 368.477 267.888,368.846 267.488,368.739 267.315 C 368.688 267.234,368.745 267.165,368.865 267.164 C 369.112 267.161,369.544 266.722,370.258 265.750 C 370.528 265.383,370.799 265.045,370.860 264.999 C 370.922 264.952,371.207 264.615,371.493 264.249 C 372.180 263.372,372.813 262.612,373.369 261.999 C 373.618 261.725,373.788 261.500,373.745 261.500 C 373.669 261.500,374.187 260.859,374.673 260.351 C 374.814 260.204,375.133 259.783,375.382 259.417 C 375.631 259.050,376.097 258.412,376.417 258.000 C 376.737 257.587,377.066 257.097,377.149 256.910 C 377.231 256.723,377.419 256.470,377.566 256.348 C 377.713 256.226,377.833 256.023,377.833 255.896 C 377.833 255.770,377.912 255.667,378.009 255.667 C 378.105 255.667,378.293 255.404,378.427 255.083 C 378.561 254.763,378.734 254.500,378.810 254.500 C 378.887 254.500,379.085 254.200,379.250 253.833 C 379.415 253.467,379.614 253.167,379.692 253.167 C 379.770 253.167,379.833 253.087,379.833 252.990 C 379.833 252.893,380.071 252.518,380.361 252.157 C 380.651 251.796,380.849 251.460,380.800 251.411 C 380.751 251.362,380.925 251.092,381.187 250.811 C 381.449 250.531,381.758 250.131,381.874 249.923 C 382.211 249.314,382.978 247.970,383.399 247.250 C 383.613 246.883,384.073 246.058,384.420 245.417 C 384.767 244.775,385.217 243.986,385.420 243.664 C 386.019 242.711,386.682 241.334,386.544 241.328 C 386.474 241.325,386.548 241.247,386.708 241.153 C 386.869 241.060,387.000 240.889,387.000 240.773 C 387.000 240.657,387.488 239.570,388.083 238.359 C 388.679 237.147,389.167 236.094,389.167 236.019 C 389.167 235.944,389.348 235.541,389.571 235.123 C 389.793 234.705,389.930 234.319,389.876 234.265 C 389.822 234.211,389.865 234.167,389.972 234.167 C 390.083 234.167,390.167 233.917,390.167 233.583 C 390.167 233.209,390.246 233.000,390.389 233.000 C 390.511 233.000,390.692 232.756,390.792 232.458 C 391.345 230.810,391.856 229.377,391.997 229.083 C 392.628 227.771,394.189 223.171,394.070 222.978 C 394.020 222.898,394.044 222.833,394.123 222.833 C 394.282 222.833,394.833 221.158,394.833 220.674 C 394.833 220.502,394.916 220.333,395.018 220.300 C 395.120 220.266,395.213 219.997,395.225 219.702 C 395.237 219.408,395.312 219.167,395.391 219.167 C 395.471 219.167,395.495 219.061,395.446 218.933 C 395.397 218.804,395.403 218.652,395.460 218.595 C 395.517 218.538,395.588 218.325,395.617 218.121 C 395.646 217.917,395.740 217.563,395.827 217.333 C 395.914 217.104,396.027 216.627,396.078 216.272 C 396.129 215.918,396.204 215.575,396.243 215.511 C 396.409 215.242,397.006 212.784,396.925 212.702 C 396.876 212.654,396.913 212.521,397.008 212.407 C 397.102 212.293,397.206 211.949,397.237 211.642 C 397.269 211.335,397.349 210.952,397.415 210.792 C 397.481 210.631,397.493 210.390,397.442 210.255 C 397.390 210.121,397.415 209.969,397.498 209.918 C 397.580 209.867,397.695 209.471,397.752 209.038 C 397.810 208.605,397.928 208.063,398.014 207.833 C 398.101 207.604,398.206 207.117,398.248 206.750 C 398.291 206.383,398.377 205.821,398.440 205.500 C 398.503 205.179,398.561 204.673,398.569 204.375 C 398.577 204.077,398.646 203.833,398.722 203.833 C 398.798 203.833,398.826 203.574,398.783 203.257 C 398.740 202.941,398.774 202.659,398.858 202.631 C 398.942 202.603,399.027 202.007,399.047 201.308 C 399.067 200.609,399.127 200.062,399.180 200.094 C 399.233 200.125,399.279 199.873,399.282 199.534 C 399.285 199.194,399.342 198.542,399.409 198.083 C 399.475 197.625,399.525 197.156,399.518 197.042 C 399.476 196.267,399.563 195.167,399.667 195.167 C 399.712 195.167,399.756 194.885,399.764 194.542 C 399.775 194.003,399.799 193.371,399.847 192.333 C 399.952 190.067,399.985 178.323,399.886 178.383 C 399.811 178.429,399.732 177.480,399.711 176.275 C 399.660 173.433,399.592 172.650,399.358 172.213 C 399.252 172.015,399.229 171.815,399.306 171.767 C 399.467 171.667,399.455 171.165,399.283 170.887 C 399.219 170.782,399.206 170.590,399.256 170.460 C 399.306 170.330,399.269 169.780,399.173 169.237 C 399.077 168.694,398.969 168.025,398.932 167.750 C 398.612 165.367,398.092 162.417,397.991 162.417 C 397.973 162.417,397.931 162.267,397.899 162.083 C 397.739 161.179,397.687 160.853,397.581 160.083 C 397.517 159.625,397.397 159.225,397.315 159.194 C 397.232 159.163,397.196 159.088,397.234 159.026 C 397.327 158.875,397.150 158.036,396.417 155.167 C 396.078 153.837,395.770 152.619,395.734 152.458 C 395.697 152.298,395.625 151.998,395.574 151.792 C 395.522 151.585,395.453 151.304,395.420 151.167 C 395.386 151.029,395.344 150.879,395.326 150.833 C 395.308 150.787,395.303 150.694,395.314 150.625 C 395.324 150.556,395.271 150.500,395.194 150.500 C 395.118 150.500,395.052 150.406,395.047 150.292 C 395.030 149.865,394.851 149.163,394.558 148.375 C 394.499 148.215,394.423 147.946,394.391 147.779 C 394.358 147.612,394.239 147.312,394.125 147.112 C 394.011 146.913,393.908 146.675,393.895 146.583 C 393.882 146.492,393.857 146.379,393.840 146.333 C 393.822 146.287,393.779 146.137,393.744 146.000 C 393.601 145.443,393.102 144.078,393.012 144.000 C 392.960 143.954,392.890 143.729,392.858 143.500 C 392.825 143.271,392.700 142.892,392.579 142.659 C 392.458 142.425,392.200 141.750,392.006 141.159 C 391.812 140.567,391.620 139.989,391.581 139.873 C 391.541 139.758,391.501 139.608,391.490 139.540 C 391.480 139.472,391.388 139.316,391.285 139.192 C 391.183 139.069,391.077 138.825,391.051 138.651 C 391.024 138.477,390.858 138.016,390.681 137.626 C 390.505 137.236,390.312 136.748,390.252 136.542 C 390.193 136.335,390.070 136.167,389.979 136.167 C 389.888 136.167,389.860 136.092,389.917 136.000 C 389.973 135.908,389.936 135.833,389.833 135.833 C 389.731 135.833,389.693 135.758,389.750 135.667 C 389.807 135.575,389.769 135.500,389.667 135.500 C 389.564 135.500,389.531 135.418,389.593 135.317 C 389.655 135.217,389.547 134.920,389.353 134.658 C 389.159 134.395,389.000 134.027,389.000 133.840 C 389.000 133.653,388.925 133.500,388.833 133.500 C 388.742 133.500,388.667 133.396,388.667 133.269 C 388.667 132.892,388.228 132.162,388.082 132.294 C 388.007 132.362,387.992 132.336,388.048 132.238 C 388.104 132.140,388.041 131.850,387.908 131.594 C 387.775 131.338,387.667 131.031,387.667 130.912 C 387.667 130.792,387.610 130.669,387.542 130.639 C 387.384 130.569,386.595 128.960,386.636 128.792 C 386.653 128.723,386.587 128.667,386.490 128.667 C 386.393 128.667,386.355 128.600,386.405 128.520 C 386.455 128.439,386.341 128.176,386.152 127.936 C 385.964 127.696,385.850 127.500,385.901 127.500 C 385.951 127.500,385.769 127.148,385.496 126.717 C 385.223 126.287,385.000 125.851,385.000 125.749 C 385.000 125.647,384.847 125.399,384.660 125.198 C 384.473 124.997,384.359 124.833,384.406 124.833 C 384.453 124.833,384.278 124.472,384.018 124.030 C 383.758 123.589,383.413 122.951,383.253 122.614 C 383.093 122.276,382.896 122.000,382.814 122.000 C 382.733 122.000,382.667 121.897,382.667 121.770 C 382.667 121.644,382.555 121.448,382.419 121.335 C 382.282 121.222,382.205 121.072,382.248 121.003 C 382.291 120.934,382.179 120.745,382.000 120.583 C 381.821 120.421,381.715 120.223,381.764 120.143 C 381.814 120.063,381.737 119.953,381.594 119.898 C 381.451 119.843,381.333 119.656,381.333 119.482 C 381.333 119.309,381.258 119.167,381.167 119.167 C 381.075 119.167,381.000 119.062,381.000 118.934 C 381.000 118.807,380.883 118.657,380.739 118.602 C 380.596 118.547,380.520 118.436,380.569 118.356 C 380.619 118.275,380.442 117.981,380.176 117.703 C 379.910 117.424,379.729 117.160,379.774 117.115 C 379.819 117.070,379.589 116.682,379.261 116.254 C 378.934 115.825,378.667 115.372,378.667 115.247 C 378.667 115.121,378.535 114.921,378.375 114.801 C 378.215 114.681,378.059 114.471,378.029 114.333 C 377.999 114.196,377.906 114.058,377.821 114.028 C 377.736 113.997,377.667 113.870,377.667 113.744 C 377.667 113.619,377.569 113.457,377.450 113.383 C 377.331 113.310,377.053 112.987,376.833 112.667 C 376.613 112.346,376.336 112.023,376.217 111.950 C 376.098 111.877,376.000 111.706,376.000 111.570 C 376.000 111.434,375.891 111.281,375.758 111.230 C 375.624 111.179,375.363 110.825,375.177 110.443 C 374.990 110.062,374.574 109.465,374.252 109.116 C 373.930 108.767,373.667 108.427,373.667 108.361 C 373.667 108.295,373.521 108.135,373.342 108.006 C 373.164 107.878,373.056 107.711,373.102 107.636 C 373.148 107.561,373.121 107.500,373.040 107.500 C 372.960 107.500,372.543 107.013,372.114 106.417 C 371.686 105.821,371.255 105.333,371.158 105.333 C 371.060 105.333,371.027 105.258,371.084 105.165 C 371.141 105.073,371.073 104.954,370.934 104.900 C 370.794 104.846,370.634 104.658,370.578 104.482 C 370.522 104.306,370.406 104.205,370.321 104.257 C 370.236 104.310,370.167 104.280,370.167 104.191 C 370.167 104.101,370.017 103.853,369.834 103.639 C 369.651 103.425,369.345 103.063,369.155 102.833 C 368.964 102.604,368.589 102.175,368.321 101.879 C 368.053 101.584,367.833 101.277,367.833 101.198 C 367.833 101.118,367.636 100.964,367.395 100.854 C 367.154 100.744,366.994 100.617,367.040 100.571 C 367.254 100.357,359.792 92.941,359.566 93.144 C 359.500 93.202,359.495 93.165,359.555 93.061 C 359.690 92.825,359.244 92.433,359.007 92.579 C 358.912 92.638,358.833 92.612,358.833 92.521 C 358.833 92.380,358.315 91.853,356.477 90.125 C 356.306 89.965,356.124 89.833,356.073 89.833 C 356.021 89.833,355.786 89.605,355.552 89.326 C 355.317 89.047,355.094 88.850,355.057 88.887 C 355.019 88.925,354.710 88.710,354.369 88.409 C 352.913 87.125,351.498 86.000,351.338 86.000 C 351.244 86.000,351.167 85.925,351.167 85.833 C 351.167 85.742,351.050 85.667,350.907 85.667 C 350.764 85.667,350.693 85.592,350.750 85.500 C 350.807 85.408,350.749 85.333,350.622 85.333 C 350.495 85.333,350.215 85.146,350.000 84.917 C 349.785 84.688,349.515 84.500,349.402 84.500 C 349.288 84.500,349.169 84.444,349.139 84.375 C 349.062 84.201,347.837 83.267,347.337 83.001 C 347.109 82.880,346.831 82.699,346.718 82.599 C 346.151 82.098,345.994 82.000,345.757 82.000 C 345.616 82.000,345.519 81.932,345.542 81.850 C 345.579 81.716,344.445 80.833,344.236 80.833 C 344.190 80.833,343.938 80.675,343.676 80.480 C 343.397 80.274,343.112 80.181,342.990 80.256 C 342.861 80.336,342.824 80.317,342.892 80.207 C 342.953 80.108,342.723 79.858,342.376 79.646 C 342.032 79.436,341.725 79.204,341.694 79.131 C 341.663 79.058,341.580 79.034,341.508 79.078 C 341.436 79.123,341.244 79.011,341.080 78.829 C 340.916 78.648,340.718 78.500,340.639 78.500 C 340.561 78.500,340.123 78.237,339.667 77.917 C 339.210 77.596,338.761 77.333,338.668 77.333 C 338.576 77.333,338.500 77.250,338.500 77.147 C 338.500 77.043,338.353 77.000,338.166 77.048 C 337.983 77.096,337.867 77.080,337.910 77.012 C 337.952 76.943,337.370 76.572,336.618 76.187 C 335.866 75.801,334.819 75.229,334.292 74.914 C 333.765 74.599,333.333 74.387,333.333 74.441 C 333.333 74.496,333.240 74.464,333.125 74.370 C 332.663 73.990,331.040 73.182,330.940 73.282 C 330.881 73.341,330.833 73.293,330.833 73.177 C 330.833 73.057,330.725 73.006,330.585 73.060 C 330.445 73.113,330.355 73.070,330.377 72.960 C 330.399 72.853,330.342 72.757,330.250 72.747 C 330.158 72.738,329.794 72.604,329.441 72.449 C 329.087 72.295,328.731 72.210,328.649 72.261 C 328.567 72.312,328.500 72.283,328.500 72.197 C 328.500 71.921,321.621 68.935,321.428 69.127 C 321.376 69.179,321.333 69.141,321.333 69.041 C 321.333 68.882,320.501 68.597,320.244 68.667 C 320.192 68.682,319.966 68.573,319.741 68.426 C 319.517 68.279,319.333 68.190,319.333 68.228 C 319.333 68.266,318.610 68.045,317.725 67.737 C 316.841 67.429,316.054 67.217,315.975 67.265 C 315.897 67.313,315.833 67.289,315.833 67.210 C 315.833 67.054,314.784 66.631,314.557 66.697 C 314.480 66.719,314.248 66.644,314.042 66.530 C 313.835 66.415,313.667 66.371,313.667 66.431 C 313.667 66.491,313.555 66.448,313.419 66.335 C 313.282 66.222,313.057 66.173,312.919 66.226 C 312.780 66.279,312.667 66.250,312.667 66.161 C 312.667 66.073,312.610 66.016,312.542 66.035 C 312.473 66.054,311.912 65.898,311.296 65.689 C 310.679 65.480,310.098 65.356,310.004 65.414 C 309.910 65.472,309.833 65.432,309.833 65.325 C 309.833 65.212,309.717 65.176,309.555 65.238 C 309.402 65.297,309.231 65.271,309.175 65.180 C 309.119 65.090,308.776 64.973,308.412 64.920 C 307.361 64.768,307.059 64.708,306.642 64.570 C 306.426 64.499,306.137 64.427,306.000 64.409 C 305.862 64.391,304.962 64.218,304.000 64.024 C 300.887 63.398,300.606 63.346,298.999 63.094 C 296.918 62.768,295.742 62.628,294.875 62.603 C 294.486 62.592,294.167 62.527,294.167 62.458 C 294.167 62.390,294.110 62.348,294.042 62.366 C 293.973 62.384,292.928 62.300,291.720 62.180 C 290.512 62.059,289.256 61.992,288.929 62.030 C 288.601 62.068,288.333 62.045,288.333 61.979 C 288.333 61.913,287.527 61.851,286.542 61.842 C 285.556 61.833,283.462 61.797,281.887 61.762 C 280.312 61.727,279.000 61.722,278.970 61.751 M116.771 92.284 C 116.752 92.303,115.802 92.363,114.660 92.417 C 112.307 92.528,111.188 92.606,109.750 92.755 C 109.200 92.812,108.394 92.851,107.958 92.841 C 107.523 92.831,107.167 92.892,107.167 92.977 C 107.167 93.062,106.862 93.116,106.490 93.097 C 106.118 93.078,105.772 93.131,105.720 93.215 C 105.669 93.299,105.419 93.326,105.166 93.275 C 104.913 93.224,104.654 93.234,104.591 93.298 C 104.528 93.361,104.238 93.423,103.947 93.437 C 103.471 93.459,103.067 93.514,101.667 93.747 C 101.438 93.786,100.880 93.860,100.428 93.913 C 99.976 93.966,99.519 94.082,99.413 94.170 C 99.306 94.258,99.180 94.291,99.131 94.242 C 99.007 94.118,92.663 95.471,92.500 95.656 C 92.454 95.707,92.229 95.769,92.000 95.793 C 91.475 95.848,89.845 96.311,89.458 96.515 C 89.254 96.624,89.166 96.607,89.164 96.460 C 89.162 96.301,89.127 96.304,89.020 96.473 C 88.943 96.595,88.850 96.671,88.815 96.642 C 88.758 96.595,87.751 96.850,86.083 97.333 C 85.808 97.413,85.265 97.561,84.875 97.662 C 84.485 97.763,84.167 97.902,84.167 97.970 C 84.167 98.038,83.978 98.110,83.747 98.129 C 83.516 98.148,82.635 98.419,81.789 98.732 C 80.942 99.044,80.081 99.350,79.875 99.411 C 79.669 99.472,79.500 99.597,79.500 99.688 C 79.500 99.779,79.427 99.808,79.337 99.752 C 79.247 99.697,79.003 99.745,78.795 99.860 C 78.587 99.974,78.231 100.095,78.004 100.128 C 77.777 100.161,77.515 100.246,77.421 100.317 C 77.327 100.388,76.762 100.622,76.167 100.837 C 75.571 101.053,75.046 101.271,75.000 101.323 C 74.954 101.374,74.842 101.432,74.750 101.452 C 74.272 101.553,72.076 102.540,72.028 102.676 C 71.997 102.762,71.865 102.833,71.734 102.833 C 71.603 102.833,71.365 102.902,71.206 102.986 C 71.047 103.070,70.639 103.259,70.299 103.407 C 69.959 103.555,69.635 103.750,69.579 103.841 C 69.523 103.931,69.412 103.965,69.333 103.917 C 69.254 103.868,69.143 103.904,69.085 103.997 C 69.027 104.090,68.835 104.167,68.657 104.167 C 68.479 104.167,68.333 104.242,68.333 104.333 C 68.333 104.425,68.183 104.500,68.000 104.500 C 67.817 104.500,67.667 104.575,67.667 104.667 C 67.667 104.758,67.610 104.824,67.542 104.814 C 67.157 104.753,66.974 104.859,67.064 105.092 C 67.121 105.241,67.093 105.307,66.998 105.249 C 66.807 105.131,64.167 106.326,64.167 106.531 C 64.167 106.605,64.085 106.667,63.986 106.667 C 63.887 106.667,63.025 107.117,62.070 107.667 C 61.115 108.217,60.256 108.667,60.162 108.667 C 60.067 108.667,59.947 108.779,59.894 108.916 C 59.841 109.053,59.740 109.129,59.668 109.084 C 59.596 109.040,59.445 109.115,59.332 109.252 C 59.219 109.388,59.023 109.500,58.896 109.500 C 58.770 109.500,58.667 109.579,58.667 109.677 C 58.667 109.774,58.592 109.807,58.500 109.750 C 58.408 109.693,58.333 109.739,58.333 109.851 C 58.333 109.964,58.288 110.010,58.232 109.954 C 58.177 109.899,58.045 109.928,57.941 110.020 C 57.836 110.111,57.206 110.544,56.541 110.982 C 55.876 111.419,55.389 111.833,55.458 111.902 C 55.527 111.971,55.508 112.003,55.417 111.973 C 55.325 111.942,54.987 112.072,54.667 112.262 C 54.346 112.451,54.008 112.634,53.917 112.669 C 53.825 112.703,53.675 112.791,53.583 112.864 C 53.000 113.330,51.613 114.345,50.833 114.878 C 49.835 115.560,48.571 116.522,48.153 116.917 C 48.007 117.054,47.814 117.167,47.722 117.167 C 47.631 117.167,47.337 117.390,47.069 117.662 C 46.802 117.934,46.490 118.159,46.375 118.162 C 46.260 118.165,46.166 118.223,46.165 118.292 C 46.165 118.360,45.565 118.904,44.833 119.500 C 44.101 120.096,43.502 120.640,43.501 120.708 C 43.501 120.777,43.426 120.833,43.335 120.833 C 43.244 120.833,42.955 121.058,42.692 121.333 C 42.429 121.608,42.137 121.833,42.042 121.833 C 41.828 121.833,39.833 123.819,39.833 124.031 C 39.833 124.117,39.771 124.148,39.695 124.101 C 39.541 124.006,33.560 129.847,33.622 130.031 C 33.643 130.094,33.530 130.188,33.371 130.238 C 33.212 130.289,32.933 130.537,32.751 130.790 C 32.568 131.043,32.138 131.539,31.794 131.893 C 31.451 132.247,31.218 132.615,31.277 132.711 C 31.336 132.806,31.310 132.838,31.218 132.781 C 31.126 132.725,30.889 132.863,30.693 133.089 C 30.496 133.315,30.379 133.500,30.432 133.500 C 30.485 133.500,30.255 133.781,29.921 134.125 C 29.051 135.021,28.779 135.334,28.234 136.070 C 27.968 136.430,27.542 136.955,27.287 137.237 C 26.338 138.289,26.222 138.430,25.832 139.000 C 25.612 139.321,25.354 139.637,25.258 139.702 C 25.162 139.768,25.083 139.895,25.083 139.986 C 25.083 140.077,24.800 140.491,24.453 140.905 C 24.107 141.319,23.823 141.696,23.823 141.741 C 23.823 141.787,23.600 142.068,23.328 142.366 C 23.056 142.664,22.833 142.992,22.833 143.095 C 22.833 143.198,22.683 143.417,22.500 143.583 C 22.317 143.749,22.167 143.986,22.167 144.109 C 22.167 144.232,22.092 144.333,22.000 144.333 C 21.908 144.333,21.833 144.418,21.833 144.522 C 21.833 144.626,21.694 144.832,21.525 144.980 C 21.355 145.129,21.092 145.491,20.941 145.785 C 20.789 146.078,20.320 146.814,19.897 147.418 C 19.474 148.023,19.165 148.554,19.210 148.599 C 19.255 148.644,19.039 148.941,18.729 149.260 C 18.420 149.579,18.167 149.941,18.167 150.066 C 18.167 150.191,18.055 150.385,17.919 150.498 C 17.782 150.612,17.711 150.771,17.762 150.852 C 17.812 150.933,17.779 151.000,17.688 151.000 C 17.597 151.000,17.471 151.169,17.409 151.375 C 17.346 151.581,17.172 151.900,17.023 152.083 C 16.693 152.486,16.481 152.854,15.579 154.583 C 15.197 155.317,14.679 156.217,14.429 156.583 C 14.179 156.950,13.934 157.456,13.883 157.708 C 13.833 157.960,13.722 158.167,13.636 158.167 C 13.550 158.167,13.523 158.235,13.575 158.319 C 13.626 158.403,13.604 158.497,13.525 158.527 C 13.152 158.673,9.647 166.422,9.788 166.789 C 9.856 166.966,9.824 167.014,9.695 166.934 C 9.496 166.811,9.073 167.628,9.246 167.801 C 9.294 167.850,9.210 168.027,9.058 168.195 C 8.906 168.363,8.833 168.500,8.895 168.500 C 8.957 168.500,8.875 168.703,8.712 168.951 C 8.550 169.199,8.433 169.423,8.454 169.449 C 8.501 169.509,8.395 169.822,7.874 171.167 C 6.947 173.560,5.843 176.881,5.929 177.019 C 5.979 177.100,5.952 177.167,5.870 177.167 C 5.725 177.167,5.284 178.314,5.229 178.833 C 5.214 178.971,5.185 179.140,5.164 179.208 C 5.142 179.277,5.113 179.390,5.098 179.458 C 5.084 179.527,4.990 179.733,4.891 179.917 C 4.791 180.100,4.731 180.381,4.757 180.542 C 4.783 180.702,4.723 180.833,4.624 180.833 C 4.525 180.833,4.494 180.883,4.554 180.943 C 4.614 181.003,4.579 181.155,4.475 181.280 C 4.371 181.406,4.329 181.551,4.382 181.604 C 4.435 181.658,4.402 181.899,4.307 182.142 C 4.213 182.385,4.103 182.771,4.062 183.000 C 4.021 183.229,3.763 184.264,3.489 185.300 C 3.215 186.336,3.032 187.250,3.082 187.330 C 3.131 187.411,3.106 187.518,3.024 187.568 C 2.943 187.619,2.825 187.905,2.763 188.205 C 2.537 189.286,1.961 192.259,1.899 192.667 C 1.863 192.896,1.792 193.308,1.740 193.583 C 1.688 193.858,1.619 194.308,1.587 194.583 C 1.555 194.858,1.516 195.083,1.502 195.083 C 1.432 195.083,1.309 195.830,1.254 196.583 C 1.221 197.042,1.178 197.417,1.159 197.417 C 1.105 197.417,1.016 198.006,0.939 198.861 C 0.901 199.289,0.822 199.717,0.764 199.811 C 0.705 199.906,0.688 200.156,0.725 200.367 C 0.762 200.578,0.727 201.200,0.647 201.750 C 0.567 202.300,0.460 203.313,0.408 204.000 C 0.357 204.688,0.279 205.550,0.236 205.917 C 0.066 207.349,-0.014 221.338,0.144 221.911 C 0.243 222.271,0.246 222.534,0.151 222.593 C 0.059 222.650,0.056 222.797,0.143 222.951 C 0.224 223.096,0.255 223.346,0.213 223.507 C 0.171 223.668,0.219 223.952,0.319 224.140 C 0.419 224.327,0.436 224.520,0.356 224.569 C 0.277 224.618,0.241 224.867,0.278 225.121 C 0.374 225.792,0.497 227.214,0.601 228.831 C 0.651 229.609,0.743 230.284,0.804 230.331 C 0.866 230.378,0.932 230.679,0.950 231.000 C 0.997 231.813,1.116 232.917,1.156 232.917 C 1.174 232.917,1.218 233.142,1.253 233.417 C 1.287 233.692,1.370 234.179,1.436 234.500 C 1.502 234.821,1.542 235.144,1.524 235.219 C 1.507 235.294,1.576 235.664,1.678 236.041 C 1.779 236.419,1.888 236.920,1.920 237.155 C 1.951 237.391,1.988 237.583,2.002 237.583 C 2.016 237.583,2.048 237.733,2.072 237.917 C 2.266 239.364,2.568 240.833,2.672 240.833 C 2.741 240.833,2.792 241.002,2.784 241.208 C 2.769 241.625,3.675 245.368,3.823 245.500 C 3.875 245.546,3.932 245.733,3.951 245.917 C 3.970 246.100,4.029 246.475,4.082 246.750 C 4.136 247.025,4.222 247.475,4.273 247.750 C 4.324 248.025,4.437 248.381,4.522 248.542 C 4.608 248.702,4.629 248.833,4.569 248.833 C 4.509 248.833,4.543 248.934,4.645 249.057 C 4.747 249.180,4.781 249.330,4.721 249.390 C 4.660 249.451,4.686 249.500,4.778 249.500 C 4.869 249.500,4.953 249.594,4.963 249.708 C 5.017 250.306,5.145 250.812,5.386 251.378 C 5.532 251.723,5.654 252.043,5.656 252.087 C 5.667 252.298,5.890 253.102,5.979 253.250 C 6.033 253.342,6.089 253.473,6.102 253.542 C 6.114 253.610,6.144 253.704,6.167 253.750 C 6.231 253.878,6.290 254.142,6.313 254.405 C 6.324 254.536,6.427 254.742,6.542 254.863 C 6.656 254.984,6.768 255.253,6.790 255.459 C 6.812 255.666,6.954 256.116,7.106 256.459 C 7.258 256.803,7.401 257.158,7.423 257.250 C 7.585 257.904,8.383 259.762,8.548 259.866 C 8.706 259.967,8.706 259.995,8.547 259.997 C 8.331 260.000,8.423 260.418,8.726 260.808 C 8.823 260.931,8.926 261.194,8.955 261.391 C 8.985 261.589,9.083 261.775,9.173 261.806 C 9.262 261.837,9.295 261.927,9.246 262.006 C 9.197 262.085,9.309 262.434,9.495 262.781 C 9.681 263.128,9.833 263.492,9.833 263.589 C 9.833 263.687,9.923 263.856,10.032 263.965 C 10.141 264.074,10.245 264.268,10.264 264.396 C 10.283 264.524,10.547 265.144,10.852 265.773 C 11.156 266.402,11.412 266.954,11.422 267.000 C 11.443 267.108,12.235 268.824,12.805 270.000 C 13.050 270.504,13.302 270.940,13.366 270.969 C 13.429 270.998,13.445 271.115,13.401 271.230 C 13.358 271.344,13.474 271.576,13.661 271.745 C 13.847 271.914,14.000 272.143,14.000 272.256 C 14.000 272.464,14.960 274.134,15.349 274.603 C 15.467 274.745,15.575 274.986,15.589 275.139 C 15.603 275.292,15.778 275.679,15.977 276.000 C 16.177 276.321,16.430 276.790,16.540 277.042 C 16.650 277.294,16.798 277.500,16.870 277.500 C 16.941 277.500,17.000 277.582,17.000 277.682 C 17.000 277.782,17.149 278.053,17.331 278.285 C 17.513 278.516,17.621 278.772,17.571 278.853 C 17.521 278.934,17.547 279.000,17.629 279.000 C 17.711 279.000,17.997 279.418,18.264 279.930 C 18.531 280.441,18.900 281.020,19.083 281.217 C 19.267 281.414,19.417 281.615,19.418 281.663 C 19.419 281.800,20.214 283.059,20.457 283.308 C 20.577 283.432,20.783 283.788,20.913 284.100 C 21.043 284.412,21.233 284.667,21.335 284.667 C 21.436 284.667,21.476 284.737,21.424 284.822 C 21.371 284.907,21.469 285.076,21.641 285.197 C 21.950 285.413,22.000 285.502,22.000 285.833 C 22.000 285.925,22.110 286.000,22.245 286.000 C 22.394 286.000,22.452 286.098,22.394 286.250 C 22.341 286.387,22.375 286.500,22.469 286.500 C 22.563 286.500,22.792 286.747,22.979 287.049 C 23.166 287.351,23.472 287.775,23.659 287.991 C 23.847 288.207,24.000 288.485,24.000 288.609 C 24.000 288.732,24.094 288.833,24.209 288.833 C 24.323 288.833,24.588 289.152,24.797 289.542 C 25.006 289.931,25.439 290.542,25.759 290.898 C 26.080 291.255,26.469 291.761,26.624 292.023 C 26.778 292.285,26.954 292.500,27.013 292.500 C 27.073 292.500,27.328 292.799,27.581 293.164 C 27.834 293.529,28.106 293.787,28.185 293.738 C 28.265 293.689,28.293 293.747,28.249 293.866 C 28.205 293.986,28.450 294.396,28.793 294.779 C 29.136 295.162,29.553 295.670,29.719 295.908 C 29.885 296.146,30.103 296.290,30.203 296.228 C 30.303 296.166,30.341 296.186,30.288 296.272 C 30.235 296.358,30.467 296.741,30.804 297.124 C 32.050 298.538,33.275 299.885,34.167 300.821 C 34.671 301.351,35.381 302.114,35.744 302.517 C 36.108 302.920,36.708 303.503,37.078 303.813 C 37.447 304.123,37.748 304.423,37.745 304.480 C 37.742 304.537,37.954 304.763,38.216 304.984 C 38.477 305.204,39.171 305.866,39.757 306.455 C 40.343 307.044,40.900 307.478,40.995 307.420 C 41.089 307.361,41.167 307.400,41.167 307.505 C 41.167 307.746,43.690 310.167,43.941 310.167 C 43.982 310.167,44.190 310.354,44.402 310.583 C 44.614 310.813,44.834 311.000,44.889 311.000 C 44.945 311.000,45.236 311.227,45.537 311.505 C 46.624 312.511,48.486 314.000,48.656 314.000 C 48.752 314.000,48.924 314.150,49.039 314.333 C 49.153 314.517,49.307 314.667,49.380 314.667 C 49.454 314.667,49.675 314.817,49.872 315.000 C 50.069 315.183,50.328 315.333,50.448 315.333 C 50.568 315.333,50.667 315.402,50.667 315.486 C 50.667 315.571,50.945 315.812,51.286 316.022 C 51.626 316.232,52.020 316.506,52.161 316.630 C 52.688 317.094,54.745 318.543,55.115 318.711 C 55.327 318.808,55.500 318.954,55.500 319.037 C 55.500 319.119,55.575 319.140,55.667 319.083 C 55.758 319.027,55.833 319.058,55.833 319.153 C 55.833 319.399,56.807 319.869,57.031 319.731 C 57.134 319.667,57.175 319.685,57.122 319.771 C 57.069 319.857,57.301 320.112,57.638 320.337 C 57.974 320.563,58.288 320.791,58.333 320.844 C 58.379 320.897,58.529 320.993,58.667 321.056 C 58.804 321.119,59.142 321.319,59.417 321.500 C 59.692 321.681,60.160 321.957,60.458 322.112 C 60.756 322.268,61.000 322.456,61.000 322.531 C 61.000 322.606,61.112 322.667,61.250 322.667 C 61.387 322.667,61.500 322.750,61.500 322.853 C 61.500 322.955,61.645 323.001,61.823 322.955 C 62.000 322.908,62.179 322.960,62.221 323.069 C 62.263 323.178,62.849 323.550,63.524 323.895 C 64.198 324.240,65.125 324.736,65.583 324.996 C 67.438 326.049,68.973 326.805,69.067 326.711 C 69.122 326.656,69.167 326.696,69.167 326.800 C 69.167 326.908,69.286 326.944,69.444 326.883 C 69.630 326.812,69.682 326.841,69.601 326.972 C 69.524 327.096,69.604 327.167,69.823 327.167 C 70.012 327.167,70.167 327.229,70.167 327.305 C 70.167 327.382,70.410 327.525,70.708 327.623 C 71.006 327.722,72.507 328.372,74.042 329.068 C 75.578 329.764,76.932 330.333,77.051 330.333 C 77.169 330.333,77.338 330.396,77.425 330.473 C 77.659 330.679,79.318 331.353,79.812 331.442 C 80.047 331.485,80.336 331.599,80.453 331.697 C 80.571 331.794,80.667 331.835,80.667 331.787 C 80.667 331.739,81.623 332.036,82.792 332.447 C 85.468 333.389,86.333 333.657,86.333 333.547 C 86.333 333.499,86.445 333.552,86.581 333.665 C 86.718 333.778,86.943 333.827,87.081 333.774 C 87.220 333.721,87.333 333.754,87.333 333.848 C 87.333 333.943,87.412 333.971,87.507 333.912 C 87.603 333.853,87.772 333.879,87.882 333.969 C 87.993 334.060,88.421 334.229,88.833 334.345 C 89.246 334.461,89.696 334.588,89.833 334.628 C 89.971 334.667,90.252 334.700,90.458 334.701 C 90.665 334.701,90.833 334.765,90.833 334.841 C 90.833 334.918,90.983 334.952,91.167 334.917 C 91.350 334.881,91.500 334.907,91.500 334.974 C 91.500 335.041,91.650 335.111,91.833 335.131 C 92.017 335.151,92.317 335.183,92.500 335.202 C 92.683 335.222,92.833 335.301,92.833 335.379 C 92.833 335.456,92.899 335.479,92.978 335.430 C 93.058 335.381,93.527 335.445,94.020 335.572 C 94.513 335.699,95.179 335.844,95.500 335.894 C 95.821 335.944,96.571 336.095,97.167 336.229 C 97.763 336.363,98.550 336.514,98.917 336.565 C 99.283 336.615,100.483 336.802,101.583 336.981 C 102.683 337.159,104.071 337.358,104.667 337.422 C 105.263 337.486,105.900 337.570,106.083 337.608 C 106.267 337.646,106.951 337.702,107.605 337.733 C 108.259 337.764,108.859 337.830,108.940 337.879 C 109.384 338.154,119.055 338.307,123.667 338.112 C 125.087 338.052,126.570 338.006,126.962 338.009 C 127.353 338.013,127.751 337.968,127.846 337.909 C 127.941 337.850,128.671 337.768,129.468 337.727 C 130.265 337.686,131.029 337.646,131.167 337.638 C 132.551 337.565,140.162 336.498,141.667 336.166 C 142.079 336.075,142.717 335.960,143.083 335.911 C 143.450 335.862,143.900 335.791,144.083 335.753 C 144.267 335.715,144.754 335.640,145.167 335.585 C 145.579 335.531,146.179 335.401,146.500 335.297 C 146.821 335.193,147.238 335.090,147.428 335.068 C 147.617 335.047,148.105 334.940,148.511 334.830 C 148.917 334.721,149.399 334.596,149.583 334.552 C 150.052 334.439,151.174 334.180,151.655 334.073 C 151.878 334.023,152.140 333.932,152.238 333.871 C 152.336 333.810,152.567 333.739,152.750 333.715 C 153.400 333.627,156.333 332.775,156.333 332.674 C 156.333 332.617,156.491 332.559,156.683 332.545 C 156.876 332.530,157.510 332.364,158.093 332.176 C 158.676 331.987,159.232 331.833,159.328 331.833 C 159.425 331.833,159.843 331.674,160.258 331.479 C 160.673 331.284,161.060 331.171,161.118 331.229 C 161.176 331.287,161.368 331.203,161.546 331.042 C 161.723 330.881,161.898 330.769,161.934 330.792 C 161.970 330.815,162.019 330.828,162.042 330.821 C 162.089 330.806,162.424 330.724,162.917 330.607 C 163.214 330.536,163.933 330.261,164.917 329.843 C 165.100 329.766,165.625 329.571,166.083 329.410 C 166.542 329.249,167.217 328.986,167.583 328.824 C 167.950 328.662,168.775 328.332,169.417 328.091 C 170.058 327.849,170.771 327.567,171.000 327.464 C 171.229 327.360,171.466 327.286,171.526 327.299 C 171.586 327.312,171.726 327.213,171.838 327.078 C 171.949 326.943,172.154 326.833,172.292 326.833 C 172.431 326.833,172.815 326.666,173.147 326.461 C 173.479 326.256,173.750 326.123,173.750 326.166 C 173.750 326.286,180.718 322.794,180.970 322.548 C 181.091 322.430,181.305 322.333,181.445 322.333 C 181.584 322.333,181.935 322.165,182.224 321.959 C 182.513 321.752,182.787 321.582,182.833 321.580 C 183.128 321.568,184.301 320.749,184.217 320.614 C 184.158 320.518,184.200 320.501,184.318 320.574 C 184.430 320.643,184.648 320.590,184.802 320.457 C 184.957 320.324,185.496 320.002,186.000 319.741 C 186.504 319.480,187.067 319.136,187.250 318.977 C 187.433 318.817,187.621 318.696,187.667 318.708 C 188.012 318.795,191.050 316.613,190.867 316.410 C 190.803 316.338,190.842 316.333,190.955 316.398 C 191.067 316.462,191.367 316.372,191.621 316.198 C 191.875 316.023,192.627 315.519,193.292 315.077 C 193.956 314.636,194.500 314.213,194.500 314.137 C 194.500 314.062,194.598 314.000,194.719 314.000 C 194.839 314.000,195.101 313.847,195.302 313.660 C 195.503 313.473,195.667 313.372,195.667 313.435 C 195.667 313.497,195.851 313.350,196.075 313.108 C 196.300 312.865,196.558 312.667,196.647 312.667 C 196.737 312.667,196.855 312.529,196.908 312.361 C 196.961 312.193,197.100 312.056,197.216 312.056 C 197.497 312.056,198.333 311.501,198.333 311.314 C 198.333 311.233,198.391 311.185,198.461 311.208 C 198.589 311.250,199.000 310.938,200.980 309.298 C 201.565 308.813,202.315 308.207,202.647 307.951 C 203.401 307.370,205.042 305.937,205.838 305.167 C 206.847 304.190,207.488 303.667,207.675 303.667 C 207.773 303.667,207.810 303.598,207.758 303.513 C 207.706 303.429,207.870 303.197,208.123 302.998 C 209.226 302.131,211.500 299.915,211.500 299.707 C 211.500 299.583,211.560 299.518,211.634 299.563 C 211.708 299.609,212.289 299.070,212.926 298.366 C 213.563 297.662,214.365 296.795,214.708 296.440 C 215.052 296.085,215.333 295.750,215.333 295.695 C 215.333 295.641,215.652 295.291,216.042 294.917 C 216.431 294.543,216.938 293.982,217.167 293.669 C 217.396 293.357,217.752 292.917,217.958 292.693 C 218.165 292.468,218.333 292.208,218.333 292.115 C 218.333 292.021,218.379 291.990,218.435 292.046 C 218.545 292.157,219.332 291.294,219.335 291.059 C 219.336 290.981,219.655 290.568,220.043 290.141 C 221.475 288.569,222.195 287.587,222.041 287.417 C 221.973 287.342,222.007 287.332,222.117 287.395 C 222.234 287.462,222.400 287.352,222.518 287.130 C 222.628 286.921,222.862 286.624,223.037 286.471 C 223.212 286.317,223.361 286.130,223.368 286.054 C 223.385 285.884,224.085 284.765,224.421 284.373 C 224.558 284.214,224.688 284.020,224.710 283.942 C 224.732 283.864,225.031 283.504,225.375 283.143 C 225.719 282.782,226.000 282.386,226.000 282.263 C 226.000 282.141,226.112 281.948,226.248 281.835 C 226.385 281.722,226.455 281.562,226.405 281.481 C 226.355 281.400,226.381 281.333,226.463 281.333 C 226.624 281.333,227.077 280.499,227.029 280.292 C 227.013 280.223,227.082 280.185,227.181 280.208 C 227.281 280.231,227.502 279.987,227.673 279.667 C 227.844 279.346,228.044 279.004,228.117 278.908 C 228.280 278.692,228.401 278.500,229.657 276.458 C 230.207 275.565,230.617 274.833,230.567 274.833 C 230.517 274.833,230.575 274.723,230.696 274.589 C 231.170 274.064,231.333 273.843,231.333 273.726 C 231.333 273.548,232.494 271.322,232.856 270.808 C 233.027 270.564,233.167 270.286,233.167 270.190 C 233.167 270.094,233.390 269.636,233.662 269.174 C 233.935 268.712,234.104 268.332,234.037 268.331 C 233.971 268.329,233.992 268.273,234.085 268.206 C 234.321 268.033,235.667 265.373,235.667 265.077 C 235.667 264.943,235.746 264.833,235.843 264.833 C 235.940 264.833,235.971 264.755,235.912 264.659 C 235.853 264.564,235.876 264.395,235.963 264.284 C 236.202 263.982,237.389 261.283,237.389 261.043 C 237.389 260.927,237.446 260.833,237.515 260.833 C 237.584 260.833,237.731 260.552,237.842 260.208 C 237.953 259.865,238.096 259.508,238.161 259.417 C 238.226 259.325,238.410 258.819,238.571 258.292 C 238.732 257.765,238.932 257.292,239.015 257.240 C 239.099 257.189,239.167 256.941,239.167 256.690 C 239.167 256.439,239.233 256.162,239.315 256.075 C 239.487 255.891,241.114 251.238,241.351 250.250 C 241.440 249.883,241.625 249.340,241.763 249.042 C 241.902 248.745,242.000 248.407,241.981 248.292 C 241.962 248.177,242.039 247.858,242.152 247.583 C 242.265 247.308,242.396 246.858,242.443 246.583 C 242.490 246.308,242.602 245.885,242.693 245.643 C 242.859 245.201,242.915 244.949,243.102 243.792 C 243.158 243.448,243.261 243.167,243.333 243.167 C 243.444 243.167,243.563 242.637,243.763 241.250 C 243.790 241.067,244.007 240.023,244.246 238.930 C 244.485 237.837,244.638 236.834,244.587 236.700 C 244.536 236.567,244.579 236.356,244.682 236.231 C 244.786 236.106,244.831 235.900,244.782 235.772 C 244.733 235.645,244.756 235.475,244.832 235.395 C 244.909 235.315,245.018 234.950,245.073 234.583 C 245.129 234.217,245.256 233.447,245.355 232.874 C 245.454 232.300,245.493 231.721,245.441 231.587 C 245.390 231.454,245.410 231.306,245.485 231.259 C 245.603 231.186,245.815 229.775,245.925 228.333 C 245.968 227.767,246.187 225.552,246.270 224.833 C 246.399 223.724,246.557 219.908,246.570 217.583 L 246.583 215.250 200.292 215.208 L 154.000 215.166 154.000 246.166 L 154.000 277.167 137.333 277.167 L 120.666 277.167 120.708 184.750 L 120.750 92.333 120.333 92.309 C 119.628 92.267,116.808 92.248,116.771 92.284 M154.292 261.792 C 154.268 270.294,154.248 263.337,154.248 246.333 C 154.248 229.329,154.268 222.373,154.292 230.875 C 154.316 239.377,154.316 253.290,154.292 261.792 " stroke="none" fill="#f4bc7c" fill-rule="evenodd"></path><path id="path1" d="M120.749 184.833 C 120.749 235.662,120.768 256.456,120.792 231.042 C 120.815 205.627,120.815 164.040,120.792 138.625 C 120.768 113.210,120.749 134.004,120.749 184.833 M154.248 246.333 C 154.248 263.337,154.268 270.294,154.292 261.792 C 154.316 253.290,154.316 239.377,154.292 230.875 C 154.268 222.373,154.248 229.329,154.248 246.333 " stroke="none" fill="#f4c47c" fill-rule="evenodd"></path><path id="path2" d="" stroke="none" fill="#f4bc84" fill-rule="evenodd"></path><path id="path3" d="M0.205 204.833 C 0.205 205.154,0.240 205.285,0.282 205.125 C 0.323 204.965,0.323 204.702,0.282 204.542 C 0.240 204.381,0.205 204.512,0.205 204.833 " stroke="none" fill="#f8bc7c" fill-rule="evenodd"></path><path id="path4" d="M0.205 204.833 C 0.205 205.154,0.240 205.285,0.282 205.125 C 0.323 204.965,0.323 204.702,0.282 204.542 C 0.240 204.381,0.205 204.512,0.205 204.833 " stroke="none" fill="#f8bc7c" fill-rule="evenodd"></path></g></svg>