<?xml version="1.0" encoding="UTF-8"?>
<svg version="1.1" xmlns="http://www.w3.org/2000/svg" width="384" height="384">
<path d="M0 0 C2.41861137 0.01508894 4.83723194 0.02876982 7.25585938 0.04101562 C13.10827817 0.07365293 18.96034426 0.12351162 24.8125 0.1875 C24.8125 0.8475 24.8125 1.5075 24.8125 2.1875 C28.1125 2.1875 31.4125 2.1875 34.8125 2.1875 C34.8125 2.8475 34.8125 3.5075 34.8125 4.1875 C36.79817708 4.12239583 38.78385417 4.05729167 40.76953125 3.9921875 C42.8125 4.1875 42.8125 4.1875 45.8125 6.1875 C46.8025 6.5175 47.7925 6.8475 48.8125 7.1875 C51.8125 8.1875 51.8125 8.1875 54.8125 10.1875 C57.43781524 10.35463569 57.43781524 10.35463569 59.8125 10.1875 C59.8125 10.8475 59.8125 11.5075 59.8125 12.1875 C60.76125 12.249375 61.71 12.31125 62.6875 12.375 C67.88377249 13.07921763 72.26521375 15.70799381 76.8125 18.1875 C76.8125 18.8475 76.8125 19.5075 76.8125 20.1875 C77.63621094 20.25453125 78.45992188 20.3215625 79.30859375 20.390625 C83.81191207 21.41479104 87.02856495 23.45222171 90.875 25.9375 C91.91624023 26.58332031 91.91624023 26.58332031 92.97851562 27.2421875 C97.09643607 29.85450551 100.42427012 32.64469759 103.8125 36.1875 C104.534375 36.538125 105.25625 36.88875 106 37.25 C107.8125 38.1875 107.8125 38.1875 108.8125 40.25 C109.1425 40.889375 109.4725 41.52875 109.8125 42.1875 C110.451875 42.331875 111.09125 42.47625 111.75 42.625 C113.8125 43.1875 113.8125 43.1875 115.09765625 45.3828125 C117.08834663 48.6386569 119.56444513 51.02876167 122.3125 53.625 C156.38179723 86.89632433 174.19145797 134.56473247 175.09814453 181.66674805 C175.40319492 219.52904749 165.1419103 256.62169112 143.37890625 287.796875 C141.67428234 290.17643758 141.67428234 290.17643758 140.8125 293.1875 C139.33230198 296.94492574 139.33230198 296.94492574 136.9375 298.0625 C132.98852658 300.15313299 131.18311533 304.07565401 129.8125 308.1875 C128.48276363 308.8613126 127.14859569 309.52638691 125.8125 310.1875 C124.05482783 311.75900129 122.34971819 313.39035812 120.6875 315.0625 C119.81867188 315.92617188 118.94984375 316.78984375 118.0546875 317.6796875 C116.10409543 319.86136016 115.07274763 321.60919522 113.8125 324.1875 C112.14583333 324.85416667 110.47916667 325.52083333 108.8125 326.1875 C108.12981862 327.51270503 107.4617959 328.84562182 106.8125 330.1875 C105.48655895 330.54912029 104.15311543 330.88478039 102.8125 331.1875 C102.4825 332.1775 102.1525 333.1675 101.8125 334.1875 C100.8225 334.5175 99.8325 334.8475 98.8125 335.1875 C98.27367187 335.75082031 97.73484375 336.31414062 97.1796875 336.89453125 C93.80111016 340.1671796 89.94064475 342.43366374 85.9375 344.875 C85.14730469 345.37322266 84.35710937 345.87144531 83.54296875 346.38476562 C79.30384371 348.98396292 75.89117824 350.83640166 70.8125 351.1875 C70.8125 351.8475 70.8125 352.5075 70.8125 353.1875 C66.41539247 355.65417008 62.77896888 356.53155128 57.8125 357.1875 C56.8225 357.8475 55.8325 358.5075 54.8125 359.1875 C51.48018234 361.4090451 49.73969057 361.61627228 45.8125 362.1875 C44.10192018 362.48745949 42.39366196 362.80085436 40.6875 363.125 C39.85992187 363.27839844 39.03234375 363.43179687 38.1796875 363.58984375 C35.82986539 364.18311567 33.92919221 365.02185614 31.8125 366.1875 C31.8125 366.5175 31.8125 366.8475 31.8125 367.1875 C30.93464844 367.15269531 30.93464844 367.15269531 30.0390625 367.1171875 C24.10688511 366.99248707 18.37857641 367.43496457 12.5 368.1875 C-2.46655749 370.02706304 -17.54843078 369.4794692 -32.55859375 368.40625 C-36.11163027 368.19207342 -39.62902252 368.15076733 -43.1875 368.1875 C-43.1875 367.5275 -43.1875 366.8675 -43.1875 366.1875 C-46.6069888 365.27470914 -46.6069888 365.27470914 -50.03125 365.75 C-52.88466013 366.32895278 -54.68990741 365.65381335 -57.4375 364.75 C-58.32953125 364.46253906 -59.2215625 364.17507813 -60.140625 363.87890625 C-61.15382812 363.53666016 -61.15382812 363.53666016 -62.1875 363.1875 C-62.1875 362.5275 -62.1875 361.8675 -62.1875 361.1875 C-62.81398437 361.13851563 -63.44046875 361.08953125 -64.0859375 361.0390625 C-64.90320313 360.96429688 -65.72046875 360.88953125 -66.5625 360.8125 C-67.37460938 360.74289062 -68.18671875 360.67328125 -69.0234375 360.6015625 C-71.1875 360.1875 -71.1875 360.1875 -73.1875 358.1875 C-74.80448415 357.64850528 -76.42531328 357.11863324 -78.0625 356.64453125 C-84.59107225 354.66435768 -90.29472057 351.59099317 -96.1875 348.1875 C-96.1875 347.5275 -96.1875 346.8675 -96.1875 346.1875 C-97.8375 345.8575 -99.4875 345.5275 -101.1875 345.1875 C-101.1875 344.5275 -101.1875 343.8675 -101.1875 343.1875 C-101.91453125 343.08308594 -102.6415625 342.97867187 -103.390625 342.87109375 C-106.44214651 342.12526098 -108.35760987 341.02042796 -110.9375 339.25 C-111.71609375 338.72535156 -112.4946875 338.20070313 -113.296875 337.66015625 C-115.1875 336.1875 -115.1875 336.1875 -116.1875 334.1875 C-116.8475 333.8575 -117.5075 333.5275 -118.1875 333.1875 C-120.1875 332.1875 -120.1875 332.1875 -121.1875 330.1875 C-122.1775 329.8575 -123.1675 329.5275 -124.1875 329.1875 C-124.496875 328.5275 -124.80625 327.8675 -125.125 327.1875 C-125.475625 326.5275 -125.82625 325.8675 -126.1875 325.1875 C-126.826875 325.043125 -127.46625 324.89875 -128.125 324.75 C-130.1875 324.1875 -130.1875 324.1875 -131.49609375 321.97265625 C-133.42167712 318.80189196 -135.63098645 316.62177932 -138.3125 314.0625 C-143.09506829 309.43498155 -147.24596882 304.58220774 -151.3125 299.3046875 C-153.08976624 296.94199231 -153.08976624 296.94199231 -156.1875 296.1875 C-156.6825 294.7025 -156.6825 294.7025 -157.1875 293.1875 C-158.6028611 290.08195041 -160.3664303 287.21904687 -162.15673828 284.31713867 C-189.09895298 240.50046969 -198.21744137 189.79535166 -186.23779297 139.41357422 C-178.16089865 107.51759247 -162.55634326 80.27198007 -140.70166016 55.88818359 C-135.8928401 50.53996013 -135.8928401 50.53996013 -131.5625 44.8125 C-130.1875 43.1875 -130.1875 43.1875 -128.125 42.6875 C-127.1659375 42.44 -127.1659375 42.44 -126.1875 42.1875 C-125.48812468 40.87102881 -124.82020867 39.53727849 -124.1875 38.1875 C-123.1975 37.8575 -122.2075 37.5275 -121.1875 37.1875 C-120.3625 36.3625 -119.5375 35.5375 -118.6875 34.6875 C-116.1875 32.1875 -116.1875 32.1875 -113.1875 31.1875 C-112.8575 30.5275 -112.5275 29.8675 -112.1875 29.1875 C-111.589375 29.06375 -110.99125 28.94 -110.375 28.8125 C-108.00234863 28.32611059 -108.00234863 28.32611059 -106.1875 26.1875 C-104.02200189 24.02200189 -103.0626666 23.83673117 -100.1875 23.1875 C-99.79433594 22.75953125 -99.40117188 22.3315625 -98.99609375 21.890625 C-96.43262998 19.47665048 -93.43545253 18.05498364 -90.3125 16.5 C-89.70019531 16.17966797 -89.08789062 15.85933594 -88.45703125 15.52929688 C-84.89047026 13.7383792 -82.18674851 12.7845339 -78.1875 13.1875 C-78.1875 12.5275 -78.1875 11.8675 -78.1875 11.1875 C-75.5475 10.8575 -72.9075 10.5275 -70.1875 10.1875 C-70.1875 9.5275 -70.1875 8.8675 -70.1875 8.1875 C-69.424375 8.249375 -68.66125 8.31125 -67.875 8.375 C-65.15178564 8.50229105 -65.15178564 8.50229105 -63.875 6.6875 C-61.03951898 4.16707243 -57.86219212 5.00677744 -54.1875 5.1875 C-54.1875 4.5275 -54.1875 3.8675 -54.1875 3.1875 C-53.03870361 3.2181958 -51.88990723 3.2488916 -50.70629883 3.28051758 C-47.05013421 3.28036735 -43.69247617 2.82760651 -40.11250305 2.12983704 C-26.79273302 -0.44711372 -13.51196699 -0.14827819 0 0 Z " fill="#FBEBD2" transform="translate(200.1875,3.8125)"/>
<path d="M0 0 C6.01342398 3.37710814 10.87870989 8.64342874 15.640625 13.55078125 C17.0545804 14.98513163 18.46864606 16.41937332 19.8828125 17.85351562 C22.0796323 20.09402499 24.27389527 22.33697712 26.46582031 24.58227539 C28.60105006 26.76564503 30.74530218 28.93983498 32.890625 31.11328125 C33.87195404 32.12724724 33.87195404 32.12724724 34.87310791 33.16169739 C35.48764832 33.78291977 36.10218872 34.40414215 36.73535156 35.04418945 C37.27081604 35.59234818 37.80628052 36.1405069 38.35797119 36.70527649 C40.27144271 38.2140299 41.59081389 38.68979513 44 39 C47.36261738 38.08700668 47.36261738 38.08700668 51 36.6875 C57.61497518 34.34798907 64.01012376 32.81564363 71 32 C72.40958984 31.83371094 72.40958984 31.83371094 73.84765625 31.6640625 C93.44282583 29.71245745 114.41241094 30.70773968 133.01318359 37.76367188 C135.3250722 38.63730757 135.3250722 38.63730757 139 39 C141.76158456 37.24203168 143.4337352 35.83155346 145.625 33.5 C146.24036621 32.88793701 146.85573242 32.27587402 147.48974609 31.64526367 C148.88324112 30.2529533 150.26482005 28.84865348 151.63671875 27.43505859 C155.27650182 23.6847284 158.97009552 19.98830571 162.66162109 16.2890625 C164.61755739 14.328874 166.56207886 12.35833211 168.49853516 10.37890625 C169.39878418 9.46625 170.2990332 8.55359375 171.2265625 7.61328125 C172.02658691 6.79641846 172.82661133 5.97955566 173.65087891 5.13793945 C178.22490665 0.97510834 181.73781361 -0.64349965 187.85546875 -0.41015625 C192.64194999 0.50529098 194.5584233 4.3506225 197.125 8.125 C203.74055026 20.47224158 203.16603777 34.89530792 203.13009644 48.48336792 C203.12492807 50.97213766 203.13144698 53.46070204 203.13891602 55.94946289 C203.14466156 63.57997179 203.01473107 71.07317214 202.18164062 78.66625977 C201.2124701 87.68245315 203.22466441 92.76905952 208.63671875 99.84765625 C215.88222501 109.51232327 219.19387635 120.99100846 218 133 C217.34 133.99 216.68 134.98 216 136 C216.21000326 138.20503419 216.43018826 140.40935959 216.6875 142.609375 C218.21324137 159.16366887 217.09651712 172.46638795 208.5625 187.0625 C206.22749411 190.95006524 206.22749411 190.95006524 206.5 195.4375 C206.995 196.283125 207.49 197.12875 208 198 C210.18335632 201.76022477 210.16686852 204.66141839 210 209 C209.01 209.33 208.02 209.66 207 210 C207.27787354 210.58491211 207.55574707 211.16982422 207.84204102 211.77246094 C209.09438138 214.42608571 210.32856099 217.087772 211.5625 219.75 C212.00013672 220.67039062 212.43777344 221.59078125 212.88867188 222.5390625 C213.29794922 223.42851562 213.70722656 224.31796875 214.12890625 225.234375 C214.70233765 226.45979004 214.70233765 226.45979004 215.28735352 227.70996094 C216.09804752 230.31506877 215.98205737 231.4851142 215 234 C213.44140625 236.03515625 213.44140625 236.03515625 211.5625 238.0625 C209.47083853 240.33756394 207.72328194 242.41507709 206 245 C205.34 245 204.68 245 204 245 C203.79761719 245.54398438 203.59523438 246.08796875 203.38671875 246.6484375 C201.43910152 249.95115743 198.71008448 252.18252526 195.8125 254.625 C194.88244141 255.41342285 194.88244141 255.41342285 193.93359375 256.21777344 C187.32191445 261.71754884 180.31232094 266.48703257 173 271 C172.40687012 271.36609375 171.81374023 271.7321875 171.20263672 272.109375 C142.71431762 289.47128738 142.71431762 289.47128738 132.7265625 287.56640625 C132.15679687 287.37949219 131.58703125 287.19257813 131 287 C131.50789062 286.50113281 132.01578125 286.00226563 132.5390625 285.48828125 C137.77637529 280.02539132 140.75027339 274.77497358 143.48046875 267.72265625 C145.31351636 264.43824961 146.50760675 264.11121603 150 263 C156.22175738 256.63355059 157.19963064 251.07577497 157.4609375 242.48828125 C158.15325537 239.2925821 159.40973123 238.84443263 162 237 C162.68850829 234.9683434 162.68850829 234.9683434 162.75 232.8125 C162.8325 231.554375 162.915 230.29625 163 229 C162.01257813 229.37253906 161.02515625 229.74507812 160.0078125 230.12890625 C158.71368887 230.60716933 157.41940989 231.0850122 156.125 231.5625 C155.14853516 231.9327832 155.14853516 231.9327832 154.15234375 232.31054688 C152.45502335 232.93173115 150.72843224 233.47152252 149 234 C148.34 233.67 147.68 233.34 147 233 C147.63615234 232.38125 147.63615234 232.38125 148.28515625 231.75 C151.46956401 228.61458313 154.47742697 225.45608903 157.3125 222 C161.82142998 216.77488651 167.40740184 213.20412435 173.25390625 209.6171875 C189.23613703 199.61042404 197.89547948 185.73926348 203 168 C203.20625 167.34257812 203.4125 166.68515625 203.625 166.0078125 C205.17346774 157.71705815 204.16351789 148.29006494 203 140 C203.66 140 204.32 140 205 140 C203.43039144 133.9831672 201.84083808 129.00472841 198 124 C197.195625 122.7625 197.195625 122.7625 196.375 121.5 C191.30162667 116.15960702 184.21487858 111.93545925 176.75 111.6875 C170.95106865 111.79071722 167.1884413 113.82543888 163.15234375 117.8359375 C160.47844021 120.79937199 158.15368407 123.75986864 156 127.125 C152.90710141 131.57104172 149.18975976 135.27008008 144 137 C137.91843901 137.54236143 131.87788232 138.01952543 126.65234375 134.48046875 C123.78339555 131.90994542 121.32596152 129.00453937 118.89453125 126.0234375 C116.27831164 123.22920707 114.24945025 122.09142319 110.4375 121.8125 C107.8610473 121.91157555 107.8610473 121.91157555 105 123 C104.34 126.3 103.68 129.6 103 133 C94.42 133.33 85.84 133.66 77 134 C77 131.36 77 128.72 77 126 C75.62283334 123.28892287 75.62283334 123.28892287 73 122 C67.40664129 121.78892986 64.47686626 123.74435394 60.5546875 127.37890625 C58.83710062 129.11052807 58.83710062 129.11052807 56.9375 131.6875 C53.84106838 135.38324096 51.02007666 136.74108877 46.2265625 137.35546875 C40.35245587 137.62919916 35.70745015 137.33334221 30.87109375 133.82421875 C27.71912922 130.75121784 25.29725494 127.20124744 22.80078125 123.58984375 C18.86883707 117.93500863 14.49563307 114.25777581 8 112 C0.64513699 111.06604914 -4.77256626 113.23922695 -10.9140625 117.25 C-16.74500773 121.77090908 -21.70092282 128.54934269 -22.9375 135.9375 C-23.17219534 139.04261196 -23.17219534 139.04261196 -22 142 C-22.32802569 143.66771941 -22.66275013 145.33412143 -23 147 C-24.42750933 165.66387599 -20.59159236 181.11518724 -8.24169922 195.65161133 C-2.26752116 202.36535805 4.46913338 207.14264 12 212 C18.13156701 216.02482347 22.40605334 220.61496778 26.921875 226.4140625 C28.82445531 228.78155905 30.81060586 230.89936508 33 233 C27.21113776 231.63172347 21.61854082 229.95088223 16 228 C15.9175 229.2375 15.835 230.475 15.75 231.75 C15.70359375 232.44609375 15.6571875 233.1421875 15.609375 233.859375 C15.81208701 236.18459093 15.81208701 236.18459093 17.9296875 237.78125 C20.7436262 240.7969428 20.8865457 243.81646619 21.375 247.75 C22.38492494 254.19910252 23.60615635 259.74442551 29 264 C32.20780218 265.12428864 32.20780218 265.12428864 35 265 C35.13535156 265.53367187 35.27070313 266.06734375 35.41015625 266.6171875 C37.69774036 274.53469419 41.9981839 281.32755186 48 287 C24.96395174 284.44696026 1.16759271 268.24016116 -15.21484375 252.64453125 C-16.91227331 250.92840636 -16.91227331 250.92840636 -19 250 C-19 249.34 -19 248.68 -19 248 C-19.66 248 -20.32 248 -21 248 C-22.4453125 246.56640625 -22.4453125 246.56640625 -24.125 244.5625 C-26.11616081 242.18906992 -28.1061603 239.89146842 -30.2734375 237.67578125 C-31.00820312 236.91652344 -31.74296875 236.15726563 -32.5 235.375 C-33.53640625 234.33472656 -33.53640625 234.33472656 -34.59375 233.2734375 C-36 231 -36 231 -35.87109375 228.109375 C-34.97269039 224.90251816 -33.88040256 221.93315966 -32.5625 218.875 C-32.13066406 217.86179687 -31.69882813 216.84859375 -31.25390625 215.8046875 C-30.2243178 213.5017451 -29.15352893 211.24267485 -28 209 C-29.32 208.67 -30.64 208.34 -32 208 C-31.67944944 203.4321545 -31.33115265 200.15443576 -28.875 196.25 C-26.77981024 193.35836754 -26.77981024 193.35836754 -27.19921875 191.1875 C-28.67654683 187.15187207 -30.64804798 183.3445501 -32.52734375 179.484375 C-36.04714327 171.15636128 -36.28315546 163.82633728 -36.1875 154.875 C-36.18685547 153.72128906 -36.18621094 152.56757813 -36.18554688 151.37890625 C-36.14106318 142.80838188 -36.14106318 142.80838188 -35.43261719 138.74853516 C-34.92626391 135.53153447 -35.50683053 134.78296819 -37 132 C-38.88989282 116.56255972 -31.88267508 104.63316139 -24 92 C-23.01 91.01 -23.01 91.01 -22 90 C-21.71671804 87.17800203 -21.71671804 87.17800203 -21.8125 83.9375 C-21.81894531 82.85339844 -21.82539062 81.76929688 -21.83203125 80.65234375 C-21.9518682 78.04658675 -22.16200226 75.60063649 -22.49609375 73.02734375 C-23.28849881 66.25074152 -23.24327653 59.43953778 -23.25 52.625 C-23.25100708 51.91745575 -23.25201416 51.2099115 -23.25305176 50.48092651 C-23.22375596 20.00338396 -23.22375596 20.00338396 -16 8 C-15.65710938 7.40960938 -15.31421875 6.81921875 -14.9609375 6.2109375 C-11.07514192 -0.04786301 -6.95440892 -1.1533545 0 0 Z " fill="#292723" transform="translate(101,56)"/>
<path d="M0 0 C5.46738417 2.9639418 8.51247352 6.97992985 11.9375 12.0625 C16.62792137 19.15424386 16.62792137 19.15424386 23.9375 23.0625 C30.10595305 23.74214824 36.05966157 24.06153986 41.359375 20.47265625 C43.92325159 18.18166752 46.04872635 15.53991669 48.25 12.90625 C50.57154232 10.36975006 52.66796938 9.10596722 55.9375 8.0625 C59.4566109 8.13150217 61.18344111 8.383847 63.8125 10.75 C65.24559145 13.69579909 65.21913537 15.82369319 64.9375 19.0625 C64.6075 19.7225 64.2775 20.3825 63.9375 21.0625 C64.9275 20.5675 64.9275 20.5675 65.9375 20.0625 C67.75091842 19.97778636 69.56744161 19.95528917 71.3828125 19.96484375 C72.45917969 19.96806641 73.53554687 19.97128906 74.64453125 19.97460938 C75.77246094 19.98298828 76.90039062 19.99136719 78.0625 20 C79.76599609 20.00676758 79.76599609 20.00676758 81.50390625 20.01367188 C84.31515638 20.02548385 87.1263023 20.04195493 89.9375 20.0625 C89.87369141 18.4228125 89.87369141 18.4228125 89.80859375 16.75 C89.9375 13.0625 89.9375 13.0625 92 10.0625 C94.9375 8.0625 94.9375 8.0625 98.25 7.8125 C104.39428173 9.89530737 108.22728996 14.31342155 112.6875 18.875 C116.54420285 22.62457222 119.46035012 23.35457195 124.8125 23.375 C130.4430083 23.25200346 134.29009925 22.70990075 138.4140625 18.5859375 C141.12103788 15.54579592 143.49383706 12.29699484 145.875 9 C149.3627702 4.28233189 153.28266483 -0.05255494 158.9375 -1.9375 C167.7967241 -3.20569159 174.07287059 0.38698733 181.1875 5.3125 C186.1850389 10.3100389 190.31644001 16.09194204 191.9375 23.0625 C191.9375 24.3825 191.9375 25.7025 191.9375 27.0625 C191.2775 27.0625 190.6175 27.0625 189.9375 27.0625 C190.2675 28.238125 190.5975 29.41375 190.9375 30.625 C194.16637113 45.70877754 191.32675079 61.99020853 182.9375 75.0625 C176.08277325 85.06818985 168.02544695 92.97343053 157.6875 99.25 C148.53474608 104.81019856 141.84042924 111.9562075 134.9375 120.0625 C135.68515625 119.77375 136.4328125 119.485 137.203125 119.1875 C138.68039063 118.630625 138.68039063 118.630625 140.1875 118.0625 C141.16203125 117.69125 142.1365625 117.32 143.140625 116.9375 C145.9375 116.0625 145.9375 116.0625 149.9375 116.0625 C150.30467663 123.5284249 150.30467663 123.5284249 148.5625 126.0625 C146.9375 127.0625 146.9375 127.0625 144.9375 127.0625 C144.98390625 127.75214844 145.0303125 128.44179688 145.078125 129.15234375 C145.40620432 137.69412318 143.86655946 143.47440216 138.4375 150.125 C135.9375 152.0625 135.9375 152.0625 131.9375 152.0625 C131.6075 153.0525 131.2775 154.0425 130.9375 155.0625 C125.40823167 160.88797913 118.2732281 166.69754856 110.5625 169.125 C107.9375 169.0625 107.9375 169.0625 106.0625 167.625 C105.69125 167.109375 105.32 166.59375 104.9375 166.0625 C104.050625 166.68125 103.16375 167.3 102.25 167.9375 C97.91605728 170.71776514 95.01397696 172.18048163 89.875 172 C86.04814807 171.66719216 86.04814807 171.66719216 84 173.5625 C80.62430043 176.01755423 76.96598841 175.60519792 72.9375 175.0625 C69.375 173.5625 69.375 173.5625 66.9375 172.0625 C66.6075 172.3925 66.2775 172.7225 65.9375 173.0625 C59.70686154 173.64209428 55.93980164 171.58599038 51.0625 167.875 C50.36125 167.276875 49.66 166.67875 48.9375 166.0625 C48.2775 167.3825 47.6175 168.7025 46.9375 170.0625 C37.9695 168.0865 37.9695 168.0865 33.9375 165.0625 C33.9375 164.4025 33.9375 163.7425 33.9375 163.0625 C32.6175 162.7325 31.2975 162.4025 29.9375 162.0625 C29.9375 161.0725 29.9375 160.0825 29.9375 159.0625 C28.7928125 158.9078125 28.7928125 158.9078125 27.625 158.75 C24.73942188 158.01182885 23.67570183 157.44109197 21.9375 155.0625 C21.9375 154.0725 21.9375 153.0825 21.9375 152.0625 C20.638125 152.2790625 20.638125 152.2790625 19.3125 152.5 C15.67326737 152.02824762 15.13383148 151.73861789 12.75 149.1875 C7.68408948 142.60580522 6.48687965 135.17366633 6.9375 127.0625 C6.298125 126.77375 5.65875 126.485 5 126.1875 C2.9375 125.0625 2.9375 125.0625 1.9375 123.0625 C1.70673077 117.52403846 1.70673077 117.52403846 2.9375 115.0625 C8.46456913 115.78974594 13.63710141 117.39695973 18.9375 119.0625 C17.6690625 118.1034375 17.6690625 118.1034375 16.375 117.125 C13.66960634 114.89888354 11.73091042 112.52691828 9.6875 109.6875 C5.83335042 104.57399014 1.25729188 101.5211402 -4.0625 98.0625 C-20.49805969 86.75446868 -32.68165331 72.98230602 -37.0625 53.0625 C-37.15124842 51.63097121 -37.19309789 50.19599419 -37.1953125 48.76171875 C-37.19724609 47.54258789 -37.19724609 47.54258789 -37.19921875 46.29882812 C-37.19341797 45.0371582 -37.19341797 45.0371582 -37.1875 43.75 C-37.19136719 42.92048828 -37.19523437 42.09097656 -37.19921875 41.23632812 C-37.19159367 36.40584094 -36.87236449 31.82527452 -36.0625 27.0625 C-36.3925 27.0625 -36.7225 27.0625 -37.0625 27.0625 C-37.95461766 20.10398225 -34.3995575 15.29842577 -30.48828125 9.8828125 C-22.88174634 0.48546167 -11.69878886 -5.1895542 0 0 Z " fill="#F8EEDD" transform="translate(114.0625,168.9375)"/>
<path d="M0 0 C2.41861137 0.01508894 4.83723194 0.02876982 7.25585938 0.04101562 C13.10827817 0.07365293 18.96034426 0.12351162 24.8125 0.1875 C24.8125 0.8475 24.8125 1.5075 24.8125 2.1875 C28.1125 2.1875 31.4125 2.1875 34.8125 2.1875 C34.8125 2.8475 34.8125 3.5075 34.8125 4.1875 C36.79817708 4.12239583 38.78385417 4.05729167 40.76953125 3.9921875 C42.8125 4.1875 42.8125 4.1875 45.8125 6.1875 C46.8025 6.5175 47.7925 6.8475 48.8125 7.1875 C51.8125 8.1875 51.8125 8.1875 54.8125 10.1875 C57.43781524 10.35463569 57.43781524 10.35463569 59.8125 10.1875 C59.8125 10.8475 59.8125 11.5075 59.8125 12.1875 C60.76125 12.249375 61.71 12.31125 62.6875 12.375 C67.88377249 13.07921763 72.26521375 15.70799381 76.8125 18.1875 C76.8125 18.8475 76.8125 19.5075 76.8125 20.1875 C77.63621094 20.25453125 78.45992188 20.3215625 79.30859375 20.390625 C83.81191207 21.41479104 87.02856495 23.45222171 90.875 25.9375 C91.91624023 26.58332031 91.91624023 26.58332031 92.97851562 27.2421875 C97.09643607 29.85450551 100.42427012 32.64469759 103.8125 36.1875 C104.534375 36.538125 105.25625 36.88875 106 37.25 C107.8125 38.1875 107.8125 38.1875 108.8125 40.25 C109.1425 40.889375 109.4725 41.52875 109.8125 42.1875 C110.451875 42.331875 111.09125 42.47625 111.75 42.625 C113.8125 43.1875 113.8125 43.1875 115.09765625 45.3828125 C117.08834663 48.6386569 119.56444513 51.02876167 122.3125 53.625 C156.38179723 86.89632433 174.19145797 134.56473247 175.09814453 181.66674805 C175.40319492 219.52904749 165.1419103 256.62169112 143.37890625 287.796875 C141.67428234 290.17643758 141.67428234 290.17643758 140.8125 293.1875 C139.33230198 296.94492574 139.33230198 296.94492574 136.9375 298.0625 C132.98852658 300.15313299 131.18311533 304.07565401 129.8125 308.1875 C128.48276363 308.8613126 127.14859569 309.52638691 125.8125 310.1875 C124.05482783 311.75900129 122.34971819 313.39035812 120.6875 315.0625 C119.81867188 315.92617188 118.94984375 316.78984375 118.0546875 317.6796875 C116.10409543 319.86136016 115.07274763 321.60919522 113.8125 324.1875 C112.14583333 324.85416667 110.47916667 325.52083333 108.8125 326.1875 C108.12981862 327.51270503 107.4617959 328.84562182 106.8125 330.1875 C105.48655895 330.54912029 104.15311543 330.88478039 102.8125 331.1875 C102.4825 332.1775 102.1525 333.1675 101.8125 334.1875 C100.8225 334.5175 99.8325 334.8475 98.8125 335.1875 C98.27367187 335.75082031 97.73484375 336.31414062 97.1796875 336.89453125 C93.80111016 340.1671796 89.94064475 342.43366374 85.9375 344.875 C85.14730469 345.37322266 84.35710937 345.87144531 83.54296875 346.38476562 C79.30384371 348.98396292 75.89117824 350.83640166 70.8125 351.1875 C70.8125 351.8475 70.8125 352.5075 70.8125 353.1875 C66.41539247 355.65417008 62.77896888 356.53155128 57.8125 357.1875 C56.8225 357.8475 55.8325 358.5075 54.8125 359.1875 C51.48018234 361.4090451 49.73969057 361.61627228 45.8125 362.1875 C44.10192018 362.48745949 42.39366196 362.80085436 40.6875 363.125 C39.85992187 363.27839844 39.03234375 363.43179687 38.1796875 363.58984375 C35.82986539 364.18311567 33.92919221 365.02185614 31.8125 366.1875 C31.8125 366.5175 31.8125 366.8475 31.8125 367.1875 C30.93464844 367.15269531 30.93464844 367.15269531 30.0390625 367.1171875 C24.10688511 366.99248707 18.37857641 367.43496457 12.5 368.1875 C-2.46655749 370.02706304 -17.54843078 369.4794692 -32.55859375 368.40625 C-36.11163027 368.19207342 -39.62902252 368.15076733 -43.1875 368.1875 C-43.1875 367.5275 -43.1875 366.8675 -43.1875 366.1875 C-46.6069888 365.27470914 -46.6069888 365.27470914 -50.03125 365.75 C-52.88466013 366.32895278 -54.68990741 365.65381335 -57.4375 364.75 C-58.32953125 364.46253906 -59.2215625 364.17507813 -60.140625 363.87890625 C-61.15382812 363.53666016 -61.15382812 363.53666016 -62.1875 363.1875 C-62.1875 362.5275 -62.1875 361.8675 -62.1875 361.1875 C-62.81398437 361.13851563 -63.44046875 361.08953125 -64.0859375 361.0390625 C-64.90320313 360.96429688 -65.72046875 360.88953125 -66.5625 360.8125 C-67.37460938 360.74289062 -68.18671875 360.67328125 -69.0234375 360.6015625 C-71.1875 360.1875 -71.1875 360.1875 -73.1875 358.1875 C-74.80448415 357.64850528 -76.42531328 357.11863324 -78.0625 356.64453125 C-84.59107225 354.66435768 -90.29472057 351.59099317 -96.1875 348.1875 C-96.1875 347.5275 -96.1875 346.8675 -96.1875 346.1875 C-97.8375 345.8575 -99.4875 345.5275 -101.1875 345.1875 C-101.1875 344.5275 -101.1875 343.8675 -101.1875 343.1875 C-101.91453125 343.08308594 -102.6415625 342.97867187 -103.390625 342.87109375 C-106.44214651 342.12526098 -108.35760987 341.02042796 -110.9375 339.25 C-111.71609375 338.72535156 -112.4946875 338.20070313 -113.296875 337.66015625 C-115.1875 336.1875 -115.1875 336.1875 -116.1875 334.1875 C-116.8475 333.8575 -117.5075 333.5275 -118.1875 333.1875 C-120.1875 332.1875 -120.1875 332.1875 -121.1875 330.1875 C-122.1775 329.8575 -123.1675 329.5275 -124.1875 329.1875 C-124.496875 328.5275 -124.80625 327.8675 -125.125 327.1875 C-125.475625 326.5275 -125.82625 325.8675 -126.1875 325.1875 C-126.826875 325.043125 -127.46625 324.89875 -128.125 324.75 C-130.1875 324.1875 -130.1875 324.1875 -131.49609375 321.97265625 C-133.42167712 318.80189196 -135.63098645 316.62177932 -138.3125 314.0625 C-143.09506829 309.43498155 -147.24596882 304.58220774 -151.3125 299.3046875 C-153.08976624 296.94199231 -153.08976624 296.94199231 -156.1875 296.1875 C-156.6825 294.7025 -156.6825 294.7025 -157.1875 293.1875 C-158.6028611 290.08195041 -160.3664303 287.21904687 -162.15673828 284.31713867 C-189.09895298 240.50046969 -198.21744137 189.79535166 -186.23779297 139.41357422 C-178.16089865 107.51759247 -162.55634326 80.27198007 -140.70166016 55.88818359 C-135.8928401 50.53996013 -135.8928401 50.53996013 -131.5625 44.8125 C-130.1875 43.1875 -130.1875 43.1875 -128.125 42.6875 C-127.1659375 42.44 -127.1659375 42.44 -126.1875 42.1875 C-125.48812468 40.87102881 -124.82020867 39.53727849 -124.1875 38.1875 C-123.1975 37.8575 -122.2075 37.5275 -121.1875 37.1875 C-120.3625 36.3625 -119.5375 35.5375 -118.6875 34.6875 C-116.1875 32.1875 -116.1875 32.1875 -113.1875 31.1875 C-112.8575 30.5275 -112.5275 29.8675 -112.1875 29.1875 C-111.589375 29.06375 -110.99125 28.94 -110.375 28.8125 C-108.00234863 28.32611059 -108.00234863 28.32611059 -106.1875 26.1875 C-104.02200189 24.02200189 -103.0626666 23.83673117 -100.1875 23.1875 C-99.79433594 22.75953125 -99.40117188 22.3315625 -98.99609375 21.890625 C-96.43262998 19.47665048 -93.43545253 18.05498364 -90.3125 16.5 C-89.70019531 16.17966797 -89.08789062 15.85933594 -88.45703125 15.52929688 C-84.89047026 13.7383792 -82.18674851 12.7845339 -78.1875 13.1875 C-78.1875 12.5275 -78.1875 11.8675 -78.1875 11.1875 C-75.5475 10.8575 -72.9075 10.5275 -70.1875 10.1875 C-70.1875 9.5275 -70.1875 8.8675 -70.1875 8.1875 C-69.424375 8.249375 -68.66125 8.31125 -67.875 8.375 C-65.15178564 8.50229105 -65.15178564 8.50229105 -63.875 6.6875 C-61.03951898 4.16707243 -57.86219212 5.00677744 -54.1875 5.1875 C-54.1875 4.5275 -54.1875 3.8675 -54.1875 3.1875 C-53.03870361 3.2181958 -51.88990723 3.2488916 -50.70629883 3.28051758 C-47.05013421 3.28036735 -43.69247617 2.82760651 -40.11250305 2.12983704 C-26.79273302 -0.44711372 -13.51196699 -0.14827819 0 0 Z M-90.1875 31.1875 C-90.78755859 31.50299805 -91.38761719 31.81849609 -92.00585938 32.14355469 C-105.54346263 39.26666654 -117.08884915 48.7138585 -128.1875 59.1875 C-129.28964844 60.21037109 -129.28964844 60.21037109 -130.4140625 61.25390625 C-160.93763797 90.53712441 -179.28363636 133.81762839 -180.5234375 175.89453125 C-180.55338772 178.59782813 -180.56999268 181.29696483 -180.5625 184 C-180.56228851 184.7113913 -180.56207703 185.42278259 -180.56185913 186.1557312 C-180.50562095 205.28017727 -178.13089965 224.26296286 -171.1875 242.1875 C-170.87683594 242.99106934 -170.56617188 243.79463867 -170.24609375 244.62255859 C-158.547817 274.31861188 -140.01265275 301.9347236 -114.1875 321.1875 C-113.66752441 321.58243652 -113.14754883 321.97737305 -112.61181641 322.38427734 C-87.69011015 341.24653067 -59.8509689 351.93230859 -29.1875 357.1875 C-27.54201172 357.48140625 -27.54201172 357.48140625 -25.86328125 357.78125 C18.34793138 362.66750517 62.99005617 348.33845674 97.8125 321.1875 C101.25790417 318.29495272 104.54130042 315.27318731 107.8125 312.1875 C109.03564431 311.15945847 110.26434283 310.1379673 111.5 309.125 C115.36315037 305.81628325 118.57518841 302.10153775 121.8125 298.1875 C122.25255371 297.66510742 122.69260742 297.14271484 123.14599609 296.60449219 C130.68565586 287.62954757 137.18297254 278.46946383 142.8125 268.1875 C143.15764648 267.5682666 143.50279297 266.9490332 143.85839844 266.31103516 C150.02984068 255.12420957 154.15993459 243.40682272 157.8125 231.1875 C158.07828857 230.31351563 158.34407715 229.43953125 158.61791992 228.5390625 C160.60880882 221.68285792 161.71818902 214.90238426 162.5 207.8125 C162.62592529 206.68271729 162.75185059 205.55293457 162.8815918 204.38891602 C164.56413608 188.19343051 164.41919061 172.26508004 161.8125 156.1875 C161.6271167 155.02250977 161.6271167 155.02250977 161.43798828 153.83398438 C154.04666659 109.00225863 128.86790184 68.58824868 91.96850586 42.01708984 C77.87585841 32.19299162 62.97714688 24.94141162 46.8125 19.1875 C46.09239746 18.93097656 45.37229492 18.67445312 44.63037109 18.41015625 C0.79844399 3.23559435 -49.90505715 9.34480264 -90.1875 31.1875 Z " fill="#2E2D2B" transform="translate(200.1875,3.8125)"/>
<path d="M0 0 C0.75539062 -0.00708984 1.51078125 -0.01417969 2.2890625 -0.02148438 C8.04178117 0.0427642 14.16833018 0.81285327 18.56616211 4.88916016 C22.40585925 9.39945422 23.36583976 12.29659882 23.2734375 18.0625 C22.5572485 24.28311302 18.58697265 28.35545103 13.87109375 32.1484375 C10.1598662 34.7052331 6.58296703 36.4375 2 36.4375 C1.76052456 39.67041838 1.85885272 42.38250032 3 45.4375 C10.5938958 51.34998874 19.71278651 52.24410962 29 51.4375 C36.89647967 49.55787224 42.69655977 46.53832235 47.8125 40.1875 C49.23453326 36.89437035 49.49400472 33.98499061 49.69140625 30.42578125 C50 28.4375 50 28.4375 52 26.4375 C54.625 26.8125 54.625 26.8125 57 27.4375 C57.71923729 31.48320975 57.52261157 33.51727811 55.46484375 37.140625 C48.56341636 46.87443011 41.01414781 54.00741717 29 56.4375 C20.54030414 57.35418531 13.89604011 55.73762396 6.03125 52.62890625 C1.35965185 50.52518126 1.35965185 50.52518126 -3.40234375 51.3984375 C-4.23894531 51.86507812 -5.07554687 52.33171875 -5.9375 52.8125 C-13.99036839 57.26833753 -23.28458587 57.93090491 -32.19921875 55.6015625 C-43.25620671 51.38263496 -49.92712928 44.34929257 -56 34.4375 C-56.33 34.1075 -56.66 33.7775 -57 33.4375 C-57.125 30.4375 -57.125 30.4375 -57 27.4375 C-56 26.4375 -56 26.4375 -53.5 26.3125 C-51 26.4375 -51 26.4375 -50 27.4375 C-49.70368235 28.99536803 -49.43794981 30.5591035 -49.1875 32.125 C-47.82954834 38.94385725 -45.32459357 42.70257408 -39.625 46.6875 C-31.87309123 51.7823941 -24.08161671 52.4156678 -15 51.4375 C-7.98759859 49.40629325 -7.98759859 49.40629325 -2 45.4375 C-1.76807135 43.92280552 -1.58784762 42.39995438 -1.4375 40.875 C-1.35371094 40.04871094 -1.26992187 39.22242188 -1.18359375 38.37109375 C-1.09271484 37.41396484 -1.09271484 37.41396484 -1 36.4375 C-1.86625 36.355 -2.7325 36.2725 -3.625 36.1875 C-7.5763072 35.30943173 -9.77092993 33.85930255 -13 31.4375 C-14.051875 30.65375 -15.10375 29.87 -16.1875 29.0625 C-20.38233579 25.14731993 -22.13267118 21.69359677 -22.5 16 C-22.29560867 10.94131449 -20.57600242 7.93011865 -17 4.4375 C-11.50719759 0.71246035 -6.5286473 -0.17268606 0 0 Z " fill="#25211F" transform="translate(191,192.5625)"/>
<path d="M0 0 C10.627938 3.34583233 16.37563176 14.60378784 21.35498047 23.89013672 C27.12254129 35.10466869 27.12254129 35.10466869 26.375 40.0625 C25.385 40.7225 24.395 41.3825 23.375 42.0625 C23.01148438 41.58039063 22.64796875 41.09828125 22.2734375 40.6015625 C18.99678216 36.48473912 16.72125645 34.20812638 11.375 33.0625 C11.57416016 34.04089844 11.57416016 34.04089844 11.77734375 35.0390625 C12.71982822 39.7033287 13.63268703 44.36118454 14.375 49.0625 C12.395 49.0625 10.415 49.0625 8.375 49.0625 C8.48714844 50.25101563 8.59929687 51.43953125 8.71484375 52.6640625 C8.71389249 56.98086422 7.46186037 58.89653457 4.51367188 61.93359375 C3.99353516 62.42988281 3.47339844 62.92617187 2.9375 63.4375 C-0.77641647 66.92308461 -0.77641647 66.92308461 -3.625 71.0625 C-4.285 71.0625 -4.945 71.0625 -5.625 71.0625 C-6.11376697 69.27342846 -6.59039669 67.4810408 -7.0625 65.6875 C-7.32933594 64.68976563 -7.59617187 63.69203125 -7.87109375 62.6640625 C-9.7693237 53.59583444 -9.80751096 44.48471035 -9.8125 35.25 C-9.82474609 34.06857422 -9.83699219 32.88714844 -9.84960938 31.66992188 C-9.8849491 10.1715882 -9.8849491 10.1715882 -4.625 2.0625 C-2.625 0.0625 -2.625 0.0625 0 0 Z " fill="#F5D8AD" transform="translate(95.625,66.9375)"/>
<path d="M0 0 C2.40234375 0.94140625 2.40234375 0.94140625 3.73046875 2.83203125 C4.0346875 3.610625 4.33890625 4.38921875 4.65234375 5.19140625 C4.966875 5.9596875 5.28140625 6.72796875 5.60546875 7.51953125 C8.13347814 15.20269704 7.64325935 23.1977723 7.65234375 31.19140625 C7.6540155 31.95785461 7.65568726 32.72430298 7.65740967 33.51397705 C7.66097357 60.65878144 7.66097357 60.65878144 2.40234375 69.94140625 C-10.38972379 57.83057308 -10.38972379 57.83057308 -10.74609375 52.87890625 C-10.47265625 50.94140625 -10.47265625 50.94140625 -9.59765625 47.94140625 C-11.90765625 47.94140625 -14.21765625 47.94140625 -16.59765625 47.94140625 C-16.2728125 46.92820312 -16.2728125 46.92820312 -15.94140625 45.89453125 C-15.66296875 45.0025 -15.38453125 44.11046875 -15.09765625 43.19140625 C-14.81921875 42.3096875 -14.54078125 41.42796875 -14.25390625 40.51953125 C-13.4332034 37.73873096 -13.4332034 37.73873096 -13.59765625 33.94140625 C-16.61423416 34.0817122 -18.83606898 34.2349209 -21.109375 36.34375 C-22.33021691 37.8304486 -23.47012147 39.38275523 -24.59765625 40.94140625 C-25.91765625 40.28140625 -27.23765625 39.62140625 -28.59765625 38.94140625 C-25.51838957 28.25453954 -13.84594243 -0.31231449 0 0 Z " fill="#F3D7AD" transform="translate(288.59765625,67.05859375)"/>
<path d="M0 0 C3 1 3 1 4 3 C6.02463255 3.65213292 6.02463255 3.65213292 8 4 C8 4.99 8 5.98 8 7 C9.32 7.33 10.64 7.66 12 8 C12 8.66 12 9.32 12 10 C16.3039919 11.74849671 20.64750591 13.3770361 25 15 C25.33 13.35 25.66 11.7 26 10 C27.051875 10.78375 28.10375 11.5675 29.1875 12.375 C33.97132739 15.775552 38.17407947 17.18708086 44 18 C44.33 17.34 44.66 16.68 45 16 C45.804375 16.495 46.60875 16.99 47.4375 17.5 C51.77786771 19.32752325 55.34787275 19.69916363 60 19 C61.34789347 18.01971384 62.68212715 17.02028865 64 16 C66.01667683 15.96798926 68.0350931 15.94092748 70.05078125 16.01171875 C75.14577152 15.98108755 78.97345698 12.80921606 83 10 C83.37125 10.515625 83.7425 11.03125 84.125 11.5625 C85.9536407 13.25689137 85.9536407 13.25689137 88.625 13.0625 C94.85826785 11.10017493 99.91081752 7.28449468 104.4375 2.625 C105.283125 1.75875 106.12875 0.8925 107 0 C107.66 0 108.32 0 109 0 C107.007094 7.77233339 101.97797485 13.87326173 97 20 C97 20.33 97 20.66 97 21 C77.94540026 25.37318682 59.86622959 26.78659768 40.375 25.0625 C39.38959229 24.97572998 38.40418457 24.88895996 37.38891602 24.79956055 C36.46393311 24.71230713 35.5389502 24.62505371 34.5859375 24.53515625 C33.33369385 24.41732788 33.33369385 24.41732788 32.05615234 24.29711914 C30 24 30 24 28 23 C26.60798105 22.82139064 25.21096613 22.68044293 23.8125 22.5625 C13.38979427 21.39328622 13.38979427 21.39328622 10.4453125 18.44140625 C8.82858436 16.35976406 7.40297508 14.23150366 6 12 C5.43667969 11.11570312 4.87335938 10.23140625 4.29296875 9.3203125 C0 2.38319672 0 2.38319672 0 0 Z " fill="#EBE3D2" transform="translate(136,324)"/>
<path d="M0 0 C2.5 0.125 2.5 0.125 3.5 1.125 C3.79631765 2.68286803 4.06205019 4.2466035 4.3125 5.8125 C5.67045166 12.63135725 8.17540643 16.39007408 13.875 20.375 C21.62690877 25.4698941 29.41838329 26.1031678 38.5 25.125 C45.51240141 23.09379325 45.51240141 23.09379325 51.5 19.125 C51.89148761 17.61334346 52.23972457 16.09030368 52.5625 14.5625 C52.73910156 13.73621094 52.91570312 12.90992188 53.09765625 12.05859375 C53.23042969 11.42050781 53.36320312 10.78242188 53.5 10.125 C54.16 10.455 54.82 10.785 55.5 11.125 C55.5 12.3625 55.5 13.6 55.5 14.875 C55.60185785 17.08009905 55.60185785 17.08009905 56.5 19.125 C64.26117957 24.93528197 73.0987364 25.94151505 82.5 25.125 C90.39647967 23.24537224 96.19655977 20.22582235 101.3125 13.875 C102.73453326 10.58187035 102.99400472 7.67249061 103.19140625 4.11328125 C103.5 2.125 103.5 2.125 105.5 0.125 C108.125 0.5 108.125 0.5 110.5 1.125 C111.21923729 5.17070975 111.02261157 7.20477811 108.96484375 10.828125 C102.06341636 20.56193011 94.51414781 27.69491717 82.5 30.125 C74.04030414 31.04168531 67.39604011 29.42512396 59.53125 26.31640625 C54.85965185 24.21268126 54.85965185 24.21268126 50.09765625 25.0859375 C48.84275391 25.78589844 48.84275391 25.78589844 47.5625 26.5 C39.50963161 30.95583753 30.21541413 31.61840491 21.30078125 29.2890625 C10.24379329 25.07013496 3.57287072 18.03679257 -2.5 8.125 C-2.83 7.795 -3.16 7.465 -3.5 7.125 C-3.625 4.125 -3.625 4.125 -3.5 1.125 C-2.5 0.125 -2.5 0.125 0 0 Z " fill="#302820" transform="translate(137.5,218.875)"/>
<path d="M0 0 C1.03125 0.2475 2.0625 0.495 3.125 0.75 C6.65242127 2.28366142 7.46297613 3.5214723 9 7 C10.72529675 11.43647735 9.35132181 14.79415428 7.88671875 19.109375 C7 21 7 21 5 22 C5.04640625 21.19175781 5.0928125 20.38351563 5.140625 19.55078125 C5.46349763 12.87547931 5.46349763 12.87547931 3.1875 6.75 C1.07646007 4.68765248 1.07646007 4.68765248 -2 5 C-2.66 6.98 -3.32 8.96 -4 11 C-2.68 11 -1.36 11 0 11 C-0.33 9.35 -0.66 7.7 -1 6 C-0.34 6 0.32 6 1 6 C3.26026719 8.51140799 5.00881165 10.49320741 4.98828125 14.00390625 C3.97338415 18.91079408 2.04015466 21.89941619 -2 25 C-4.8125 25.8125 -4.8125 25.8125 -7 26 C-3.7 25.67 -0.4 25.34 3 25 C0 28 0 28 -2.48046875 28.29296875 C-3.37378906 28.25816406 -4.26710937 28.22335938 -5.1875 28.1875 C-6.53908203 28.14689453 -6.53908203 28.14689453 -7.91796875 28.10546875 C-8.60503906 28.07066406 -9.29210937 28.03585938 -10 28 C-8.6910428 31.12197478 -8.6910428 31.12197478 -6 33 C-11.89325588 32.4033471 -14.44660396 29.15339389 -18.16015625 24.828125 C-20.56074066 21.1380547 -20.93202814 18.65011742 -20.50390625 14.328125 C-19.44474165 9.43462033 -17.90895926 5.3230731 -14 2 C-9.35996946 -0.18967733 -4.99554011 -1.75518977 0 0 Z " fill="#211E19" transform="translate(238,158)"/>
<path d="M0 0 C4.91409826 2.2307942 9.26532491 5.28864401 12.75 9.4375 C13.46484375 11.65625 13.46484375 11.65625 13.75 13.4375 C10.75 14.4375 10.75 14.4375 7.1875 13 C2.35898666 11.07926541 -2.10696667 10.67428426 -7.25 11.4375 C-11.26403691 13.40516515 -13.81124737 16.02977185 -16.8125 19.25 C-19.8803342 22.41285561 -19.8803342 22.41285561 -23.0625 22.625 C-25.25 21.4375 -25.25 21.4375 -26.5625 19.875 C-27.99345914 14.80159941 -28.04193419 10.37031 -25.625 5.6875 C-19.57260695 -3.43283021 -9.62132137 -3.4298229 0 0 Z " fill="#EFCFA3" transform="translate(239.25,136.5625)"/>
<path d="M0 0 C6.14428173 2.08280737 9.97728996 6.50092155 14.4375 11.0625 C18.29420285 14.81207222 21.21035012 15.54207195 26.5625 15.5625 C32.27791786 15.43764864 36.1692527 14.8801694 40.26953125 10.59765625 C41.30221862 9.40918636 42.31238318 8.20055997 43.29296875 6.96875 C44.66495727 5.27778375 46.12368318 3.7630735 47.6875 2.25 C48.26890489 6.82856353 48.60259684 9.72722166 46.1875 13.74609375 C42.07182661 18.64149432 38.12640983 22.26445258 31.6875 23.25 C27.67232422 23.45768151 23.70295912 23.43069566 19.6875 23.25 C20.0175 24.57 20.3475 25.89 20.6875 27.25 C20.006875 26.54875 19.32625 25.8475 18.625 25.125 C11.07151023 17.59303014 6.64597032 15.20796144 -4.18359375 14.62890625 C-7.08460391 14.2775979 -8.84376194 13.74822679 -11.3125 12.25 C-10.3225 12.25 -9.3325 12.25 -8.3125 12.25 C-8.415625 11.198125 -8.51875 10.14625 -8.625 9.0625 C-8.3125 5.25 -8.3125 5.25 -6.25 2.25 C-3.3125 0.25 -3.3125 0.25 0 0 Z " fill="#E4C699" transform="translate(212.3125,176.75)"/>
<path d="M0 0 C2.56078044 2.3047024 2.95505383 3.63293961 3.375 7.0625 C3 10 3 10 1.84375 11.65234375 C-0.72825201 13.53230285 -2.71720215 13.40550231 -5.875 13.5 C-10.55150419 13.64064674 -13.10676264 14.4133067 -17 17 C-17.99 17.33 -18.98 17.66 -20 18 C-20 18.66 -20 19.32 -20 20 C-20.66 20 -21.32 20 -22 20 C-22.4640625 20.928125 -22.4640625 20.928125 -22.9375 21.875 C-23.625 23.25 -24.3125 24.625 -25 26 C-25.66 25.67 -26.32 25.34 -27 25 C-26.67 24.34 -26.34 23.68 -26 23 C-27.14275391 22.97873047 -27.14275391 22.97873047 -28.30859375 22.95703125 C-36.41940724 22.58237445 -42.64053124 21.17129025 -48.62890625 15.44140625 C-53.10199587 10.33112438 -53.10556637 6.43954857 -53 0 C-52.443125 0.70125 -51.88625 1.4025 -51.3125 2.125 C-50.1678125 3.548125 -50.1678125 3.548125 -49 5 C-48.21625 6.03125 -47.4325 7.0625 -46.625 8.125 C-43.07450789 12.01363421 -40.49089319 13.71899394 -35.1953125 14.31640625 C-28.85459969 14.56149615 -23.84974819 14.33356212 -19 10 C-17.17293713 7.99103928 -15.42887827 5.92718471 -13.6875 3.84375 C-9.65185429 -0.56556661 -5.67476293 -1.89158764 0 0 Z " fill="#E5C79C" transform="translate(176,178)"/>
<path d="M0 0 C6.0062832 4.29020229 6.0062832 4.29020229 7.625 7.875 C8.3278082 13.35255666 8.74667804 18.19248294 5.625 22.875 C3.375 22.6875 3.375 22.6875 0.625 21.875 C-0.74573786 20.23895804 -2.07555256 18.56821939 -3.375 16.875 C-10.03208619 11.98407953 -15.26387125 11.17876577 -23.375 11.875 C-26.77741824 13.2398868 -26.77741824 13.2398868 -29.375 14.875 C-30.365 14.875 -31.355 14.875 -32.375 14.875 C-31.72314852 9.59681371 -29.67491637 7.77673037 -25.67578125 4.5234375 C-17.76313429 -1.14572551 -9.43513103 -3.14504368 0 0 Z " fill="#F0D2A6" transform="translate(162.375,136.125)"/>
<path d="M0 0 C3.57405801 0.59433774 5.50113335 1.98599852 8.1875 4.375 C8.88230469 4.98085937 9.57710937 5.58671875 10.29296875 6.2109375 C12 8 12 8 13 11 C11.68 11.33 10.36 11.66 9 12 C9.13277344 12.65226562 9.26554687 13.30453125 9.40234375 13.9765625 C10.34482822 18.6408287 11.25768703 23.29868454 12 28 C10.02 28 8.04 28 6 28 C6.185625 29.11375 6.37125 30.2275 6.5625 31.375 C6.63719692 36.00620931 4.5409219 38.1592689 1.5 41.5 C0.01840285 43.01817979 -1.47600467 44.52438547 -3 46 C-3.33 44.68 -3.66 43.36 -4 42 C-2.68 41.34 -1.36 40.68 0 40 C-0.309375 39.505 -0.61875 39.01 -0.9375 38.5 C-3.88544126 31.56366762 -3.21397567 23.15299997 -3.25 15.75 C-3.270625 14.67492187 -3.29125 13.59984375 -3.3125 12.4921875 C-3.31765625 11.45835938 -3.3228125 10.42453125 -3.328125 9.359375 C-3.3374707 8.42577148 -3.34681641 7.49216797 -3.35644531 6.53027344 C-2.94003276 3.57431477 -1.95994791 2.20574996 0 0 Z " fill="#E4C293" transform="translate(98,88)"/>
<path d="M0 0 C1.65 0.33 3.3 0.66 5 1 C6.58524396 5.75573187 6.18451228 10.58196859 6.1875 15.5625 C6.19974609 16.60986328 6.21199219 17.65722656 6.22460938 18.73632812 C6.23703087 25.39839156 5.59323249 31.52867779 4 38 C1.525 38.495 1.525 38.495 -1 39 C-3.48772258 35.7162062 -4.03180444 34.38801417 -3.6875 30.1875 C-3.460625 29.135625 -3.23375 28.08375 -3 27 C-5.31 27 -7.62 27 -10 27 C-9.7834375 26.32453125 -9.566875 25.6490625 -9.34375 24.953125 C-8.92609375 23.61507812 -8.92609375 23.61507812 -8.5 22.25 C-8.2215625 21.36828125 -7.943125 20.4865625 -7.65625 19.578125 C-6.83554715 16.79732471 -6.83554715 16.79732471 -7 13 C-7.66 12.34 -8.32 11.68 -9 11 C-9 9 -9 9 -7.625 7.375 C-6 6 -6 6 -4 6 C-4 5.34 -4 4.68 -4 4 C-3.34 4 -2.68 4 -2 4 C-2 3.34 -2 2.68 -2 2 C-1.34 2 -0.68 2 0 2 C0 1.34 0 0.68 0 0 Z " fill="#E6C293" transform="translate(282,88)"/>
<path d="M0 0 C1.32 0.33 2.64 0.66 4 1 C4 2.32 4 3.64 4 5 C5.97536745 4.65213292 5.97536745 4.65213292 8 4 C8.33 3.34 8.66 2.68 9 2 C9.66 2 10.32 2 11 2 C11.66 2.66 12.32 3.32 13 4 C12.34 2.68 11.68 1.36 11 0 C12.32 0.33 13.64 0.66 15 1 C17.7537041 12.06398969 17.7537041 12.06398969 17 16 C14.88698223 18.89288467 12.52435105 21.46276961 10 24 C9.67 23.34 9.34 22.68 9 22 C6.03 22 3.06 22 0 22 C0.33 21.34 0.66 20.68 1 20 C0.030625 19.21625 -0.93875 18.4325 -1.9375 17.625 C-3.83962346 16.08711295 -4.89629957 15.20740087 -6 13 C-6.23553948 8.76028942 -6.32845886 5.63821698 -4 2 C-2.68 2 -1.36 2 0 2 C0 1.34 0 0.68 0 0 Z " fill="#151312" transform="translate(148,164)"/>
<path d="M0 0 C-0.66 1.65 -1.32 3.3 -2 5 C-0.68 5 0.64 5 2 5 C1.67 3.35 1.34 1.7 1 0 C1.66 0 2.32 0 3 0 C5.26026719 2.51140799 7.00881165 4.49320741 6.98828125 8.00390625 C5.98085756 12.87466117 4.16806951 16.10047339 0 19 C-2.8382134 19.70093529 -5.16165095 19.69814231 -8 19 C-11 17 -11 17 -13 14 C-13.62479295 10.06380442 -13.92237405 7.68496676 -12.0078125 4.1875 C-10.25568169 1.92387758 -8.55585191 0.25265996 -5.9375 -0.9375 C-3.77539815 -1.00724522 -2.0541139 -0.6602509 0 0 Z " fill="#161412" transform="translate(236,164)"/>
<path d="M0 0 C3.97627886 0.78105478 6.67846326 2.6120925 10 4.84375 C12.0117197 6.00677545 13.731127 6.55432852 16 7 C16.49026762 10.12545609 16.67752518 12.89380765 16 16 C11.55013364 20.64911411 4.62139457 22.85966838 -1.6484375 23.1953125 C-3.49308594 23.16050781 -3.49308594 23.16050781 -5.375 23.125 C-6.62023437 23.10695312 -7.86546875 23.08890625 -9.1484375 23.0703125 C-10.08945313 23.04710937 -11.03046875 23.02390625 -12 23 C-11.34 22.67 -10.68 22.34 -10 22 C-10 21.34 -10 20.68 -10 20 C-8.9275 19.731875 -7.855 19.46375 -6.75 19.1875 C-2.31092472 17.78179283 0.00226127 16.75792062 2.3125 12.6875 C3.51341542 7.99301245 2.38080093 4.12672162 0 0 Z " fill="#E3DCCA" transform="translate(174,222)"/>
<path d="M0 0 C0.33 0.66 0.66 1.32 1 2 C0.690625 2.53625 0.38125 3.0725 0.0625 3.625 C-1.77421078 7.7305888 -1.15992219 11.9743189 -0.8125 16.375 C0.44370869 18.88741738 2.41964901 19.09987756 5 20 C6.36365283 20.95824253 7.70794169 21.94721175 9 23 C0.51577289 24.66902828 -5.85228067 23.00501382 -13.30859375 18.65234375 C-15 17 -15 17 -15.390625 14.73828125 C-15.34421875 13.93777344 -15.2978125 13.13726562 -15.25 12.3125 C-15.21390625 11.50425781 -15.1778125 10.69601563 -15.140625 9.86328125 C-15.09421875 9.24839844 -15.0478125 8.63351563 -15 8 C-14.33613281 7.75765625 -13.67226562 7.5153125 -12.98828125 7.265625 C-8.04268244 5.38846341 -3.92869187 3.66677907 0 0 Z " fill="#E1DBC8" transform="translate(208,221)"/>
<path d="M0 0 C0.99 0.33 1.98 0.66 3 1 C3 11.56 3 22.12 3 33 C2.67 33 2.34 33 2 33 C1.67 31.02 1.34 29.04 1 27 C-0.98 28.65 -2.96 30.3 -5 32 C-4.67 22.1 -4.34 12.2 -4 2 C-2.68 1.34 -1.36 0.68 0 0 Z " fill="#22211D" transform="translate(301,88)"/>
<path d="M0 0 C2.5 0.125 2.5 0.125 3.5 1.125 C3.79631765 2.68286803 4.06205019 4.2466035 4.3125 5.8125 C5.42409629 11.39430139 6.921079 15.22351296 11.65625 18.71484375 C13.21227867 19.74798616 14.78589296 20.75531896 16.37890625 21.73046875 C18.36577711 23.03675401 19.89250365 24.3839736 21.5 26.125 C21.17 26.785 20.84 27.445 20.5 28.125 C12.16423514 26.04105878 6.61472665 20.90733865 1.8203125 14.00390625 C0.41756926 11.92608574 0.41756926 11.92608574 -1.875 9.5 C-3.91762367 6.51462695 -3.9028835 4.67037477 -3.5 1.125 C-2.5 0.125 -2.5 0.125 0 0 Z " fill="#2C251E" transform="translate(137.5,218.875)"/>
<path d="M0 0 C2.83392926 -0.08174796 5.66544819 -0.14084985 8.5 -0.1875 C9.29148438 -0.21263672 10.08296875 -0.23777344 10.8984375 -0.26367188 C16.62130318 -0.33403498 20.75203857 0.70702602 26 3 C23 5 23 5 22 5 C22.33 5.66 22.66 6.32 23 7 C13.76 7.33 4.52 7.66 -5 8 C-1 4 -1 4 2 3 C2.33 2.34 2.66 1.68 3 1 C2.01 0.67 1.02 0.34 0 0 Z " fill="#433F3C" transform="translate(182,193)"/>
<path d="M0 0 C-0.33 0.99 -0.66 1.98 -1 3 C-1.99 3.474375 -2.98 3.94875 -4 4.4375 C-7.13889061 5.65795597 -7.13889061 5.65795597 -7.875 8.1875 C-7.91625 8.785625 -7.9575 9.38375 -8 10 C-7.34 10 -6.68 10 -6 10 C-5.67 9.34 -5.34 8.68 -5 8 C-5 9.32 -5 10.64 -5 12 C-5.66 12 -6.32 12 -7 12 C-7.66 14.31 -8.32 16.62 -9 19 C-10.32 19 -11.64 19 -13 19 C-13.33 19.99 -13.66 20.98 -14 22 C-16.70375883 17.94436176 -16.76747554 14.76309564 -16 10 C-14.16145543 5.88102889 -11.76760331 3.49574381 -8 1.0625 C-5.08388779 0.02971026 -3.05981411 -0.2699836 0 0 Z " fill="#2B2821" transform="translate(185,194)"/>
<path d="M0 0 C1.03125 0.2475 2.0625 0.495 3.125 0.75 C6.65242127 2.28366142 7.46297613 3.5214723 9 7 C10.72529675 11.43647735 9.35132181 14.79415428 7.88671875 19.109375 C7 21 7 21 5 22 C5.04640625 21.19175781 5.0928125 20.38351563 5.140625 19.55078125 C5.48703524 12.88082786 5.48703524 12.88082786 3.125 6.8125 C-0.40545227 3.80123189 -3.13363951 3.5 -7.67578125 3.5 C-11.31736394 4.2833993 -12.74883053 6.51114128 -14.80859375 9.46875 C-15.20175781 9.9740625 -15.59492188 10.479375 -16 11 C-16.66 11 -17.32 11 -18 11 C-17.54279592 6.8851633 -17.24049154 4.64067143 -14 2 C-9.35996946 -0.18967733 -4.99554011 -1.75518977 0 0 Z " fill="#171513" transform="translate(238,158)"/>
<path d="M0 0 C0.33 0.99 0.66 1.98 1 3 C0.44183594 2.84273437 -0.11632812 2.68546875 -0.69140625 2.5234375 C-4.81239255 1.58906836 -8.81200899 1.42398182 -13 2 C-16.21888045 4.03643457 -17.58268069 5.46148281 -18.5859375 9.16015625 C-19.25444382 13.60943718 -19.22019641 16.95140655 -17 21 C-17.99 21.33 -18.98 21.66 -20 22 C-22.20859949 17.26728682 -23.58895973 12.20651006 -24 7 C-22.51239463 3.24183907 -21.37615535 2.25077024 -18 0 C-17.01 0 -16.02 0 -15 0 C-15 -0.66 -15 -1.32 -15 -2 C-9.12880555 -3.73961317 -5.28646336 -3.24396615 0 0 Z " fill="#161413" transform="translate(159,160)"/>
<path d="M0 0 C4.75 0.875 4.75 0.875 7 2 C7 3.65 7 5.3 7 7 C7.66 7 8.32 7 9 7 C9 7.66 9 8.32 9 9 C9.99 9 10.98 9 12 9 C11.67 9.99 11.34 10.98 11 12 C7.37 12 3.74 12 0 12 C0 11.34 0 10.68 0 10 C-0.66 10 -1.32 10 -2 10 C-2 7.36 -2 4.72 -2 2 C-1.34 2 -0.68 2 0 2 C0 1.34 0 0.68 0 0 Z " fill="#151110" transform="translate(200,206)"/>
<path d="M0 0 C1.32 0.33 2.64 0.66 4 1 C6.7537041 12.06398969 6.7537041 12.06398969 6 16 C3.88698223 18.89288467 1.52435105 21.46276961 -1 24 C-1.33 23.34 -1.66 22.68 -2 22 C-4.97 22 -7.94 22 -11 22 C-10.67 20.68 -10.34 19.36 -10 18 C-9.37351563 17.89042969 -8.74703125 17.78085938 -8.1015625 17.66796875 C-7.28429687 17.50941406 -6.46703125 17.35085937 -5.625 17.1875 C-4.81289062 17.03667969 -4.00078125 16.88585937 -3.1640625 16.73046875 C-0.64179359 16.12455058 -0.64179359 16.12455058 1 13 C1.66 13 2.32 13 3 13 C2.88490339 11.58249437 2.75746342 10.16598831 2.625 8.75 C2.55539063 7.96109375 2.48578125 7.1721875 2.4140625 6.359375 C1.98492887 3.914123 1.21399362 2.15163097 0 0 Z " fill="#211E1A" transform="translate(159,164)"/>
<path d="M0 0 C1.12109375 1.578125 1.12109375 1.578125 2 4 C0.2119403 12.6940388 -3.47260028 19.94287403 -10 26 C-10.68707555 23.50935112 -11 21.62113708 -11 19 C-9.828125 17.38671875 -9.828125 17.38671875 -8.25 15.6875 C-3.86734365 10.75571649 -0.64389009 6.76084589 0 0 Z " fill="#E8E1D2" transform="translate(248,221)"/>
<path d="M0 0 C2.54250021 0.11474466 5.08347338 0.2414697 7.625 0.375 C8.33785156 0.4059375 9.05070313 0.436875 9.78515625 0.46875 C14.17152608 0.71020155 17.8594834 1.39342731 22 3 C22 3.33 22 3.66 22 4 C18.1011916 4.91093654 14.43828023 5.16432051 10.4375 5.1875 C9.32246094 5.20167969 8.20742187 5.21585938 7.05859375 5.23046875 C4.11508623 5.00867189 2.4793808 4.5337001 0 3 C0 2.01 0 1.02 0 0 Z " fill="#3B332B" transform="translate(158,244)"/>
<path d="M0 0 C2.5 2.3125 2.5 2.3125 4 5 C3.67 5.99 3.34 6.98 3 8 C1.68 8 0.36 8 -1 8 C-1 6.68 -1 5.36 -1 4 C-2.32 3.67 -3.64 3.34 -5 3 C-5 3.66 -5 4.32 -5 5 C-6.32 5 -7.64 5 -9 5 C-9.33 5.66 -9.66 6.32 -10 7 C-10.66 6.67 -11.32 6.34 -12 6 C-9.48676392 0.20022442 -6.14073029 -0.75412477 0 0 Z " fill="#262423" transform="translate(153,161)"/>
<path d="M0 0 C4.20240011 3.71750779 6.99782679 8.31660979 10 13 C9.01 14.32 8.02 15.64 7 17 C4 13.25 4 13.25 4 11 C3.34 11 2.68 11 2 11 C0.57741188 7.17679443 -0.24042276 4.08718695 0 0 Z " fill="#E7DED3" transform="translate(135,227)"/>
<path d="M0 0 C0.33 0.99 0.66 1.98 1 3 C1.928125 2.814375 2.85625 2.62875 3.8125 2.4375 C8.90820694 1.68258045 13.91647238 2.40247867 19 3 C19 3.99 19 4.98 19 6 C18.03578125 6.06058594 17.0715625 6.12117187 16.078125 6.18359375 C14.81484375 6.26738281 13.5515625 6.35117188 12.25 6.4375 C10.99703125 6.51871094 9.7440625 6.59992188 8.453125 6.68359375 C5.81682447 6.92515522 3.51962706 7.24283934 1 8 C1 7.01 1 6.02 1 5 C0.34 4.34 -0.32 3.68 -1 3 C-0.67 2.01 -0.34 1.02 0 0 Z " fill="#EBE2D5" transform="translate(177,187)"/>
<path d="M0 0 C0.99 0.33 1.98 0.66 3 1 C4.05363955 3.85102467 4.49611656 5.0594758 4 8 C1.34570339 11.68711767 -1.74168774 14.84331151 -5 18 C-5.33 16.68 -5.66 15.36 -6 14 C-4.68 13.34 -3.36 12.68 -2 12 C-2.33 11.01 -2.66 10.02 -3 9 C-2.34 8.01 -1.68 7.02 -1 6 C-0.60986284 4.0103005 -0.26797351 2.00980131 0 0 Z " fill="#DCC69E" transform="translate(100,116)"/>
<path d="M0 0 C0.68191406 -0.01289062 1.36382812 -0.02578125 2.06640625 -0.0390625 C5.72185326 -0.04632979 8.39370464 0.18267162 11.5 2.1875 C10.365625 2.24808594 9.23125 2.30867188 8.0625 2.37109375 C6.54165865 2.45558494 5.02082575 2.54022851 3.5 2.625 C2.75621094 2.66431641 2.01242188 2.70363281 1.24609375 2.74414062 C-2.47167072 2.95427514 -6.12567286 3.25156785 -9.8125 3.78125 C-14.20377531 4.26503457 -16.43086379 3.62865241 -20.5 2.1875 C-20.5 1.8575 -20.5 1.5275 -20.5 1.1875 C-13.66989885 0.46309533 -6.86563381 0.06298747 0 0 Z " fill="#433D31" transform="translate(192.5,86.8125)"/>
<path d="M0 0 C0.556875 0.70125 1.11375 1.4025 1.6875 2.125 C2.8321875 3.548125 2.8321875 3.548125 4 5 C4.42023438 5.52722656 4.84046875 6.05445313 5.2734375 6.59765625 C7.39236684 9.21100244 9.1782327 11.1188218 12 13 C12 13.66 12 14.32 12 15 C10.68 15 9.36 15 8 15 C8 14.01 8 13.02 8 12 C6.10820797 11.3185177 6.10820797 11.3185177 4 11 C3.34 11.66 2.68 12.32 2 13 C-0.24828052 8.50343896 -0.16682272 4.92127034 0 0 Z " fill="#E0CAA1" transform="translate(123,178)"/>
<path d="M0 0 C0.33 0 0.66 0 1 0 C1.16882299 4.1440111 1.32924147 8.28824064 1.48217773 12.43286133 C1.53525651 13.84017494 1.59055488 15.24740678 1.64819336 16.65454102 C1.73106765 18.68748341 1.80571996 20.7205947 1.87890625 22.75390625 C1.94960327 24.58417358 1.94960327 24.58417358 2.02172852 26.45141602 C1.99963828 30.05907395 1.59215864 33.44505435 1 37 C0.34 36.67 -0.32 36.34 -1 36 C-0.67 24.12 -0.34 12.24 0 0 Z " fill="#C2B8A3" transform="translate(304,98)"/>
<path d="M0 0 C-0.33 0.99 -0.66 1.98 -1 3 C-4.29701062 4.34807677 -7.7354961 4.10070113 -11.25 4.0625 C-12.32765625 4.05347656 -13.4053125 4.04445312 -14.515625 4.03515625 C-15.33546875 4.02355469 -16.1553125 4.01195312 -17 4 C-17 3.67 -17 3.34 -17 3 C-15.02 2.67 -13.04 2.34 -11 2 C-11.99 1.34 -12.98 0.68 -14 0 C-4.58997722 -1.33257403 -4.58997722 -1.33257403 0 0 Z " fill="#413833" transform="translate(225,245)"/>
<path d="M0 0 C2.29633824 3.44450737 2.54016485 5.93812283 3 10 C2.01 10.66 1.02 11.32 0 12 C-1.65 9.69 -3.3 7.38 -5 5 C-4.01 4.01 -3.02 3.02 -2 2 C-1.34 2 -0.68 2 0 2 C0 1.34 0 0.68 0 0 Z " fill="#E1D2AF" transform="translate(119,97)"/>
<path d="M0 0 C0.66 0.99 1.32 1.98 2 3 C1.40059529 5.35151077 0.72166191 7.68308546 0 10 C-0.43309456 12.6637644 -0.71729421 15.31429502 -1 18 C-1.33 18 -1.66 18 -2 18 C-2.33 16.35 -2.66 14.7 -3 13 C-4.65 12.67 -6.3 12.34 -8 12 C-7.67 11.01 -7.34 10.02 -7 9 C-6.01 8.67 -5.02 8.34 -4 8 C-1.72382347 5.46118772 -0.59887408 3.35369486 0 0 Z " fill="#352F28" transform="translate(88,70)"/>
<path d="M0 0 C0.99 0.33 1.98 0.66 3 1 C3.77528479 4.42573937 4.11918778 7.57239245 4.09765625 11.08203125 C4.09282227 12.47905273 4.09282227 12.47905273 4.08789062 13.90429688 C4.07951172 14.86400391 4.07113281 15.82371094 4.0625 16.8125 C4.05798828 17.79154297 4.05347656 18.77058594 4.04882812 19.77929688 C4.03708684 22.18626111 4.02066419 24.59309857 4 27 C3.67 27 3.34 27 3 27 C2.94465088 26.39526855 2.88930176 25.79053711 2.83227539 25.16748047 C2.57796135 22.40310534 2.32025918 19.63905593 2.0625 16.875 C1.93198242 15.44800781 1.93198242 15.44800781 1.79882812 13.9921875 C1.35804822 9.29053519 0.86831805 4.64667498 0 0 Z " fill="#DDDCD0" transform="translate(360,171)"/>
<path d="M0 0 C2.475 0.495 2.475 0.495 5 1 C5 1.66 5 2.32 5 3 C5.99 3.825 6.98 4.65 8 5.5 C8.99 6.325 9.98 7.15 11 8 C11 8.66 11 9.32 11 10 C11.66 10.33 12.32 10.66 13 11 C13.33 11.66 13.66 12.32 14 13 C13.01 13.33 12.02 13.66 11 14 C9.16369327 11.85664848 7.33085819 9.71049702 5.5 7.5625 C4.71302734 6.64500977 4.71302734 6.64500977 3.91015625 5.70898438 C0 1.11328125 0 1.11328125 0 0 Z " fill="#DED8C9" transform="translate(119,272)"/>
<path d="M0 0 C2.12472576 -0.05386629 4.24983652 -0.09273071 6.375 -0.125 C7.55835938 -0.14820313 8.74171875 -0.17140625 9.9609375 -0.1953125 C13 0 13 0 15 2 C14 3 14 3 10.83984375 3.09765625 C8.90818359 3.08025391 8.90818359 3.08025391 6.9375 3.0625 C5.64714844 3.05347656 4.35679687 3.04445312 3.02734375 3.03515625 C2.02832031 3.02355469 1.02929688 3.01195312 0 3 C0 2.01 0 1.02 0 0 Z " fill="#23201B" transform="translate(187,193)"/>
<path d="M0 0 C0.66 0.66 1.32 1.32 2 2 C1.875 5.5 1.875 5.5 1 9 C-1.16923658 10.6094336 -2.31923129 11 -5 11 C-3.77472971 6.94718288 -2.30119506 3.55639236 0 0 Z " fill="#E8DED2" transform="translate(303,219)"/>
<path d="M0 0 C1.65 0 3.3 0 5 0 C5 0.99 5 1.98 5 3 C7.27113803 2.85899143 9.54190725 2.71203245 11.8125 2.5625 C13.07707031 2.48128906 14.34164062 2.40007812 15.64453125 2.31640625 C18.99181893 2.12815453 18.99181893 2.12815453 22 1 C24.1875 2.4375 24.1875 2.4375 26 4 C23 5 23 5 20 4 C18.59175107 3.91978001 17.18002769 3.89234023 15.76953125 3.90234375 C14.56586914 3.90717773 14.56586914 3.90717773 13.33789062 3.91210938 C12.50451172 3.92048828 11.67113281 3.92886719 10.8125 3.9375 C9.5450293 3.94426758 9.5450293 3.94426758 8.25195312 3.95117188 C6.16793845 3.96294597 4.08396023 3.9808811 2 4 C2.33 3.01 2.66 2.02 3 1 C2.01 0.67 1.02 0.34 0 0 Z " fill="#413E3A" transform="translate(182,193)"/>
<path d="M0 0 C0.33 0 0.66 0 1 0 C1.12825004 10.71600323 0.79585256 21.312837 0 32 C-0.33 32 -0.66 32 -1 32 C-1.19590444 28.52125243 -1.38031592 25.04199096 -1.5625 21.5625 C-1.61857422 20.56927734 -1.67464844 19.57605469 -1.73242188 18.55273438 C-1.78076172 17.60849609 -1.82910156 16.66425781 -1.87890625 15.69140625 C-1.9260376 14.81685791 -1.97316895 13.94230957 -2.02172852 13.04125977 C-2 11 -2 11 -1 10 C-0.76712992 8.31816052 -0.58735834 6.6287584 -0.4375 4.9375 C-0.35371094 4.01839844 -0.26992188 3.09929687 -0.18359375 2.15234375 C-0.12300781 1.44207031 -0.06242187 0.73179687 0 0 Z " fill="#262320" transform="translate(19,168)"/>
<path d="M0 0 C3.4375 0.1875 3.4375 0.1875 7 1 C8.4375 3.0625 8.4375 3.0625 9 5 C8.34 5 7.68 5 7 5 C6.67 4.67 6.34 4.34 6 4 C6 5.32 6 6.64 6 8 C4.68 8 3.36 8 2 8 C2.33 6.35 2.66 4.7 3 3 C1.68 2.34 0.36 1.68 -1 1 C-0.67 0.67 -0.34 0.34 0 0 Z " fill="#787775" transform="translate(232,161)"/>
<path d="M0 0 C0.66 0 1.32 0 2 0 C2.33 0.66 2.66 1.32 3 2 C4.75687802 2.99024034 6.51614234 3.97805252 8.30859375 4.90234375 C10 6 10 6 12 9 C4.375 7.25 4.375 7.25 1 5 C0.3125 2.375 0.3125 2.375 0 0 Z " fill="#352E21" transform="translate(122,280)"/>
<path d="M0 0 C0.99 0 1.98 0 3 0 C2.95875 1.2375 2.9175 2.475 2.875 3.75 C2.875 7.00283562 3.04295156 9.28187717 5 12 C5.66 12.33 6.32 12.66 7 13 C3.72085432 12.43463006 2.06619192 11.6296988 0 9 C-0.29296875 6.73828125 -0.29296875 6.73828125 -0.1875 4.3125 C-0.16042969 3.50425781 -0.13335937 2.69601563 -0.10546875 1.86328125 C-0.07066406 1.24839844 -0.03585937 0.63351563 0 0 Z " fill="#322B17" transform="translate(276,115)"/>
<path d="M0 0 C1.1171875 1.609375 1.1171875 1.609375 2 4 C1.3203125 7.015625 1.3203125 7.015625 0.125 10.25 C-0.45894531 11.86648437 -0.45894531 11.86648437 -1.0546875 13.515625 C-1.36664063 14.33546875 -1.67859375 15.1553125 -2 16 C-2.66 16 -3.32 16 -4 16 C-4 15.34 -4 14.68 -4 14 C-4.66 13.67 -5.32 13.34 -6 13 C-4.7934375 11.453125 -4.7934375 11.453125 -3.5625 9.875 C-1.22200704 6.62872304 -0.29641289 4.05097617 0 0 Z " fill="#DCD5C9" transform="translate(248,221)"/>
<path d="M0 0 C1.67542976 0.28604898 3.34385343 0.61781233 5 1 C5 2.65 5 4.3 5 6 C3.02 6.33 1.04 6.66 -1 7 C-1.04254356 5.00045254 -1.04080783 2.99958364 -1 1 C-0.67 0.67 -0.34 0.34 0 0 Z " fill="#261E18" transform="translate(243,219)"/>
<path d="M0 0 C2.27024968 -0.08097324 4.54132075 -0.13917704 6.8125 -0.1875 C8.07707031 -0.22230469 9.34164062 -0.25710937 10.64453125 -0.29296875 C14 0 14 0 17 3 C11.39 2.67 5.78 2.34 0 2 C0 1.34 0 0.68 0 0 Z " fill="#4A4544" transform="translate(188,197)"/>
<path d="M0 0 C6.92988052 0.14437251 10.19760593 3.22255343 15 8 C14.34 8.66 13.68 9.32 13 10 C12.67 9.01 12.34 8.02 12 7 C11.01 6.67 10.02 6.34 9 6 C8.67 5.34 8.34 4.68 8 4 C5.88153715 3.31270746 5.88153715 3.31270746 3.4375 2.875 C2.61121094 2.70742187 1.78492188 2.53984375 0.93359375 2.3671875 C0.29550781 2.24601563 -0.34257812 2.12484375 -1 2 C-0.67 1.34 -0.34 0.68 0 0 Z " fill="#D4BD9D" transform="translate(209,177)"/>
<path d="M0 0 C0 0.99 0 1.98 0 3 C-0.99 3 -1.98 3 -3 3 C-3 3.99 -3 4.98 -3 6 C-3.66 6 -4.32 6 -5 6 C-5 6.66 -5 7.32 -5 8 C-5.66 8 -6.32 8 -7 8 C-7.33 8.66 -7.66 9.32 -8 10 C-7.39457203 3.58246347 -7.39457203 3.58246347 -5.6875 1.0625 C-4 0 -4 0 0 0 Z " fill="#EDD6BB" transform="translate(97,67)"/>
<path d="M0 0 C3.14737182 0.69941596 6.02588876 1.76078698 9 3 C9.33 5.31 9.66 7.62 10 10 C8.7010161 9.09373216 7.41106833 8.17450463 6.125 7.25 C5.40570313 6.73953125 4.68640625 6.2290625 3.9453125 5.703125 C1.91429435 3.92496453 1.02144988 2.47298393 0 0 Z " fill="#2F2922" transform="translate(171,216)"/>
<path d="M0 0 C0.66 0.66 1.32 1.32 2 2 C3.98356483 2.71408334 5.98315437 3.38617742 8 4 C7.67 7.3 7.34 10.6 7 14 C6.34 13.34 5.68 12.68 5 12 C5.375 8.375 5.375 8.375 6 5 C3.69 5 1.38 5 -1 5 C-0.67 3.35 -0.34 1.7 0 0 Z " fill="#D0C099" transform="translate(273,110)"/>
<path d="M0 0 C0.66 0 1.32 0 2 0 C1.52963758 4.79769665 0.73066236 8.01778406 -2 12 C-2.33 12.66 -2.66 13.32 -3 14 C-3.99 13.67 -4.98 13.34 -6 13 C-4.02 8.71 -2.04 4.42 0 0 Z " fill="#E6DCC8" transform="translate(314,232)"/>
<path d="M0 0 C0.66 1.32 1.32 2.64 2 4 C3.65 4 5.3 4 7 4 C6.3125 5.9375 6.3125 5.9375 5 8 C2.375 8.75 2.375 8.75 0 9 C0 6.03 0 3.06 0 0 Z " fill="#3D3530" transform="translate(241,221)"/>
<path d="M0 0 C0.89203125 0.00902344 1.7840625 0.01804688 2.703125 0.02734375 C3.37859375 0.03894531 4.0540625 0.05054688 4.75 0.0625 C4.75 0.3925 4.75 0.7225 4.75 1.0625 C2.11 1.7225 -0.53 2.3825 -3.25 3.0625 C-3.25 3.7225 -3.25 4.3825 -3.25 5.0625 C-4.9 4.7325 -6.55 4.4025 -8.25 4.0625 C-8.58 3.0725 -8.91 2.0825 -9.25 1.0625 C-6.09493858 0.12630187 -3.28413498 -0.0432123 0 0 Z " fill="#DABB92" transform="translate(143.25,192.9375)"/>
<path d="M0 0 C-1.5830577 4.2742558 -4.50568404 6.26531794 -8 9 C-8.66 8.34 -9.32 7.68 -10 7 C-9.175 6.38125 -8.35 5.7625 -7.5 5.125 C-6.2625 4.073125 -6.2625 4.073125 -5 3 C-5 2.34 -5 1.68 -5 1 C-2 0 -2 0 0 0 Z " fill="#E7E2D5" transform="translate(286,255)"/>
<path d="M0 0 C2.2432954 2.88423694 4.36318083 5.72636167 6 9 C5.6875 11.3125 5.6875 11.3125 5 13 C4.34 13 3.68 13 3 13 C3 11.02 3 9.04 3 7 C2.01 6.67 1.02 6.34 0 6 C0 4.02 0 2.04 0 0 Z " fill="#DFD7C7" transform="translate(69,237)"/>
<path d="M0 0 C2.66735273 2.48952921 4.55746343 4.63408134 6 8 C4.68 8.99 3.36 9.98 2 11 C0.57741188 7.17679443 -0.24042276 4.08718695 0 0 Z " fill="#DFD9C7" transform="translate(135,227)"/>
<path d="M0 0 C3.96 0 7.92 0 12 0 C12 0.99 12 1.98 12 3 C7.71 3 3.42 3 -1 3 C-0.67 2.01 -0.34 1.02 0 0 Z " fill="#DBDBCB" transform="translate(184,190)"/>
<path d="M0 0 C0.33 0.99 0.66 1.98 1 3 C2.11375 2.7215625 2.11375 2.7215625 3.25 2.4375 C8.57090725 1.81672749 13.68931933 2.44143326 19 3 C19 3.33 19 3.66 19 4 C12.4 4.33 5.8 4.66 -1 5 C-0.67 3.35 -0.34 1.7 0 0 Z " fill="#575347" transform="translate(179,185)"/>
<path d="M0 0 C2.62386487 3.06117568 3 3.73173127 3 8 C2.34 8 1.68 8 1 8 C0.67 8.99 0.34 9.98 0 11 C-0.99 11 -1.98 11 -3 11 C-2.690625 10.484375 -2.38125 9.96875 -2.0625 9.4375 C-0.70940713 6.33334577 -0.38640576 3.34884993 0 0 Z " fill="#ECD7B7" transform="translate(116,91)"/>
<path d="M0 0 C3.47162014 1.15720671 4.13156927 1.9425679 6 5 C6.6875 7.75 6.6875 7.75 7 10 C6.01 10 5.02 10 4 10 C4 8.68 4 7.36 4 6 C2.68 6 1.36 6 0 6 C0 4.02 0 2.04 0 0 Z " fill="#F1EDE5" transform="translate(324,78)"/>
<path d="M0 0 C0.66 0 1.32 0 2 0 C2.08082094 1.95766281 2.13910778 3.91626728 2.1875 5.875 C2.23970703 7.51082031 2.23970703 7.51082031 2.29296875 9.1796875 C2.19628906 10.11039063 2.09960938 11.04109375 2 12 C1.01 12.66 0.02 13.32 -1 14 C-0.67 9.38 -0.34 4.76 0 0 Z " fill="#403B29" transform="translate(317,177)"/>
<path d="M0 0 C0.33 0.99 0.66 1.98 1 3 C-0.2065625 3.4021875 -0.2065625 3.4021875 -1.4375 3.8125 C-2.283125 4.204375 -3.12875 4.59625 -4 5 C-4.33 5.99 -4.66 6.98 -5 8 C-5.99 8 -6.98 8 -8 8 C-6.49776416 3.79373966 -3.71449966 2.26099979 0 0 Z " fill="#EAD3B2" transform="translate(141,138)"/>
<path d="M0 0 C1.5 1.0625 1.5 1.0625 3 3 C3.1875 6.6875 3.1875 6.6875 3 10 C2.01 10.33 1.02 10.66 0 11 C-0.84098656 6.98195309 -1.05404945 3.98196457 0 0 Z " fill="#E4DECF" transform="translate(79,219)"/>
<path d="M0 0 C-0.53625 0.2475 -1.0725 0.495 -1.625 0.75 C-4.56648283 2.29814886 -7.25359843 4.13010957 -10 6 C-10.99 6.66 -11.98 7.32 -13 8 C-13 7.01 -13 6.02 -13 5 C-11.57421875 3.6484375 -11.57421875 3.6484375 -9.6875 2.375 C-8.76517578 1.73691406 -8.76517578 1.73691406 -7.82421875 1.0859375 C-4.72403316 -0.75956913 -3.48515906 -1.16171969 0 0 Z " fill="#E8E4D9" transform="translate(101,169)"/>
<path d="M0 0 C0.86625 0.37125 0.86625 0.37125 1.75 0.75 C1.75 1.41 1.75 2.07 1.75 2.75 C1.0075 3.018125 0.265 3.28625 -0.5 3.5625 C-3.11636554 4.69229421 -5.05187111 5.95893202 -7.25 7.75 C-6.66524269 3.65669884 -4.62230386 -0.51358932 0 0 Z " fill="#252321" transform="translate(230.25,161.25)"/>
<path d="M0 0 C2.6875 0.3125 2.6875 0.3125 5 1 C4.67 2.65 4.34 4.3 4 6 C3.34 5.34 2.68 4.68 2 4 C-0.57061311 3.35232207 -0.57061311 3.35232207 -3 3 C-1.8125 1.4375 -1.8125 1.4375 0 0 Z " fill="#342E1C" transform="translate(271,100)"/>
<path d="M0 0 C0.66 0.66 1.32 1.32 2 2 C1.67 2.66 1.34 3.32 1 4 C-0.32 3.67 -1.64 3.34 -3 3 C-2.01 2.01 -1.02 1.02 0 0 Z M-5 4 C-4.34 4.33 -3.68 4.66 -3 5 C-3.33 5.99 -3.66 6.98 -4 8 C-7.0625 9.1875 -7.0625 9.1875 -10 10 C-8.35 8.02 -6.7 6.04 -5 4 Z " fill="#E9E4DD" transform="translate(84,52)"/>
<path d="M0 0 C1.20272819 2.40545638 1.10071472 3.94996953 1.0625 6.625 C1.05347656 7.44226563 1.04445312 8.25953125 1.03515625 9.1015625 C1.02355469 9.72804687 1.01195312 10.35453125 1 11 C-1.97 10.505 -1.97 10.505 -5 10 C-4.01 9.67 -3.02 9.34 -2 9 C-2.04125 7.88625 -2.0825 6.7725 -2.125 5.625 C-2 2 -2 2 0 0 Z " fill="#C8B699" transform="translate(206,180)"/>
<path d="M0 0 C0.99 0.33 1.98 0.66 3 1 C2.42906864 4.3114019 1.45395174 5.75054423 -1 8 C-1.33 8.66 -1.66 9.32 -2 10 C-2.66 9.67 -3.32 9.34 -4 9 C-2.80100302 5.9168649 -1.52299523 2.93720508 0 0 Z " fill="#F7F3E6" transform="translate(317,286)"/>
<path d="M0 0 C0.33 0 0.66 0 1 0 C1 2.97 1 5.94 1 9 C-0.32 8.67 -1.64 8.34 -3 8 C-2.45276317 4.62537285 -1.9451 2.91765 0 0 Z " fill="#E4C9A6" transform="translate(259,179)"/>
<path d="M0 0 C0.33 0 0.66 0 1 0 C1 7.92 1 15.84 1 24 C0.67 24 0.34 24 0 24 C0 16.08 0 8.16 0 0 Z " fill="#4D4C4C" transform="translate(376,176)"/>
<path d="M0 0 C4.2742558 1.5830577 6.26531794 4.50568404 9 8 C6 8 6 8 4.39453125 6.7578125 C3.87246094 6.21898438 3.35039063 5.68015625 2.8125 5.125 C2.28269531 4.59132813 1.75289063 4.05765625 1.20703125 3.5078125 C0 2 0 2 0 0 Z " fill="#E4DBC9" transform="translate(107,59)"/>
<path d="M0 0 C0.66 0.33 1.32 0.66 2 1 C1.01 3.31 0.02 5.62 -1 8 C-2.65 8 -4.3 8 -6 8 C-5.6875 6.0625 -5.6875 6.0625 -5 4 C-4.01 3.67 -3.02 3.34 -2 3 C-1.34 2.01 -0.68 1.02 0 0 Z " fill="#232323" transform="translate(81,38)"/>
<path d="M0 0 C0.33 0 0.66 0 1 0 C1.13277344 0.71027344 1.26554687 1.42054688 1.40234375 2.15234375 C1.57894531 3.07144531 1.75554687 3.99054688 1.9375 4.9375 C2.11152344 5.85402344 2.28554687 6.77054688 2.46484375 7.71484375 C2.77714988 9.95289844 2.77714988 9.95289844 4 11 C4.04092937 13.33297433 4.04241723 15.66705225 4 18 C3.67 18 3.34 18 3 18 C2.690625 16.906875 2.38125 15.81375 2.0625 14.6875 C1.41662103 12.44592006 0.7376883 10.2130649 0 8 C-0.12781786 5.32605036 -0.04391871 2.67904143 0 0 Z " fill="#201B14" transform="translate(64,180)"/>
<path d="M0 0 C0.33 0 0.66 0 1 0 C1 7.59 1 15.18 1 23 C0.67 23 0.34 23 0 23 C0 15.41 0 7.82 0 0 Z " fill="#393939" transform="translate(7,176)"/>
<path d="M0 0 C7.26 0 14.52 0 22 0 C22 0.33 22 0.66 22 1 C14.74 1 7.48 1 0 1 C0 0.67 0 0.34 0 0 Z " fill="#000000" transform="translate(181,374)"/>
<path d="M0 0 C2.31 0 4.62 0 7 0 C7 0.66 7 1.32 7 2 C4 4 4 4 1.8125 3.625 C1.214375 3.41875 0.61625 3.2125 0 3 C0 2.01 0 1.02 0 0 Z " fill="#F4EFE7" transform="translate(272,336)"/>
<path d="M0 0 C0.66 0.33 1.32 0.66 2 1 C2.6328125 3.06640625 2.6328125 3.06640625 3.125 5.5625 C3.29257813 6.38878906 3.46015625 7.21507813 3.6328125 8.06640625 C3.75398438 8.70449219 3.87515625 9.34257813 4 10 C3.34 9.67 2.68 9.34 2 9 C2 8.01 2 7.02 2 6 C1.01 6 0.02 6 -1 6 C-0.67 4.02 -0.34 2.04 0 0 Z " fill="#D5BFA3" transform="translate(106,106)"/>
<path d="M0 0 C-1.29299694 2.88437779 -2.65941363 4.87219421 -5 7 C-5.6875 5.1875 -5.6875 5.1875 -6 3 C-4.04862098 0.26806937 -3.44686768 0 0 0 Z " fill="#302C1C" transform="translate(278,73)"/>
<path d="M0 0 C1.9375 0.375 1.9375 0.375 4 1 C5.20272819 3.40545638 5.10071472 4.94996953 5.0625 7.625 C5.05347656 8.44226563 5.04445312 9.25953125 5.03515625 10.1015625 C5.02355469 10.72804687 5.01195312 11.35453125 5 12 C4.67 12 4.34 12 4 12 C3.71125 10.7625 3.4225 9.525 3.125 8.25 C2.38665206 5.27551258 1.55525067 2.666144 0 0 Z " fill="#171514" transform="translate(159,164)"/>
<path d="M0 0 C1.32 0 2.64 0 4 0 C3.3125 1.9375 3.3125 1.9375 2 4 C-0.625 4.75 -0.625 4.75 -3 5 C-3.33 4.34 -3.66 3.68 -4 3 C-2.68 3 -1.36 3 0 3 C0 2.01 0 1.02 0 0 Z " fill="#E9D3B3" transform="translate(218,154)"/>
<path d="M0 0 C0.66 0 1.32 0 2 0 C2.33 1.32 2.66 2.64 3 4 C-0.40931897 5.13643966 -1.00335456 4.86747764 -4.1875 3.5625 C-4.90292969 3.27503906 -5.61835938 2.98757812 -6.35546875 2.69140625 C-6.89816406 2.46324219 -7.44085938 2.23507813 -8 2 C-8 1.67 -8 1.34 -8 1 C-5.36 1.33 -2.72 1.66 0 2 C0 1.34 0 0.68 0 0 Z " fill="#CFBE9D" transform="translate(250,146)"/>
<path d="M0 0 C0.99 0.66 1.98 1.32 3 2 C2.34 3.32 1.68 4.64 1 6 C0.01 6 -0.98 6 -2 6 C-1.125 1.125 -1.125 1.125 0 0 Z " fill="#DBCFA6" transform="translate(132,145)"/>
<path d="M0 0 C3.39914975 1.13304992 4.05254451 2.12518475 6 5 C5.01 5.99 4.02 6.98 3 8 C0 2.25 0 2.25 0 0 Z " fill="#DED7CF" transform="translate(136,324)"/>
<path d="M0 0 C1.65 0 3.3 0 5 0 C5 1.32 5 2.64 5 4 C2.03 3.505 2.03 3.505 -1 3 C-0.67 2.01 -0.34 1.02 0 0 Z " fill="#E7DECD" transform="translate(130,288)"/>
<path d="M0 0 C5.75 3.625 5.75 3.625 8 7 C5 7 5 7 2.3125 4.625 C0 2 0 2 0 0 Z " fill="#DBCBA7" transform="translate(243,139)"/>
<path d="M0 0 C1.31602523 0.61754259 2.62773556 1.24428742 3.9375 1.875 C4.66839844 2.22304688 5.39929688 2.57109375 6.15234375 2.9296875 C8 4 8 4 9 6 C6.03 5.505 6.03 5.505 3 5 C3 4.34 3 3.68 3 3 C2.01 3 1.02 3 0 3 C0 2.01 0 1.02 0 0 Z " fill="#EAE7DE" transform="translate(280,39)"/>
<path d="M0 0 C1.98 1.32 3.96 2.64 6 4 C2.18510326 5.46726798 -0.29011622 4.43336419 -4 3 C-2.68 2.67 -1.36 2.34 0 2 C0 1.34 0 0.68 0 0 Z " fill="#3C3529" transform="translate(143,338)"/>
<path d="M0 0 C2.97 0.33 5.94 0.66 9 1 C8.67 1.66 8.34 2.32 8 3 C5.36 3 2.72 3 0 3 C0 2.01 0 1.02 0 0 Z " fill="#201713" transform="translate(206,245)"/>
<path d="M0 0 C-0.99 0.66 -1.98 1.32 -3 2 C-3.99 1.67 -4.98 1.34 -6 1 C-7.99961564 0.96079185 -10.00049364 0.95556653 -12 1 C-12 0.67 -12 0.34 -12 0 C-7.22144261 -2.04795317 -4.77855739 -2.04795317 0 0 Z " fill="#38332B" transform="translate(208,196)"/>
<path d="M0 0 C0 0.33 0 0.66 0 1 C-1.11375 1.12375 -2.2275 1.2475 -3.375 1.375 C-7.03103677 1.6465813 -7.03103677 1.6465813 -9 4 C-9 2.68 -9 1.36 -9 0 C-5.93109813 -1.53445094 -3.29905734 -0.54984289 0 0 Z " fill="#DAC6A1" transform="translate(229,136)"/>
<path d="M0 0 C1.65 0 3.3 0 5 0 C5 0.99 5 1.98 5 3 C3.35 3.33 1.7 3.66 0 4 C0 2.68 0 1.36 0 0 Z " fill="#3A2D1A" transform="translate(104,115)"/>
<path d="M0 0 C1.32 0 2.64 0 4 0 C2.62845496 2.95409701 1.01136276 5.44008376 -1 8 C-1.125 2.25 -1.125 2.25 0 0 Z " fill="#CDC9BE" transform="translate(117,284)"/>
<path d="M0 0 C1.32 0.33 2.64 0.66 4 1 C4.33 2.98 4.66 4.96 5 7 C4.01 7.495 4.01 7.495 3 8 C2.01 5.36 1.02 2.72 0 0 Z " fill="#DCD4C2" transform="translate(307,265)"/>
<path d="M0 0 C0.33 0.66 0.66 1.32 1 2 C1.66 2 2.32 2 3 2 C2.25 3.9375 2.25 3.9375 1 6 C-1.125 6.75 -1.125 6.75 -3 7 C-2.01 4.69 -1.02 2.38 0 0 Z " fill="#EBE6D9" transform="translate(213,213)"/>
<path d="M0 0 C0.66 0 1.32 0 2 0 C2 0.99 2 1.98 2 3 C2.66 3.33 3.32 3.66 4 4 C4 4.66 4 5.32 4 6 C2.35 5.67 0.7 5.34 -1 5 C-0.67 3.35 -0.34 1.7 0 0 Z " fill="#ECCA9E" transform="translate(244,193)"/>
<path d="M0 0 C2.97 0.495 2.97 0.495 6 1 C6.33 2.32 6.66 3.64 7 5 C4.69 4.34 2.38 3.68 0 3 C0 2.01 0 1.02 0 0 Z " fill="#E3E0CE" transform="translate(200,191)"/>
<path d="M0 0 C0.66 0.33 1.32 0.66 2 1 C2 1.66 2 2.32 2 3 C3.32 2.67 4.64 2.34 6 2 C5.67 2.99 5.34 3.98 5 5 C3.35 4.67 1.7 4.34 0 4 C0 2.68 0 1.36 0 0 Z " fill="#EDD6BB" transform="translate(163,154)"/>
<path d="M0 0 C0.99 0.33 1.98 0.66 3 1 C2.67 1.99 2.34 2.98 2 4 C-0.5625 5.1875 -0.5625 5.1875 -3 6 C-1.125 1.125 -1.125 1.125 0 0 Z " fill="#E0D3AE" transform="translate(217,138)"/>
<path d="M0 0 C0.93065133 2.60582371 1.14917407 3.64198224 0.0625 6.25 C-0.4634375 7.11625 -0.4634375 7.11625 -1 8 C-2.5 6.625 -2.5 6.625 -4 5 C-4 4.34 -4 3.68 -4 3 C-2.68 3 -1.36 3 0 3 C0 2.01 0 1.02 0 0 Z " fill="#EDDDBF" transform="translate(292,129)"/>
<path d="M0 0 C3.16115776 1.36983503 3.9927092 1.9890638 6 5 C5.01 5.99 4.02 6.98 3 8 C2.01 5.36 1.02 2.72 0 0 Z " fill="#2B2314" transform="translate(112,102)"/>
<path d="M0 0 C3.73639216 1.24546405 4.18756513 2.63404953 6 6 C5.01 6.495 5.01 6.495 4 7 C4 6.34 4 5.68 4 5 C2.68 4.67 1.36 4.34 0 4 C0 2.68 0 1.36 0 0 Z " fill="#E4CFB2" transform="translate(104,74)"/>
<path d="M0 0 C-2.39509338 2.89932357 -4.31245243 3.50168276 -8 4 C-8 3.34 -8 2.68 -8 2 C-3.61016949 -1.20338983 -3.61016949 -1.20338983 0 0 Z " fill="#F4F0E6" transform="translate(106,40)"/>
<path d="M0 0 C1.65 0 3.3 0 5 0 C5 0.99 5 1.98 5 3 C3.35 3.33 1.7 3.66 0 4 C0 2.68 0 1.36 0 0 Z " fill="#F6F3EA" transform="translate(265,340)"/>
<path d="M0 0 C0.99 1.32 1.98 2.64 3 4 C0.69 4.33 -1.62 4.66 -4 5 C-2.68 3.35 -1.36 1.7 0 0 Z " fill="#4A4136" transform="translate(236,339)"/>
<path d="M0 0 C1.98 0.99 1.98 0.99 4 2 C3.34 3.98 2.68 5.96 2 8 C0 6 0 6 -0.125 2.875 C-0.08375 1.92625 -0.0425 0.9775 0 0 Z " fill="#E8E0CC" transform="translate(68,265)"/>
<path d="M0 0 C2.0625 0.4375 2.0625 0.4375 4 1 C3.01 2.32 2.02 3.64 1 5 C0.34 4.67 -0.32 4.34 -1 4 C-1 1 -1 1 0 0 Z " fill="#261F11" transform="translate(236,236)"/>
<path d="M0 0 C0.33 0.66 0.66 1.32 1 2 C3.02463255 2.65213292 3.02463255 2.65213292 5 3 C5 3.99 5 4.98 5 6 C3.35 5.67 1.7 5.34 0 5 C0 3.35 0 1.7 0 0 Z " fill="#E0C48C" transform="translate(126,187)"/>
<path d="M0 0 C1.5 1 1.5 1 3 3 C3.27345479 5.71846235 3.13491285 8.25677199 3 11 C2.67 11 2.34 11 2 11 C1.690625 9.906875 1.38125 8.81375 1.0625 7.6875 C0.41662103 5.44592006 -0.2623117 3.2130649 -1 1 C-0.67 0.67 -0.34 0.34 0 0 Z " fill="#282524" transform="translate(241,165)"/>
<path d="M0 0 C1.98 0.495 1.98 0.495 4 1 C3.67 1.99 3.34 2.98 3 4 C1.68 4 0.36 4 -1 4 C-0.67 2.68 -0.34 1.36 0 0 Z " fill="#DDDBDA" transform="translate(153,165)"/>
<path d="M0 0 C2.475 0.99 2.475 0.99 5 2 C5 2.99 5 3.98 5 5 C3.68 4.67 2.36 4.34 1 4 C0.67 2.68 0.34 1.36 0 0 Z " fill="#342B28" transform="translate(284,132)"/>
<path d="M0 0 C2.475 0.495 2.475 0.495 5 1 C5.33 2.32 5.66 3.64 6 5 C5.01 5 4.02 5 3 5 C1.3125 2.5 1.3125 2.5 0 0 Z " fill="#E4CCAC" transform="translate(283,127)"/>
<path d="M0 0 C4.95 0 9.9 0 15 0 C15 0.33 15 0.66 15 1 C10.05 1 5.1 1 0 1 C0 0.67 0 0.34 0 0 Z " fill="#2C2B2B" transform="translate(195,2)"/>
<path d="M0 0 C4.29 0 8.58 0 13 0 C13 0.33 13 0.66 13 1 C8.71 1 4.42 1 0 1 C0 0.67 0 0.34 0 0 Z " fill="#2D251E" transform="translate(173,2)"/>
<path d="M0 0 C3.3 0 6.6 0 10 0 C10 0.33 10 0.66 10 1 C6.7 1 3.4 1 0 1 C0 0.67 0 0.34 0 0 Z " fill="#242424" transform="translate(204,373)"/>
<path d="M0 0 C3.3 0 6.6 0 10 0 C10 0.33 10 0.66 10 1 C6.7 1 3.4 1 0 1 C0 0.67 0 0.34 0 0 Z " fill="#1A1A1A" transform="translate(171,373)"/>
<path d="M0 0 C1.85776765 3.13498292 2.20140476 5.37471432 2 9 C0.14223235 5.86501708 -0.20140476 3.62528568 0 0 Z " fill="#161616" transform="translate(11,224)"/>
<path d="M0 0 C0.33 0 0.66 0 1 0 C1 2.97 1 5.94 1 9 C0.67 9 0.34 9 0 9 C0 6.03 0 3.06 0 0 Z " fill="#343233" transform="translate(375,203)"/>
<path d="M0 0 C0.33 0 0.66 0 1 0 C1 2.97 1 5.94 1 9 C0.67 9 0.34 9 0 9 C0 6.03 0 3.06 0 0 Z " fill="#444444" transform="translate(8,202)"/>
<path d="M0 0 C0.33 0 0.66 0 1 0 C1 2.97 1 5.94 1 9 C0.67 9 0.34 9 0 9 C0 6.03 0 3.06 0 0 Z " fill="#2E2E2E" transform="translate(375,165)"/>
<path d="M0 0 C0.33 0 0.66 0 1 0 C1 2.97 1 5.94 1 9 C0.67 9 0.34 9 0 9 C0 6.03 0 3.06 0 0 Z " fill="#2C2C2C" transform="translate(8,165)"/>
<path d="M0 0 C0.33 0 0.66 0 1 0 C1 2.64 1 5.28 1 8 C0.67 8 0.34 8 0 8 C0 5.36 0 2.72 0 0 Z " fill="#0A0A0A" transform="translate(9,157)"/>
<path d="M0 0 C0.625 1.8125 0.625 1.8125 1 4 C0.34 4.99 -0.32 5.98 -1 7 C-0.67 4.69 -0.34 2.38 0 0 Z " fill="#060606" transform="translate(15,132)"/>
<path d="M0 0 C2.64 0 5.28 0 8 0 C8 0.33 8 0.66 8 1 C5.36 1 2.72 1 0 1 C0 0.67 0 0.34 0 0 Z " fill="#141614" transform="translate(211,3)"/>
<path d="M0 0 C2.64 0 5.28 0 8 0 C8 0.33 8 0.66 8 1 C5.36 1 2.72 1 0 1 C0 0.67 0 0.34 0 0 Z " fill="#1D1B1A" transform="translate(165,3)"/>
<path d="M0 0 C0.33 0 0.66 0 1 0 C1 2.31 1 4.62 1 7 C0.67 7 0.34 7 0 7 C0 4.69 0 2.38 0 0 Z " fill="#120F10" transform="translate(374,212)"/>
<path d="M0 0 C0.33 0 0.66 0 1 0 C1 2.31 1 4.62 1 7 C0.67 7 0.34 7 0 7 C0 4.69 0 2.38 0 0 Z " fill="#161616" transform="translate(9,211)"/>
<path d="M0 0 C0.33 0 0.66 0 1 0 C1 2.31 1 4.62 1 7 C0.67 7 0.34 7 0 7 C0 4.69 0 2.38 0 0 Z " fill="#1D1016" transform="translate(374,157)"/>
<path d="M0 0 C1.98 0 3.96 0 6 0 C6 0.33 6 0.66 6 1 C4.02 1 2.04 1 0 1 C0 0.67 0 0.34 0 0 Z " fill="#524C4E" transform="translate(215,372)"/>
<path d="M0 0 C1.98 0 3.96 0 6 0 C6 0.33 6 0.66 6 1 C4.02 1 2.04 1 0 1 C0 0.67 0 0.34 0 0 Z " fill="#2D2D2D" transform="translate(164,372)"/>
<path d="M0 0 C1.98 0 3.96 0 6 0 C6 0.33 6 0.66 6 1 C4.02 1 2.04 1 0 1 C0 0.67 0 0.34 0 0 Z " fill="#110F10" transform="translate(221,371)"/>
<path d="M0 0 C0.33 0 0.66 0 1 0 C1 1.65 1 3.3 1 5 C0.67 5 0.34 5 0 5 C0 3.35 0 1.7 0 0 Z " fill="#1D1D1D" transform="translate(10,218)"/>
<path d="M0 0 C0.33 0 0.66 0 1 0 C1 1.65 1 3.3 1 5 C0.67 5 0.34 5 0 5 C0 3.35 0 1.7 0 0 Z " fill="#121311" transform="translate(373,152)"/>
<path d="M0 0 C0.33 0 0.66 0 1 0 C1 1.65 1 3.3 1 5 C0.67 5 0.34 5 0 5 C0 3.35 0 1.7 0 0 Z " fill="#181818" transform="translate(10,152)"/>
<path d="M0 0 C0.33 0 0.66 0 1 0 C1 1.65 1 3.3 1 5 C0.67 5 0.34 5 0 5 C0 3.35 0 1.7 0 0 Z " fill="#151515" transform="translate(11,147)"/>
<path d="M0 0 C1.65 0 3.3 0 5 0 C5 0.33 5 0.66 5 1 C3.35 1 1.7 1 0 1 C0 0.67 0 0.34 0 0 Z " fill="#4D4D4D" transform="translate(154,5)"/>
<path d="M0 0 C1.65 0 3.3 0 5 0 C5 0.33 5 0.66 5 1 C3.35 1 1.7 1 0 1 C0 0.67 0 0.34 0 0 Z " fill="#292929" transform="translate(160,4)"/>
<path d="M0 0 C4 1 4 1 4 1 Z " fill="#323232" transform="translate(153,370)"/>
<path d="M0 0 C4 1 4 1 4 1 Z " fill="#252525" transform="translate(232,369)"/>
<path d="M0 0 C4 1 4 1 4 1 Z " fill="#1A1A1A" transform="translate(236,368)"/>
<path d="M0 0 C0.99 0.495 0.99 0.495 2 1 C1.67 1.66 1.34 2.32 1 3 C0.67 2.01 0.34 1.02 0 0 Z " fill="#070707" transform="translate(53,309)"/>
<path d="M0 0 C1 4 1 4 1 4 Z " fill="#000000" transform="translate(15,240)"/>
<path d="M0 0 C1 4 1 4 1 4 Z " fill="#0A0A0A" transform="translate(370,233)"/>
<path d="M0 0 C1 4 1 4 1 4 Z " fill="#222223" transform="translate(13,233)"/>
<path d="M0 0 C1 4 1 4 1 4 Z " fill="#151515" transform="translate(371,229)"/>
<path d="M0 0 C1 4 1 4 1 4 Z " fill="#121212" transform="translate(372,225)"/>
<path d="M0 0 C1 4 1 4 1 4 Z " fill="#181818" transform="translate(373,220)"/>
<path d="M0 0 C1 4 1 4 1 4 Z " fill="#121212" transform="translate(372,147)"/>
<path d="M0 0 C1 4 1 4 1 4 Z " fill="#151515" transform="translate(371,143)"/>
<path d="M0 0 C1 4 1 4 1 4 Z " fill="#141414" transform="translate(12,143)"/>
<path d="M0 0 C1 4 1 4 1 4 Z " fill="#171717" transform="translate(370,139)"/>
<path d="M0 0 C1 4 1 4 1 4 Z " fill="#040404" transform="translate(13,139)"/>
<path d="M0 0 C0.99 0.495 0.99 0.495 2 1 C1.67 1.66 1.34 2.32 1 3 C0.67 2.01 0.34 1.02 0 0 Z " fill="#000000" transform="translate(335,70)"/>
<path d="M0 0 C0.99 0.495 0.99 0.495 2 1 C1.67 1.66 1.34 2.32 1 3 C0.67 2.01 0.34 1.02 0 0 Z " fill="#000000" transform="translate(330,64)"/>
<path d="M0 0 C0 3 0 3 0 3 Z " fill="#161517" transform="translate(55,62)"/>
<path d="M0 0 C4 1 4 1 4 1 Z " fill="#1B1B1B" transform="translate(142,8)"/>
<path d="M0 0 C4 1 4 1 4 1 Z " fill="#1A1A1A" transform="translate(235,7)"/>
<path d="M0 0 C4 1 4 1 4 1 Z " fill="#141414" transform="translate(150,6)"/>
<path d="M0 0 C4 1 4 1 4 1 Z " fill="#0F0E0E" transform="translate(226,5)"/>
<path d="M0 0 C3 1 3 1 3 1 Z " fill="#15060B" transform="translate(240,367)"/>
<path d="M0 0 C3 1 3 1 3 1 Z " fill="#271618" transform="translate(243,366)"/>
<path d="M0 0 C3 1 3 1 3 1 Z " fill="#151514" transform="translate(135,365)"/>
<path d="M0 0 C3 1 3 1 3 1 Z " fill="#2E2E2D" transform="translate(132,364)"/>
<path d="M0 0 C3 1 3 1 3 1 Z " fill="#171616" transform="translate(255,362)"/>
<path d="M0 0 C3 1 3 1 3 1 Z " fill="#545454" transform="translate(124,361)"/>
<path d="" fill="#000000" transform="translate(0,0)"/>
<path d="" fill="#1C1A1A" transform="translate(0,0)"/>
<path d="" fill="#070504" transform="translate(0,0)"/>
<path d="" fill="#1B1918" transform="translate(0,0)"/>
<path d="" fill="#1C1B1B" transform="translate(0,0)"/>
<path d="" fill="#020101" transform="translate(0,0)"/>
<path d="" fill="#060403" transform="translate(0,0)"/>
<path d="" fill="#252322" transform="translate(0,0)"/>
<path d="" fill="#1C1C1C" transform="translate(0,0)"/>
<path d="" fill="#090909" transform="translate(0,0)"/>
<path d="" fill="#000001" transform="translate(0,0)"/>
<path d="" fill="#020202" transform="translate(0,0)"/>
<path d="" fill="#1D1D1D" transform="translate(0,0)"/>
<path d="" fill="#000000" transform="translate(0,0)"/>
<path d="" fill="#020404" transform="translate(0,0)"/>
<path d="" fill="#060504" transform="translate(0,0)"/>
<path d="" fill="#020000" transform="translate(0,0)"/>
<path d="" fill="#211F1E" transform="translate(0,0)"/>
<path d="" fill="#060606" transform="translate(0,0)"/>
<path d="" fill="#0D0606" transform="translate(0,0)"/>
<path d="" fill="#010101" transform="translate(0,0)"/>
<path d="" fill="#040303" transform="translate(0,0)"/>
<path d="" fill="#040404" transform="translate(0,0)"/>
<path d="M0 0 C3 1 3 1 3 1 Z " fill="#555655" transform="translate(127,13)"/>
<path d="M0 0 C3 1 3 1 3 1 Z " fill="#030102" transform="translate(252,12)"/>
<path d="M0 0 C3 1 3 1 3 1 Z " fill="#010200" transform="translate(246,10)"/>
<path d="M0 0 C2 1 2 1 2 1 Z " fill="#403E3F" transform="translate(258,361)"/>
<path d="M0 0 C2 1 2 1 2 1 Z " fill="#090607" transform="translate(260,360)"/>
<path d="M0 0 C2 1 2 1 2 1 Z " fill="#030100" transform="translate(271,355)"/>
<path d="M0 0 C2 1 2 1 2 1 Z " fill="#010101" transform="translate(102,350)"/>
<path d="M0 0 C2 1 2 1 2 1 Z " fill="#000000" transform="translate(97,347)"/>
<path d="" fill="#000000" transform="translate(0,0)"/>
<path d="" fill="#060505" transform="translate(0,0)"/>
<path d="" fill="#090909" transform="translate(0,0)"/>
<path d="" fill="#070606" transform="translate(0,0)"/>
<path d="" fill="#040404" transform="translate(0,0)"/>
<path d="" fill="#030101" transform="translate(0,0)"/>
<path d="" fill="#020202" transform="translate(0,0)"/>
<path d="" fill="#0D0B09" transform="translate(0,0)"/>
<path d="" fill="#070707" transform="translate(0,0)"/>
<path d="" fill="#000000" transform="translate(0,0)"/>
<path d="" fill="#000000" transform="translate(0,0)"/>
<path d="" fill="#000000" transform="translate(0,0)"/>
<path d="" fill="#040404" transform="translate(0,0)"/>
<path d="" fill="#000000" transform="translate(0,0)"/>
<path d="" fill="#030204" transform="translate(0,0)"/>
<path d="" fill="#000000" transform="translate(0,0)"/>
<path d="" fill="#060606" transform="translate(0,0)"/>
<path d="" fill="#040404" transform="translate(0,0)"/>
<path d="" fill="#010101" transform="translate(0,0)"/>
<path d="" fill="#050404" transform="translate(0,0)"/>
<path d="" fill="#000000" transform="translate(0,0)"/>
<path d="" fill="#020202" transform="translate(0,0)"/>
<path d="" fill="#010101" transform="translate(0,0)"/>
<path d="" fill="#020202" transform="translate(0,0)"/>
<path d="" fill="#000000" transform="translate(0,0)"/>
<path d="" fill="#353535" transform="translate(0,0)"/>
<path d="" fill="#050303" transform="translate(0,0)"/>
<path d="" fill="#030303" transform="translate(0,0)"/>
<path d="" fill="#030202" transform="translate(0,0)"/>
<path d="" fill="#010101" transform="translate(0,0)"/>
<path d="" fill="#050403" transform="translate(0,0)"/>
<path d="" fill="#0B0907" transform="translate(0,0)"/>
<path d="" fill="#0B0908" transform="translate(0,0)"/>
<path d="" fill="#040403" transform="translate(0,0)"/>
<path d="" fill="#3A3A3A" transform="translate(0,0)"/>
<path d="" fill="#070000" transform="translate(0,0)"/>
<path d="" fill="#010101" transform="translate(0,0)"/>
<path d="" fill="#050101" transform="translate(0,0)"/>
<path d="" fill="#000000" transform="translate(0,0)"/>
<path d="" fill="#191013" transform="translate(0,0)"/>
<path d="" fill="#020202" transform="translate(0,0)"/>
<path d="" fill="#070101" transform="translate(0,0)"/>
<path d="" fill="#040404" transform="translate(0,0)"/>
<path d="" fill="#020101" transform="translate(0,0)"/>
<path d="" fill="#000000" transform="translate(0,0)"/>
<path d="" fill="#050304" transform="translate(0,0)"/>
<path d="" fill="#0B0B0B" transform="translate(0,0)"/>
<path d="" fill="#000000" transform="translate(0,0)"/>
<path d="" fill="#000000" transform="translate(0,0)"/>
<path d="" fill="#000000" transform="translate(0,0)"/>
<path d="" fill="#000000" transform="translate(0,0)"/>
<path d="" fill="#050505" transform="translate(0,0)"/>
<path d="" fill="#000000" transform="translate(0,0)"/>
<path d="" fill="#040404" transform="translate(0,0)"/>
<path d="" fill="#010000" transform="translate(0,0)"/>
<path d="" fill="#030001" transform="translate(0,0)"/>
<path d="" fill="#030303" transform="translate(0,0)"/>
<path d="" fill="#040605" transform="translate(0,0)"/>
<path d="" fill="#000000" transform="translate(0,0)"/>
<path d="" fill="#070505" transform="translate(0,0)"/>
<path d="" fill="#000000" transform="translate(0,0)"/>
<path d="" fill="#424242" transform="translate(0,0)"/>
<path d="" fill="#010101" transform="translate(0,0)"/>
<path d="" fill="#000000" transform="translate(0,0)"/>
<path d="" fill="#000000" transform="translate(0,0)"/>
<path d="" fill="#040407" transform="translate(0,0)"/>
<path d="" fill="#000000" transform="translate(0,0)"/>
<path d="" fill="#030300" transform="translate(0,0)"/>
<path d="" fill="#040404" transform="translate(0,0)"/>
<path d="M0 0 C2 1 2 1 2 1 Z " fill="#000000" transform="translate(90,32)"/>
<path d="M0 0 C2 1 2 1 2 1 Z " fill="#060606" transform="translate(98,27)"/>
<path d="M0 0 C2 1 2 1 2 1 Z " fill="#080604" transform="translate(277,23)"/>
<path d="M0 0 C2 1 2 1 2 1 Z " fill="#050403" transform="translate(120,16)"/>
<path d="M0 0 C2 1 2 1 2 1 Z " fill="#060406" transform="translate(260,15)"/>
<path d="M0 0 C2 1 2 1 2 1 Z " fill="#010000" transform="translate(255,13)"/>
<path d="M0 0 C2 1 2 1 2 1 Z " fill="#260813" transform="translate(133,11)"/>
<path d="" fill="#000000" transform="translate(0,0)"/>
<path d="" fill="#000000" transform="translate(0,0)"/>
<path d="" fill="#070709" transform="translate(0,0)"/>
<path d="" fill="#030306" transform="translate(0,0)"/>
<path d="" fill="#050301" transform="translate(0,0)"/>
<path d="" fill="#535255" transform="translate(0,0)"/>
<path d="" fill="#54564A" transform="translate(0,0)"/>
<path d="" fill="#060508" transform="translate(0,0)"/>
<path d="" fill="#393B2D" transform="translate(0,0)"/>
<path d="" fill="#302F32" transform="translate(0,0)"/>
<path d="" fill="#393A35" transform="translate(0,0)"/>
<path d="" fill="#2B2B2B" transform="translate(0,0)"/>
<path d="" fill="#070508" transform="translate(0,0)"/>
<path d="" fill="#1A1A1A" transform="translate(0,0)"/>
<path d="" fill="#555356" transform="translate(0,0)"/>
<path d="" fill="#404040" transform="translate(0,0)"/>
<path d="" fill="#4C494D" transform="translate(0,0)"/>
<path d="" fill="#444444" transform="translate(0,0)"/>
<path d="" fill="#000000" transform="translate(0,0)"/>
<path d="" fill="#3A3A3A" transform="translate(0,0)"/>
<path d="" fill="#000002" transform="translate(0,0)"/>
<path d="" fill="#000000" transform="translate(0,0)"/>
<path d="" fill="#100D10" transform="translate(0,0)"/>
<path d="" fill="#504E4A" transform="translate(0,0)"/>
<path d="" fill="#000001" transform="translate(0,0)"/>
<path d="" fill="#383927" transform="translate(0,0)"/>
<path d="" fill="#3D3A3D" transform="translate(0,0)"/>
<path d="" fill="#141407" transform="translate(0,0)"/>
<path d="" fill="#0C090C" transform="translate(0,0)"/>
<path d="" fill="#080902" transform="translate(0,0)"/>
<path d="" fill="#090609" transform="translate(0,0)"/>
<path d="" fill="#050700" transform="translate(0,0)"/>
<path d="" fill="#4E4E50" transform="translate(0,0)"/>
<path d="" fill="#3E3F36" transform="translate(0,0)"/>
<path d="" fill="#4F4F51" transform="translate(0,0)"/>
<path d="" fill="#4E4E4C" transform="translate(0,0)"/>
<path d="" fill="#020202" transform="translate(0,0)"/>
<path d="" fill="#000000" transform="translate(0,0)"/>
<path d="" fill="#000000" transform="translate(0,0)"/>
<path d="" fill="#0C0C0C" transform="translate(0,0)"/>
<path d="" fill="#3B3B3B" transform="translate(0,0)"/>
<path d="" fill="#050505" transform="translate(0,0)"/>
<path d="" fill="#000000" transform="translate(0,0)"/>
<path d="" fill="#000000" transform="translate(0,0)"/>
<path d="" fill="#7B7D7D" transform="translate(0,0)"/>
<path d="" fill="#484848" transform="translate(0,0)"/>
<path d="" fill="#000000" transform="translate(0,0)"/>
<path d="" fill="#000000" transform="translate(0,0)"/>
<path d="" fill="#000000" transform="translate(0,0)"/>
<path d="" fill="#000000" transform="translate(0,0)"/>
<path d="" fill="#0C0A0A" transform="translate(0,0)"/>
<path d="" fill="#0A0708" transform="translate(0,0)"/>
<path d="" fill="#050303" transform="translate(0,0)"/>
<path d="" fill="#090607" transform="translate(0,0)"/>
<path d="" fill="#060405" transform="translate(0,0)"/>
<path d="" fill="#1A1818" transform="translate(0,0)"/>
<path d="" fill="#030303" transform="translate(0,0)"/>
<path d="" fill="#110E0F" transform="translate(0,0)"/>
<path d="" fill="#4C4C4C" transform="translate(0,0)"/>
<path d="" fill="#040200" transform="translate(0,0)"/>
<path d="" fill="#030303" transform="translate(0,0)"/>
<path d="" fill="#000000" transform="translate(0,0)"/>
<path d="" fill="#020202" transform="translate(0,0)"/>
<path d="" fill="#000000" transform="translate(0,0)"/>
<path d="" fill="#000001" transform="translate(0,0)"/>
<path d="" fill="#000000" transform="translate(0,0)"/>
<path d="" fill="#171013" transform="translate(0,0)"/>
<path d="" fill="#000000" transform="translate(0,0)"/>
<path d="" fill="#000000" transform="translate(0,0)"/>
<path d="" fill="#010302" transform="translate(0,0)"/>
<path d="" fill="#030001" transform="translate(0,0)"/>
<path d="" fill="#000000" transform="translate(0,0)"/>
<path d="" fill="#151515" transform="translate(0,0)"/>
<path d="" fill="#0C0C0C" transform="translate(0,0)"/>
<path d="" fill="#0E0E0E" transform="translate(0,0)"/>
<path d="" fill="#060508" transform="translate(0,0)"/>
<path d="" fill="#000000" transform="translate(0,0)"/>
<path d="" fill="#727D38" transform="translate(0,0)"/>
<path d="" fill="#010500" transform="translate(0,0)"/>
<path d="" fill="#000000" transform="translate(0,0)"/>
<path d="" fill="#000000" transform="translate(0,0)"/>
<path d="" fill="#000000" transform="translate(0,0)"/>
<path d="" fill="#393D25" transform="translate(0,0)"/>
<path d="" fill="#030401" transform="translate(0,0)"/>
<path d="" fill="#000000" transform="translate(0,0)"/>
<path d="" fill="#000000" transform="translate(0,0)"/>
<path d="" fill="#070707" transform="translate(0,0)"/>
<path d="" fill="#060606" transform="translate(0,0)"/>
<path d="" fill="#010101" transform="translate(0,0)"/>
<path d="" fill="#050505" transform="translate(0,0)"/>
<path d="" fill="#000000" transform="translate(0,0)"/>
<path d="" fill="#000000" transform="translate(0,0)"/>
<path d="" fill="#000000" transform="translate(0,0)"/>
<path d="" fill="#4B4B4B" transform="translate(0,0)"/>
<path d="" fill="#000000" transform="translate(0,0)"/>
<path d="" fill="#000000" transform="translate(0,0)"/>
<path d="" fill="#565752" transform="translate(0,0)"/>
<path d="" fill="#000000" transform="translate(0,0)"/>
<path d="" fill="#6F6E73" transform="translate(0,0)"/>
<path d="" fill="#474747" transform="translate(0,0)"/>
<path d="" fill="#545356" transform="translate(0,0)"/>
<path d="" fill="#2D2D2D" transform="translate(0,0)"/>
<path d="" fill="#383838" transform="translate(0,0)"/>
<path d="" fill="#363636" transform="translate(0,0)"/>
<path d="" fill="#555557" transform="translate(0,0)"/>
<path d="" fill="#333333" transform="translate(0,0)"/>
<path d="" fill="#000002" transform="translate(0,0)"/>
<path d="" fill="#333333" transform="translate(0,0)"/>
<path d="" fill="#000000" transform="translate(0,0)"/>
<path d="" fill="#070707" transform="translate(0,0)"/>
<path d="" fill="#0F0F0F" transform="translate(0,0)"/>
<path d="" fill="#070707" transform="translate(0,0)"/>
<path d="" fill="#090909" transform="translate(0,0)"/>
<path d="" fill="#000000" transform="translate(0,0)"/>
<path d="" fill="#4E4E4E" transform="translate(0,0)"/>
<path d="" fill="#020202" transform="translate(0,0)"/>
<path d="" fill="#000000" transform="translate(0,0)"/>
<path d="" fill="#141414" transform="translate(0,0)"/>
<path d="" fill="#30302E" transform="translate(0,0)"/>
<path d="" fill="#000000" transform="translate(0,0)"/>
<path d="" fill="#030800" transform="translate(0,0)"/>
<path d="" fill="#4F4F4F" transform="translate(0,0)"/>
<path d="" fill="#475113" transform="translate(0,0)"/>
<path d="" fill="#404040" transform="translate(0,0)"/>
<path d="" fill="#000000" transform="translate(0,0)"/>
<path d="" fill="#525152" transform="translate(0,0)"/>
</svg>
