<?xml version="1.0" standalone="no"?>
<!DOCTYPE svg PUBLIC "-//W3C//DTD SVG 20010904//EN"
 "http://www.w3.org/TR/2001/REC-SVG-20010904/DTD/svg10.dtd">
<svg version="1.0" xmlns="http://www.w3.org/2000/svg"
 width="150.000000pt" height="150.000000pt" viewBox="0 0 150.000000 150.000000"
 preserveAspectRatio="xMidYMid meet">

<g transform="translate(0.000000,150.000000) scale(0.100000,-0.100000)"
fill="#000000" stroke="none">
<path d="M607 1383 c-2 -5 -7 -20 -11 -35 -8 -34 21 -56 40 -30 7 10 16 13 21
8 4 -5 2 -11 -4 -13 -21 -8 -15 -20 13 -27 16 -4 31 -2 38 5 8 9 8 10 -1 5 -8
-4 -13 -1 -13 8 0 20 9 20 32 -1 21 -19 46 -4 32 19 -5 7 -7 21 -6 31 2 9 -2
17 -8 17 -6 0 -9 -4 -6 -9 11 -17 -22 -33 -54 -26 -27 6 -35 15 -31 38 1 5 -3
6 -9 2 -5 -3 -10 -1 -10 4 0 13 -17 15 -23 4z"/>
<path d="M922 1314 c-7 -13 -3 -22 18 -41 35 -29 64 -31 55 -4 -3 11 -1 22 5
26 6 4 11 1 9 -6 -4 -31 2 -49 15 -49 22 0 25 22 7 54 -22 39 -39 43 -51 12
-12 -32 -21 -34 -17 -4 3 28 -27 36 -41 12z"/>
<path d="M285 1215 c-5 -2 -31 -6 -57 -10 -44 -6 -48 -9 -48 -33 0 -39 19
-102 31 -102 6 0 7 9 4 21 -7 20 16 48 40 49 6 0 3 -5 -5 -10 -26 -17 17 -12
50 5 l30 16 0 -33 c0 -24 3 -29 11 -21 8 8 9 30 5 67 -7 49 -10 56 -29 55 -12
0 -26 -2 -32 -4z m39 -24 c3 -5 -1 -11 -9 -14 -9 -4 -12 -1 -8 9 6 16 10 17
17 5z"/>
<path d="M965 1200 c-3 -5 1 -10 9 -10 8 0 18 5 21 10 3 6 -1 10 -9 10 -8 0
-18 -4 -21 -10z"/>
<path d="M430 1148 c-5 -13 -15 -50 -21 -83 -15 -71 -13 -64 -26 -95 -19 -47
-48 -149 -57 -202 -4 -20 -13 -50 -21 -65 -8 -15 -12 -35 -9 -45 2 -9 0 -19
-6 -23 -6 -3 -8 -10 -5 -15 12 -20 20 -193 10 -232 -6 -22 -4 -28 9 -28 10 0
16 -9 16 -25 0 -14 -4 -25 -8 -25 -8 0 -32 -43 -32 -56 0 -2 13 2 28 10 19 10
33 11 44 5 15 -8 16 -4 12 33 -4 30 -1 49 10 63 16 20 16 20 31 1 8 -11 12
-29 9 -43 -4 -15 -2 -24 7 -25 25 -2 34 -5 62 -16 16 -7 34 -12 41 -12 8 0 19
-6 26 -14 8 -11 18 -12 33 -6 12 4 48 18 80 30 31 12 57 26 57 30 0 5 15 17
33 28 24 15 56 21 137 24 100 5 107 4 137 -19 26 -20 31 -30 29 -56 -6 -51
-18 -97 -26 -97 -7 0 -21 -49 -19 -66 0 -4 -4 -10 -10 -13 -7 -4 -8 -26 -4
-59 l6 -52 216 2 c208 3 216 4 216 23 0 13 -6 19 -18 18 -10 0 -26 11 -35 26
-9 15 -21 26 -27 24 -5 -1 -10 14 -10 34 0 31 -4 38 -24 43 -21 5 -22 7 -7 19
9 7 25 11 36 8 11 -3 20 -1 20 4 0 5 -7 9 -15 9 -8 0 -15 9 -15 20 0 32 -21
68 -43 74 -17 4 -18 8 -8 20 7 9 11 21 8 28 -4 8 -6 7 -6 -4 -1 -25 -16 -22
-35 6 -10 17 -14 35 -9 57 4 24 2 34 -11 41 -11 6 -14 16 -10 34 3 13 1 30 -5
37 -5 7 -13 40 -17 73 -8 70 -8 68 5 119 13 51 14 68 1 60 -6 -4 -10 8 -10 30
0 28 -5 38 -25 47 -14 6 -26 17 -26 25 -2 21 -4 27 -10 38 -4 6 -7 49 -7 97 0
47 -3 91 -7 97 -12 20 -57 11 -102 -20 l-46 -30 -46 22 c-25 11 -53 27 -61 34
-17 15 -115 31 -107 18 3 -5 -31 -14 -75 -21 -44 -6 -86 -16 -93 -22 -9 -7
-23 0 -51 26 -61 57 -99 67 -114 32z m74 -32 c13 -12 31 -37 39 -53 14 -27 14
-32 1 -52 -21 -30 -40 -26 -53 12 -9 24 -14 28 -20 18 -5 -7 -5 -26 -1 -42 6
-22 3 -35 -16 -60 -13 -18 -25 -31 -25 -28 -8 22 -5 151 3 174 23 61 37 67 72
31z m606 -52 c15 -38 11 -75 -10 -114 -21 -38 -23 -36 -20 27 l1 42 -35 -11
c-20 -6 -39 -8 -43 -5 -15 16 58 86 90 87 4 0 12 -12 17 -26z m-407 -116 c7
-23 -17 -78 -34 -78 -6 0 -19 10 -29 22 -17 21 -18 21 -44 5 -37 -25 -32 -11
12 33 43 45 86 53 95 18z m172 -43 c0 -27 -3 -30 -30 -30 -21 0 -31 5 -33 18
-6 33 6 49 35 45 24 -3 28 -8 28 -33z m-290 -55 c10 -11 24 -20 31 -20 7 0 14
-5 16 -12 3 -7 13 -5 31 7 16 10 27 13 27 6 0 -6 8 -11 18 -12 13 0 12 -2 -5
-9 -37 -15 -46 -45 -32 -101 7 -27 17 -49 21 -49 5 0 6 -4 3 -10 -12 -20 17
-35 61 -31 42 3 59 21 34 36 -6 4 -4 17 5 35 19 37 19 65 0 94 -14 21 -14 24
1 30 9 4 24 0 33 -7 21 -18 81 -38 92 -31 5 3 9 14 9 24 0 10 5 20 12 22 23 8
98 -9 118 -27 28 -26 43 -89 35 -153 -6 -49 -12 -59 -66 -113 -41 -39 -74 -62
-102 -71 -23 -6 -47 -15 -53 -19 -18 -14 -280 -23 -288 -10 -4 6 -18 11 -30
11 -31 0 -141 112 -167 169 -10 24 -19 59 -19 77 0 82 68 182 115 170 13 -3
34 -2 47 3 32 13 33 13 53 -9z"/>
<path d="M846 641 c-3 -5 0 -11 8 -14 15 -6 26 1 26 15 0 11 -27 10 -34 -1z"/>
<path d="M665 1130 c-3 -5 1 -10 9 -10 9 0 16 5 16 10 0 6 -4 10 -9 10 -6 0
-13 -4 -16 -10z"/>
<path d="M1247 1094 c-3 -18 6 -32 40 -63 25 -22 42 -44 38 -50 -10 -18 -55
-13 -86 10 -20 14 -27 16 -23 6 5 -14 25 -24 76 -41 26 -8 80 41 73 68 -2 11
-2 15 1 8 3 -6 10 -10 15 -6 14 8 11 24 -5 24 -20 0 -40 27 -24 32 8 3 4 9
-11 17 -19 11 -22 11 -15 -1 6 -10 4 -10 -9 1 -10 8 -28 15 -41 16 -18 2 -25
-3 -29 -21z"/>
<path d="M18 955 c-17 -22 -26 -105 -12 -105 3 0 23 19 44 43 l39 42 -21 23
c-26 27 -29 27 -50 -3z m37 5 c3 -5 1 -10 -4 -10 -6 0 -11 5 -11 10 0 6 2 10
4 10 3 0 8 -4 11 -10z"/>
<path d="M106 907 c3 -10 9 -15 12 -12 3 3 0 11 -7 18 -10 9 -11 8 -5 -6z"/>
<path d="M1377 829 c-6 -52 -3 -69 13 -69 4 0 6 9 3 20 -3 11 -1 20 5 20 23 0
42 -13 42 -29 1 -14 2 -14 14 2 8 10 17 18 20 18 20 -3 24 3 24 39 l1 40 -44
0 c-24 0 -50 2 -58 6 -11 4 -16 -7 -20 -47z m103 1 c0 -5 -5 -10 -11 -10 -5 0
-7 5 -4 10 3 6 8 10 11 10 2 0 4 -4 4 -10z"/>
<path d="M1365 610 c-37 -5 -40 -7 -43 -40 -3 -33 0 -37 33 -48 19 -8 35 -20
35 -28 0 -19 14 -18 33 4 13 14 14 21 5 30 -9 9 -8 12 5 12 9 0 17 -4 17 -10
0 -5 11 -10 25 -10 28 0 34 24 9 34 -13 5 -14 9 -5 20 8 10 9 16 1 21 -5 3
-10 -1 -10 -9 0 -36 -54 -39 -97 -6 -22 17 -21 17 31 16 30 0 52 2 50 5 -6 11
-46 15 -89 9z"/>
<path d="M75 570 c-11 -4 -28 -17 -39 -29 -10 -11 -22 -19 -25 -17 -4 3 -5
-13 -3 -34 4 -39 4 -39 24 -20 12 11 18 26 15 34 -10 26 1 18 17 -11 15 -28
16 -28 22 -5 4 15 14 22 30 22 18 0 24 -6 25 -22 1 -19 2 -19 6 -5 7 26 -5 67
-19 67 -6 0 -16 6 -22 14 -7 9 -18 11 -31 6z"/>
<path d="M1320 490 c0 -18 19 -40 35 -40 7 0 6 3 -1 8 -6 4 -16 16 -22 27 -8
15 -11 16 -12 5z"/>
<path d="M1230 470 c0 -5 5 -10 11 -10 5 0 7 5 4 10 -3 6 -8 10 -11 10 -2 0
-4 -4 -4 -10z"/>
<path d="M1314 409 c3 -8 9 -22 12 -31 7 -20 13 -22 32 -10 8 6 3 15 -19 31
-17 13 -29 17 -25 10z"/>
<path d="M1382 135 c0 -16 4 -41 8 -55 7 -23 8 -22 8 10 0 19 -3 44 -8 55 -7
17 -9 15 -8 -10z"/>
<path d="M520 111 c-32 -27 -34 -31 -25 -67 l10 -39 211 -3 c208 -2 212 -2
217 19 3 11 3 18 0 15 -4 -3 -18 1 -32 11 -14 9 -42 20 -61 24 -19 5 -75 22
-125 39 -113 38 -149 38 -195 1z"/>
<path d="M241 34 c0 -11 3 -14 6 -6 3 7 2 16 -1 19 -3 4 -6 -2 -5 -13z"/>
<path d="M423 23 c-18 -7 -16 -23 2 -23 8 0 15 7 15 15 0 8 -1 15 -2 14 -2 0
-9 -3 -15 -6z"/>
</g>
</svg>
