<svg xmlns="http://www.w3.org/2000/svg" xmlns:xlink="http://www.w3.org/1999/xlink" id="svg" width="400" height="400" viewBox="0, 0, 400,400"><g id="svgg"><path id="path0" d="M262.333 77.121 C 258.098 77.413,252.131 78.670,249.382 79.848 C 248.989 80.017,248.667 80.124,248.667 80.086 C 248.667 79.690,241.139 83.337,240.370 84.106 C 240.245 84.231,240.060 84.333,239.958 84.333 C 239.698 84.333,237.218 86.022,236.417 86.745 C 236.050 87.076,235.414 87.587,235.004 87.881 C 234.179 88.473,229.286 93.292,228.707 94.083 C 228.506 94.358,227.852 95.209,227.254 95.974 C 226.656 96.738,226.167 97.418,226.167 97.484 C 226.167 97.550,226.029 97.751,225.862 97.931 C 225.694 98.111,224.859 99.457,224.006 100.921 C 223.154 102.385,222.245 103.921,221.987 104.333 C 221.214 105.570,220.254 107.243,220.252 107.357 C 220.251 107.416,219.926 107.978,219.530 108.607 C 218.604 110.076,217.255 112.390,216.336 114.083 C 215.937 114.817,215.151 116.167,214.587 117.083 C 213.300 119.177,212.532 120.496,211.919 121.667 C 211.655 122.171,211.158 123.033,210.814 123.583 C 209.702 125.360,208.228 127.902,207.987 128.458 C 207.858 128.756,207.695 129.000,207.626 129.000 C 207.557 129.000,207.500 129.073,207.500 129.163 C 207.500 129.252,206.781 130.508,205.903 131.954 C 205.024 133.400,204.278 134.713,204.246 134.872 C 204.214 135.031,203.969 135.481,203.701 135.872 C 202.395 137.786,199.833 142.297,199.833 142.684 C 199.833 142.877,200.733 144.469,207.121 155.583 C 213.300 166.333,215.600 170.340,219.751 177.583 C 222.063 181.617,224.839 186.454,225.921 188.333 C 227.003 190.213,228.258 192.425,228.711 193.250 C 229.164 194.075,230.151 195.800,230.905 197.083 C 231.659 198.367,232.635 200.092,233.074 200.917 C 233.513 201.742,234.138 202.850,234.463 203.379 L 235.053 204.342 234.441 205.963 C 234.105 206.854,233.830 207.637,233.831 207.703 C 233.832 207.769,233.657 208.219,233.441 208.703 C 233.031 209.620,230.492 215.999,229.042 219.750 C 227.898 222.711,225.826 228.009,225.653 228.417 C 225.575 228.600,225.055 229.912,224.497 231.333 C 223.939 232.754,223.381 234.142,223.256 234.417 C 222.762 235.507,221.833 237.909,221.833 238.097 C 221.833 238.207,221.493 239.111,221.076 240.106 C 220.660 241.102,219.717 243.454,218.981 245.333 C 218.245 247.213,217.151 249.987,216.551 251.500 C 215.465 254.239,214.158 257.606,213.380 259.667 C 213.156 260.262,212.870 260.975,212.744 261.250 C 212.619 261.525,212.059 262.912,211.500 264.333 C 210.940 265.754,210.337 267.235,210.158 267.623 C 209.979 268.012,209.833 268.400,209.833 268.485 C 209.833 268.667,208.172 272.971,207.694 274.030 C 207.405 274.668,206.448 277.152,205.457 279.833 C 205.270 280.337,205.016 280.976,204.892 281.252 C 204.383 282.384,202.277 287.677,201.842 288.917 C 201.584 289.650,201.020 291.112,200.588 292.167 C 199.172 295.623,198.146 298.228,197.666 299.583 C 197.406 300.317,196.620 302.304,195.918 304.000 C 195.216 305.696,194.358 307.871,194.010 308.833 C 193.663 309.796,192.663 312.346,191.788 314.500 C 190.913 316.654,190.048 318.867,189.865 319.417 C 189.682 319.967,189.339 320.848,189.102 321.375 L 188.671 322.333 184.127 322.357 C 181.628 322.370,176.358 322.435,172.417 322.502 C 168.475 322.568,179.950 322.594,197.917 322.561 C 215.883 322.527,233.778 322.453,237.682 322.396 L 244.782 322.294 245.082 321.439 C 245.247 320.968,245.439 320.508,245.507 320.417 C 245.576 320.325,245.707 319.987,245.798 319.667 C 245.985 319.007,247.644 314.734,248.139 313.637 C 248.318 313.241,248.776 312.092,249.157 311.083 C 250.095 308.602,252.803 301.757,253.203 300.857 C 253.380 300.457,253.705 299.594,253.925 298.938 C 254.145 298.283,254.709 296.810,255.179 295.665 C 256.834 291.626,257.703 289.408,257.952 288.583 C 258.091 288.125,258.345 287.450,258.517 287.083 C 259.023 286.005,261.149 280.702,261.683 279.187 C 261.954 278.419,262.896 276.019,263.776 273.854 C 264.656 271.688,265.586 269.317,265.842 268.583 C 266.325 267.207,268.272 262.339,268.387 262.224 C 268.466 262.145,269.656 264.003,271.499 267.083 C 288.452 295.425,298.024 306.433,312.429 314.153 C 316.641 316.411,325.728 319.957,326.337 319.581 C 326.427 319.526,326.500 319.568,326.500 319.675 C 326.500 319.782,326.610 319.827,326.745 319.775 C 326.879 319.723,327.032 319.750,327.083 319.833 C 327.135 319.917,327.280 319.946,327.405 319.898 C 327.530 319.850,327.680 319.887,327.738 319.981 C 327.797 320.075,327.947 320.113,328.072 320.065 C 328.197 320.017,328.347 320.054,328.405 320.148 C 328.463 320.242,328.613 320.279,328.738 320.231 C 328.864 320.183,329.011 320.217,329.067 320.306 C 329.122 320.396,329.317 320.430,329.500 320.382 C 329.695 320.331,329.833 320.377,329.833 320.492 C 329.833 320.610,329.961 320.649,330.153 320.588 C 330.328 320.532,330.522 320.568,330.583 320.667 C 330.645 320.766,330.838 320.801,331.014 320.746 C 331.201 320.686,331.333 320.723,331.333 320.833 C 331.333 320.944,331.466 320.980,331.653 320.921 C 331.828 320.865,332.020 320.898,332.080 320.994 C 332.139 321.090,332.370 321.122,332.594 321.066 C 332.858 321.000,333.000 321.035,333.000 321.167 C 333.000 321.298,333.142 321.334,333.406 321.267 C 333.630 321.211,333.861 321.243,333.919 321.338 C 333.983 321.440,334.268 321.465,334.620 321.399 C 335.045 321.319,335.181 321.341,335.098 321.477 C 335.028 321.589,335.091 321.667,335.250 321.667 C 335.398 321.667,335.481 321.605,335.435 321.529 C 335.388 321.453,335.777 321.450,336.300 321.522 C 345.897 322.843,356.458 322.930,361.917 321.733 C 367.144 320.587,371.581 318.969,375.083 316.933 C 375.633 316.614,376.458 316.154,376.917 315.913 C 377.375 315.671,377.868 315.367,378.013 315.237 C 378.158 315.107,378.330 315.000,378.395 315.000 C 378.510 315.000,379.498 314.345,379.667 314.157 C 379.712 314.106,380.387 313.583,381.167 312.994 C 383.357 311.339,383.922 310.846,386.253 308.558 C 388.433 306.419,391.105 303.102,392.417 300.908 C 392.783 300.294,393.161 299.708,393.256 299.605 C 393.811 299.002,395.332 296.068,396.162 294.000 C 396.548 293.037,396.975 292.004,397.109 291.703 C 397.867 290.011,399.112 285.428,399.584 282.593 C 400.420 277.581,399.991 268.349,398.685 263.241 C 398.161 261.191,396.885 257.420,396.363 256.381 C 396.188 256.034,395.911 255.338,395.746 254.833 C 395.402 253.778,393.190 249.464,392.841 249.167 C 392.787 249.121,392.651 248.896,392.538 248.667 C 392.177 247.936,391.153 246.123,390.372 244.833 C 389.956 244.146,389.198 242.833,388.689 241.917 C 388.180 241.000,387.704 240.225,387.632 240.194 C 387.559 240.164,387.500 240.059,387.500 239.962 C 387.500 239.865,386.994 238.931,386.375 237.888 C 384.379 234.521,383.667 233.286,383.667 233.194 C 383.667 233.106,382.657 231.356,381.920 230.167 C 380.810 228.375,380.366 227.602,379.646 226.209 C 379.209 225.362,378.632 224.349,378.365 223.959 C 378.099 223.569,377.746 222.987,377.583 222.667 C 377.420 222.346,376.962 221.585,376.566 220.976 C 376.170 220.368,375.824 219.770,375.798 219.649 C 375.753 219.441,375.463 218.931,373.446 215.500 C 372.987 214.721,372.150 213.258,371.586 212.250 C 370.027 209.467,369.837 209.144,369.290 208.333 C 369.011 207.921,368.431 206.908,368.001 206.083 C 367.134 204.420,365.989 202.438,364.726 200.417 C 364.269 199.683,363.717 198.708,363.502 198.250 C 363.286 197.792,362.874 197.042,362.587 196.583 C 361.668 195.115,360.304 192.761,359.016 190.418 C 358.612 189.684,358.040 188.708,357.744 188.250 C 357.073 187.210,356.582 186.365,355.908 185.083 C 355.619 184.533,355.033 183.496,354.608 182.778 C 354.182 182.060,353.833 181.443,353.833 181.408 C 353.833 181.373,353.508 180.835,353.110 180.214 C 352.712 179.592,352.207 178.746,351.988 178.333 C 351.306 177.051,349.917 174.640,349.107 173.333 C 348.681 172.646,348.209 171.802,348.058 171.458 C 347.907 171.115,347.715 170.833,347.632 170.833 C 347.548 170.833,347.515 170.777,347.558 170.708 C 347.601 170.639,347.384 170.170,347.075 169.666 C 346.141 168.138,344.614 165.528,344.069 164.527 C 343.125 162.794,342.623 161.923,342.085 161.083 C 341.563 160.271,341.361 159.920,339.921 157.333 C 338.152 154.156,337.234 152.585,336.902 152.167 C 336.793 152.029,336.312 151.167,335.833 150.250 C 335.355 149.333,334.870 148.471,334.755 148.333 C 334.532 148.063,332.960 145.349,331.977 143.535 C 331.644 142.920,331.119 141.990,330.811 141.469 C 328.777 138.031,328.048 136.771,327.452 135.667 C 327.081 134.979,326.152 133.380,325.389 132.113 C 324.625 130.846,324.000 129.775,324.000 129.733 C 324.000 129.615,321.493 125.284,321.261 125.000 C 321.018 124.703,320.254 123.384,319.716 122.333 C 319.505 121.921,319.262 121.471,319.177 121.333 C 319.091 121.196,318.483 120.146,317.826 119.000 C 317.168 117.854,316.497 116.726,316.335 116.492 C 316.172 116.258,315.838 115.668,315.591 115.181 C 315.344 114.694,314.688 113.535,314.133 112.606 C 312.885 110.514,312.707 110.204,311.926 108.750 C 311.582 108.108,311.027 107.133,310.694 106.583 C 310.360 106.033,309.974 105.382,309.835 105.137 C 309.697 104.891,309.266 104.167,308.877 103.528 C 308.489 102.889,307.922 101.890,307.618 101.308 C 307.061 100.243,304.993 97.132,304.293 96.306 C 303.456 95.318,303.333 95.159,303.333 95.062 C 303.333 94.644,297.809 89.071,296.500 88.168 C 296.179 87.947,295.804 87.646,295.667 87.499 C 295.529 87.353,295.117 87.016,294.750 86.751 C 294.383 86.486,293.708 85.994,293.250 85.656 C 291.219 84.161,284.325 80.533,283.015 80.270 C 282.869 80.241,282.637 80.174,282.500 80.122 C 276.501 77.836,268.726 76.680,262.333 77.121 M341.875 322.448 C 342.035 322.490,342.298 322.490,342.458 322.448 C 342.619 322.406,342.488 322.372,342.167 322.372 C 341.846 322.372,341.715 322.406,341.875 322.448 M344.625 322.622 C 345.015 322.657,345.652 322.657,346.042 322.622 C 346.431 322.587,346.113 322.558,345.333 322.558 C 344.554 322.558,344.235 322.587,344.625 322.622 " stroke="none" fill="#3254ab" fill-rule="evenodd"></path><path id="path1" d="M200.000 143.384 C 200.000 143.443,200.161 143.822,200.357 144.226 L 200.714 144.960 200.116 146.355 C 199.497 147.800,198.519 150.300,198.005 151.750 C 197.663 152.718,195.820 157.337,195.363 158.375 C 195.004 159.190,194.275 161.090,193.493 163.250 C 193.195 164.075,192.749 165.200,192.503 165.750 C 192.258 166.300,191.508 168.175,190.838 169.917 C 190.168 171.658,188.805 175.104,187.810 177.574 C 186.814 180.043,186.000 182.150,186.000 182.254 C 186.000 182.359,185.693 183.189,185.317 184.097 C 184.942 185.006,184.194 186.856,183.655 188.209 C 183.116 189.561,182.523 191.001,182.337 191.408 C 182.152 191.815,182.000 192.225,182.000 192.318 C 182.000 192.412,181.434 193.897,180.743 195.619 C 180.051 197.341,179.142 199.650,178.722 200.750 C 178.302 201.850,177.078 204.963,176.002 207.667 C 174.926 210.371,173.594 213.746,173.041 215.167 C 170.733 221.099,169.880 223.270,168.490 226.750 C 167.685 228.767,166.807 230.942,166.540 231.583 C 166.274 232.225,165.999 232.975,165.931 233.250 C 165.862 233.525,165.014 235.700,164.046 238.083 C 163.077 240.467,162.150 242.829,161.985 243.333 C 161.820 243.838,161.038 245.825,160.247 247.750 C 159.456 249.675,158.524 252.037,158.175 253.000 C 157.480 254.918,156.614 257.135,156.254 257.917 C 155.840 258.817,154.000 263.544,154.000 263.707 C 154.000 263.795,153.888 264.103,153.752 264.391 C 153.465 264.998,151.617 269.604,150.633 272.167 C 150.263 273.129,149.590 274.854,149.137 276.000 C 148.685 277.146,147.641 279.808,146.818 281.917 C 145.995 284.025,144.577 287.625,143.668 289.917 C 142.758 292.208,141.812 294.646,141.565 295.333 C 141.319 296.021,140.979 296.883,140.811 297.250 C 140.491 297.945,138.438 303.046,138.127 303.917 C 138.028 304.192,137.694 305.081,137.384 305.892 L 136.820 307.368 137.229 307.892 C 143.081 315.409,157.185 322.647,165.750 322.529 C 166.483 322.519,171.945 322.462,177.886 322.402 L 188.689 322.293 189.111 321.355 C 189.343 320.839,189.682 319.967,189.865 319.417 C 190.048 318.867,190.913 316.654,191.788 314.500 C 192.663 312.346,193.663 309.796,194.010 308.833 C 194.358 307.871,195.216 305.696,195.918 304.000 C 196.620 302.304,197.406 300.317,197.666 299.583 C 198.146 298.228,199.172 295.623,200.588 292.167 C 201.020 291.112,201.584 289.650,201.842 288.917 C 202.277 287.677,204.383 282.384,204.892 281.252 C 205.016 280.976,205.270 280.337,205.457 279.833 C 206.448 277.152,207.405 274.668,207.694 274.030 C 208.172 272.971,209.833 268.667,209.833 268.485 C 209.833 268.400,209.979 268.012,210.158 267.623 C 210.337 267.235,210.940 265.754,211.500 264.333 C 212.059 262.912,212.619 261.525,212.744 261.250 C 212.870 260.975,213.156 260.262,213.380 259.667 C 214.158 257.606,215.465 254.239,216.551 251.500 C 217.151 249.987,218.245 247.213,218.981 245.333 C 219.717 243.454,220.660 241.102,221.076 240.106 C 221.493 239.111,221.833 238.207,221.833 238.097 C 221.833 237.909,222.762 235.507,223.256 234.417 C 223.381 234.142,223.939 232.754,224.497 231.333 C 225.055 229.912,225.575 228.600,225.653 228.417 C 225.826 228.009,227.898 222.711,229.042 219.750 C 230.492 215.999,233.031 209.620,233.441 208.703 C 233.657 208.219,233.832 207.769,233.831 207.703 C 233.830 207.637,234.105 206.854,234.441 205.963 L 235.053 204.342 234.463 203.379 C 234.138 202.850,233.513 201.742,233.074 200.917 C 232.635 200.092,231.659 198.367,230.905 197.083 C 230.151 195.800,229.164 194.075,228.711 193.250 C 228.258 192.425,227.003 190.213,225.921 188.333 C 224.839 186.454,222.063 181.617,219.751 177.583 C 215.295 169.809,214.057 167.652,207.744 156.667 C 205.557 152.862,202.952 148.325,201.953 146.583 C 200.127 143.397,200.000 143.189,200.000 143.384 M335.454 321.506 C 335.582 321.620,338.914 322.071,341.000 322.256 C 341.702 322.319,341.995 322.298,341.833 322.197 C 341.696 322.111,340.908 321.990,340.083 321.927 C 339.258 321.864,337.850 321.717,336.954 321.602 C 336.058 321.486,335.383 321.443,335.454 321.506 M342.587 322.308 C 342.677 322.391,343.950 322.495,345.417 322.538 C 348.452 322.628,347.854 322.433,344.587 322.267 C 343.294 322.201,342.490 322.218,342.587 322.308 " stroke="none" fill="#1c63c8" fill-rule="evenodd"></path><path id="path2" d="M267.339 264.708 C 266.773 266.106,266.100 267.850,265.843 268.583 C 265.586 269.317,264.656 271.688,263.776 273.854 C 262.896 276.019,261.954 278.419,261.683 279.187 C 261.149 280.702,259.023 286.005,258.517 287.083 C 258.345 287.450,258.091 288.125,257.952 288.583 C 257.703 289.408,256.834 291.626,255.179 295.665 C 254.709 296.810,254.145 298.283,253.925 298.938 C 253.705 299.594,253.380 300.457,253.203 300.857 C 252.803 301.757,250.095 308.602,249.157 311.083 C 248.776 312.092,248.318 313.241,248.139 313.637 C 247.644 314.734,245.985 319.007,245.798 319.667 C 245.707 319.987,245.576 320.325,245.507 320.417 C 245.439 320.508,245.247 320.968,245.082 321.439 L 244.781 322.295 237.599 322.394 C 231.494 322.478,210.386 322.576,173.417 322.691 C 168.833 322.706,165.571 322.772,166.167 322.839 C 167.759 323.018,352.099 323.030,351.909 322.852 C 351.821 322.770,349.613 322.664,347.000 322.616 C 329.462 322.294,313.778 316.923,302.083 307.234 C 292.150 299.004,284.899 289.485,271.499 267.083 C 270.021 264.613,268.485 262.167,268.411 262.167 C 268.387 262.167,267.904 263.310,267.339 264.708 " stroke="none" fill="#244994" fill-rule="evenodd"></path><path id="path3" d="M129.417 77.186 C 128.775 77.259,128.025 77.356,127.750 77.400 C 127.475 77.445,126.725 77.559,126.083 77.653 C 124.315 77.913,120.416 78.921,118.917 79.506 C 118.183 79.792,117.452 80.036,117.292 80.048 C 117.131 80.061,117.000 80.134,117.000 80.212 C 117.000 80.290,116.934 80.312,116.852 80.262 C 116.650 80.137,115.667 80.494,115.667 80.693 C 115.667 80.781,115.601 80.812,115.521 80.763 C 115.391 80.682,112.374 82.084,112.167 82.321 C 112.121 82.374,111.821 82.557,111.500 82.729 C 109.316 83.898,108.743 84.230,108.694 84.358 C 108.663 84.437,108.569 84.459,108.485 84.407 C 108.400 84.355,108.286 84.429,108.231 84.573 C 108.176 84.716,108.045 84.834,107.941 84.834 C 107.836 84.834,107.487 85.064,107.167 85.346 C 106.846 85.627,106.463 85.908,106.316 85.970 C 105.957 86.122,104.910 86.960,104.249 87.625 C 103.953 87.923,103.664 88.167,103.607 88.167 C 103.339 88.167,99.197 92.216,98.167 93.485 C 97.846 93.880,97.303 94.514,96.960 94.893 C 96.618 95.273,96.337 95.677,96.335 95.792 C 96.334 95.906,96.254 96.000,96.157 96.000 C 96.060 96.000,96.027 96.075,96.083 96.167 C 96.140 96.258,96.126 96.334,96.052 96.334 C 95.977 96.335,95.729 96.611,95.500 96.947 C 95.271 97.284,95.008 97.641,94.917 97.741 C 94.445 98.256,92.469 101.370,92.108 102.167 C 91.880 102.671,91.507 103.357,91.280 103.691 C 91.053 104.025,90.817 104.457,90.755 104.649 C 90.694 104.842,90.574 105.000,90.489 105.000 C 90.403 105.000,90.333 105.083,90.333 105.185 C 90.333 105.287,90.090 105.746,89.792 106.206 C 89.494 106.666,89.250 107.089,89.250 107.146 C 89.250 107.203,89.086 107.480,88.886 107.760 C 88.686 108.041,88.472 108.469,88.411 108.712 C 88.350 108.954,88.195 109.240,88.067 109.347 C 87.938 109.454,87.833 109.610,87.833 109.694 C 87.833 109.778,87.756 109.938,87.662 110.049 C 87.369 110.391,86.183 112.377,85.800 113.167 C 85.599 113.579,85.392 113.954,85.338 114.000 C 85.120 114.188,84.086 116.049,84.125 116.186 C 84.148 116.267,84.087 116.333,83.990 116.333 C 83.893 116.333,83.855 116.400,83.905 116.481 C 83.955 116.562,83.885 116.722,83.748 116.835 C 83.612 116.948,83.500 117.118,83.500 117.213 C 83.500 117.308,83.331 117.617,83.125 117.901 C 82.919 118.185,82.563 118.778,82.333 119.219 C 82.104 119.661,81.804 120.148,81.667 120.303 C 81.529 120.457,81.284 120.846,81.121 121.167 C 80.155 123.074,79.298 124.591,79.160 124.639 C 79.072 124.669,79.000 124.795,79.000 124.919 C 79.000 125.042,78.906 125.245,78.792 125.370 C 78.561 125.621,78.438 125.824,77.350 127.750 C 76.936 128.483,76.543 129.122,76.476 129.170 C 76.409 129.218,76.198 129.622,76.006 130.069 C 75.815 130.516,75.435 131.212,75.162 131.616 C 74.890 132.020,74.667 132.421,74.667 132.508 C 74.667 132.595,74.587 132.667,74.490 132.667 C 74.393 132.667,74.360 132.742,74.417 132.833 C 74.473 132.925,74.442 133.000,74.346 133.000 C 74.251 133.000,74.126 133.188,74.068 133.417 C 74.011 133.646,73.912 133.833,73.849 133.833 C 73.785 133.833,73.639 134.096,73.523 134.417 C 73.407 134.737,73.242 135.000,73.156 135.000 C 73.070 135.000,73.000 135.107,73.000 135.238 C 73.000 135.369,72.901 135.575,72.781 135.696 C 72.661 135.818,72.315 136.404,72.013 137.000 C 71.710 137.596,71.337 138.271,71.183 138.500 C 71.029 138.729,70.758 139.198,70.580 139.542 C 70.403 139.885,70.200 140.167,70.129 140.167 C 70.058 140.167,70.000 140.270,70.000 140.396 C 70.000 140.523,69.888 140.719,69.752 140.832 C 69.615 140.945,69.540 141.096,69.583 141.167 C 69.627 141.238,69.551 141.388,69.415 141.502 C 69.278 141.615,69.167 141.811,69.167 141.937 C 69.167 142.063,69.108 142.167,69.037 142.167 C 68.965 142.167,68.818 142.373,68.711 142.625 C 68.603 142.877,68.380 143.268,68.216 143.493 C 67.996 143.794,67.983 143.863,68.167 143.751 C 68.304 143.668,68.210 143.873,67.958 144.206 C 67.706 144.539,67.500 144.891,67.500 144.989 C 67.500 145.087,67.443 145.167,67.373 145.167 C 67.303 145.167,67.172 145.312,67.081 145.489 C 66.262 147.092,65.737 148.000,65.629 148.000 C 65.558 148.000,65.500 148.112,65.500 148.250 C 65.500 148.387,65.425 148.500,65.333 148.500 C 65.242 148.500,65.167 148.607,65.167 148.738 C 65.167 148.869,65.068 149.075,64.948 149.196 C 64.827 149.318,64.405 150.073,64.010 150.875 C 63.615 151.677,63.222 152.333,63.136 152.333 C 63.050 152.333,63.020 152.397,63.068 152.475 C 63.116 152.553,63.005 152.778,62.821 152.975 C 62.637 153.172,62.546 153.334,62.619 153.336 C 62.691 153.337,62.661 153.395,62.553 153.464 C 62.445 153.532,62.127 154.025,61.847 154.557 C 61.567 155.090,61.186 155.738,61.002 155.997 C 60.818 156.256,60.667 156.550,60.667 156.651 C 60.667 156.751,60.597 156.833,60.511 156.833 C 60.366 156.833,60.138 157.316,60.198 157.500 C 60.220 157.571,59.589 158.638,58.521 160.333 C 58.377 160.563,58.257 160.804,58.254 160.870 C 58.252 160.935,58.137 161.129,58.000 161.299 C 57.862 161.469,57.649 161.782,57.526 161.994 C 57.016 162.871,56.602 163.621,56.282 164.250 C 55.861 165.078,54.546 167.332,53.900 168.333 C 53.133 169.523,53.019 169.718,52.769 170.271 C 52.640 170.558,52.450 170.844,52.348 170.908 C 52.245 170.971,52.204 171.093,52.257 171.178 C 52.310 171.264,52.274 171.333,52.177 171.333 C 52.079 171.333,52.000 171.455,52.000 171.604 C 52.000 171.753,51.700 172.324,51.333 172.873 C 50.967 173.422,50.667 173.915,50.667 173.967 C 50.667 174.130,49.263 176.413,49.127 176.473 C 49.056 176.503,49.041 176.598,49.093 176.682 C 49.145 176.767,49.071 176.881,48.928 176.935 C 48.785 176.990,48.710 177.102,48.761 177.184 C 48.812 177.266,48.774 177.333,48.677 177.333 C 48.579 177.333,48.500 177.477,48.500 177.653 C 48.500 177.828,48.442 177.997,48.371 178.028 C 48.301 178.058,47.985 178.590,47.671 179.208 C 47.356 179.827,47.039 180.333,46.966 180.333 C 46.893 180.333,46.833 180.427,46.833 180.542 C 46.833 180.657,46.578 181.110,46.267 181.548 C 45.955 181.987,45.653 182.530,45.597 182.756 C 45.540 182.982,45.420 183.167,45.330 183.167 C 45.240 183.167,45.167 183.268,45.167 183.392 C 45.167 183.515,44.941 183.928,44.666 184.308 C 44.390 184.689,44.221 185.001,44.291 185.003 C 44.360 185.004,44.342 185.060,44.250 185.128 C 44.158 185.195,43.935 185.550,43.753 185.917 C 43.267 186.899,42.449 188.242,42.298 188.306 C 42.226 188.336,42.167 188.456,42.167 188.572 C 42.167 188.688,42.017 188.955,41.833 189.167 C 41.650 189.378,41.500 189.643,41.500 189.755 C 41.500 189.867,41.386 190.054,41.246 190.170 C 41.106 190.286,41.028 190.417,41.072 190.461 C 41.116 190.505,40.968 190.782,40.744 191.077 C 40.519 191.372,40.385 191.662,40.445 191.723 C 40.506 191.784,40.468 191.833,40.361 191.833 C 40.254 191.833,40.167 191.974,40.167 192.146 C 40.167 192.318,40.054 192.553,39.917 192.667 C 39.779 192.781,39.667 192.943,39.667 193.027 C 39.667 193.112,39.589 193.271,39.494 193.382 C 39.302 193.607,38.148 195.536,38.128 195.667 C 38.121 195.713,37.976 195.938,37.807 196.167 C 37.638 196.396,37.514 196.621,37.534 196.667 C 37.553 196.713,37.422 196.921,37.242 197.130 C 37.063 197.340,36.911 197.565,36.904 197.630 C 36.873 197.935,36.283 199.167,36.168 199.167 C 36.097 199.167,35.995 199.298,35.941 199.458 C 35.846 199.742,35.502 200.332,35.333 200.500 C 35.171 200.662,34.641 201.590,34.452 202.042 C 34.346 202.294,34.202 202.500,34.130 202.500 C 34.059 202.500,34.000 202.594,34.000 202.709 C 34.000 202.824,33.739 203.284,33.421 203.732 C 33.103 204.180,32.879 204.606,32.925 204.680 C 32.970 204.753,32.874 204.890,32.712 204.985 C 32.549 205.079,32.492 205.160,32.583 205.164 C 32.694 205.169,32.694 205.213,32.583 205.294 C 32.492 205.362,32.210 205.829,31.958 206.333 C 31.321 207.607,30.786 208.544,30.553 208.792 C 30.444 208.907,30.308 209.152,30.250 209.334 C 30.192 209.517,30.074 209.667,29.989 209.667 C 29.903 209.667,29.833 209.749,29.833 209.849 C 29.833 209.950,29.678 210.250,29.489 210.516 C 29.299 210.782,29.198 211.000,29.264 211.000 C 29.331 211.000,29.249 211.150,29.083 211.333 C 28.917 211.517,28.850 211.669,28.933 211.672 C 29.015 211.675,28.960 211.749,28.810 211.836 C 28.660 211.924,28.485 212.202,28.422 212.455 C 28.359 212.707,28.257 212.952,28.195 212.998 C 28.033 213.121,27.695 213.674,27.428 214.252 C 27.300 214.529,26.912 215.166,26.566 215.669 C 26.220 216.172,25.970 216.600,26.010 216.620 C 26.050 216.640,25.952 216.809,25.792 216.997 C 25.631 217.184,25.500 217.402,25.500 217.481 C 25.500 217.561,25.388 217.719,25.252 217.832 C 25.115 217.945,25.045 218.104,25.095 218.186 C 25.145 218.267,25.116 218.333,25.029 218.333 C 24.943 218.333,24.827 218.465,24.772 218.625 C 24.717 218.785,24.522 219.160,24.339 219.458 C 24.156 219.756,24.048 220.000,24.099 220.000 C 24.149 220.000,24.073 220.118,23.929 220.262 C 23.785 220.406,23.667 220.631,23.667 220.762 C 23.667 220.893,23.610 221.001,23.542 221.001 C 23.473 221.002,23.334 221.171,23.233 221.376 C 22.867 222.121,21.440 224.585,21.327 224.667 C 21.264 224.713,21.159 224.919,21.095 225.125 C 21.030 225.331,20.908 225.500,20.822 225.500 C 20.737 225.500,20.667 225.650,20.667 225.833 C 20.667 226.017,20.599 226.167,20.516 226.167 C 20.434 226.167,20.287 226.373,20.191 226.625 C 20.020 227.074,19.331 228.336,19.167 228.500 C 19.045 228.621,18.683 229.210,18.551 229.500 C 18.488 229.637,18.187 230.143,17.881 230.623 C 17.576 231.103,17.346 231.524,17.371 231.559 C 17.396 231.594,17.251 231.839,17.049 232.103 C 16.846 232.367,16.680 232.642,16.680 232.714 C 16.679 232.786,16.563 232.961,16.421 233.103 C 16.279 233.244,16.202 233.423,16.250 233.499 C 16.297 233.576,16.279 233.663,16.209 233.694 C 16.140 233.725,15.821 234.259,15.500 234.881 C 15.179 235.504,14.804 236.142,14.667 236.299 C 14.529 236.456,14.237 236.922,14.017 237.334 C 13.797 237.746,13.531 238.196,13.426 238.333 C 13.321 238.471,13.126 238.808,12.993 239.083 C 12.859 239.358,12.656 239.682,12.542 239.804 C 12.427 239.925,12.333 240.114,12.333 240.223 C 12.333 240.333,12.143 240.703,11.911 241.045 C 11.678 241.387,11.532 241.667,11.585 241.667 C 11.639 241.667,11.454 241.999,11.175 242.405 C 10.895 242.811,10.667 243.198,10.667 243.264 C 10.667 243.331,10.479 243.631,10.250 243.931 C 10.021 244.232,9.833 244.558,9.833 244.656 C 9.833 244.753,9.754 244.833,9.657 244.833 C 9.560 244.833,9.527 244.908,9.583 245.000 C 9.640 245.092,9.624 245.167,9.548 245.167 C 9.472 245.167,9.224 245.523,8.998 245.958 C 8.771 246.394,8.489 246.871,8.371 247.019 C 8.253 247.167,8.125 247.449,8.087 247.647 C 8.049 247.844,7.901 248.122,7.759 248.265 C 7.617 248.407,7.500 248.594,7.500 248.680 C 7.500 248.766,7.275 249.147,7.000 249.526 C 6.725 249.906,6.500 250.313,6.500 250.430 C 6.500 250.547,6.399 250.743,6.276 250.866 C 5.902 251.241,4.157 254.682,4.258 254.846 C 4.310 254.931,4.274 255.000,4.177 255.000 C 4.079 255.000,4.000 255.120,4.000 255.266 C 4.000 255.412,3.893 255.731,3.763 255.974 C 3.510 256.446,2.606 258.765,2.031 260.417 C 1.545 261.813,0.988 263.908,0.813 264.997 C 0.731 265.503,0.628 266.104,0.583 266.333 C 0.342 267.567,0.199 268.733,0.253 269.015 C 0.287 269.190,0.245 269.333,0.160 269.333 C 0.068 269.333,0.032 271.581,0.072 274.958 C 0.128 279.779,0.195 281.417,0.335 281.417 C 0.351 281.417,0.388 281.679,0.416 282.000 C 0.445 282.321,0.588 283.183,0.734 283.917 C 0.880 284.650,1.036 285.438,1.081 285.667 C 1.276 286.677,1.379 287.094,1.473 287.250 C 1.529 287.342,1.592 287.492,1.615 287.583 C 2.085 289.512,2.468 290.562,3.716 293.333 C 3.902 293.746,4.046 294.215,4.037 294.375 C 4.028 294.535,4.091 294.667,4.177 294.667 C 4.263 294.667,4.317 294.723,4.297 294.792 C 4.240 294.993,6.539 299.452,6.811 299.667 C 7.076 299.876,8.000 301.369,8.000 301.588 C 8.000 301.723,8.075 301.833,8.167 301.833 C 8.258 301.833,8.333 301.932,8.333 302.052 C 8.333 302.172,8.502 302.452,8.708 302.673 C 8.915 302.894,9.083 303.136,9.083 303.211 C 9.083 303.285,9.161 303.399,9.255 303.464 C 9.350 303.530,9.912 304.181,10.505 304.912 C 11.098 305.642,11.771 306.418,12.000 306.636 C 12.229 306.854,12.418 307.081,12.420 307.141 C 12.421 307.201,13.240 308.037,14.240 309.000 C 15.239 309.962,16.301 310.994,16.601 311.292 C 16.900 311.590,17.195 311.833,17.256 311.833 C 17.355 311.833,18.610 312.760,18.833 312.997 C 18.879 313.045,19.217 313.306,19.583 313.575 C 19.950 313.845,20.292 314.127,20.344 314.201 C 20.396 314.276,20.921 314.597,21.511 314.915 C 22.101 315.232,22.508 315.497,22.417 315.502 C 22.325 315.507,22.662 315.704,23.167 315.940 C 23.671 316.175,24.121 316.419,24.167 316.481 C 24.212 316.544,24.644 316.779,25.125 317.003 C 25.606 317.228,26.000 317.469,26.000 317.539 C 26.000 317.609,26.065 317.667,26.144 317.667 C 26.223 317.667,26.804 317.906,27.435 318.198 C 28.067 318.491,28.640 318.716,28.708 318.698 C 28.777 318.681,28.833 318.742,28.833 318.833 C 28.833 318.925,28.971 319.000,29.139 319.000 C 29.307 319.000,29.496 319.051,29.559 319.114 C 29.672 319.228,30.688 319.626,31.167 319.746 C 31.304 319.780,31.417 319.819,31.417 319.833 C 31.417 319.847,31.604 319.890,31.833 319.929 C 32.063 319.969,32.400 320.070,32.583 320.156 C 32.767 320.241,33.517 320.474,34.250 320.673 C 34.983 320.872,35.771 321.099,36.000 321.177 C 36.229 321.255,36.642 321.351,36.917 321.390 C 37.192 321.429,37.717 321.541,38.083 321.638 C 38.450 321.735,39.050 321.857,39.417 321.909 C 39.783 321.961,40.796 322.131,41.667 322.286 C 43.143 322.549,164.265 322.864,163.989 322.604 C 163.949 322.567,163.054 322.375,162.000 322.177 C 136.130 317.329,120.168 290.609,128.680 266.400 C 130.068 262.451,130.999 260.650,136.291 251.667 C 137.344 249.879,138.974 247.104,139.914 245.500 C 140.855 243.896,142.657 240.821,143.919 238.667 C 146.743 233.849,148.871 230.214,152.164 224.583 C 154.819 220.042,156.249 217.603,159.487 212.083 C 160.563 210.250,162.254 207.362,163.246 205.667 C 164.237 203.971,166.039 200.896,167.249 198.833 C 168.460 196.771,170.523 193.246,171.834 191.000 C 173.145 188.754,174.683 186.129,175.253 185.167 C 175.822 184.204,177.472 181.392,178.919 178.917 C 181.842 173.919,184.429 169.500,187.801 163.750 C 189.037 161.642,190.838 158.567,191.803 156.917 C 192.769 155.267,194.397 152.492,195.421 150.750 C 200.159 142.696,199.955 143.101,199.659 142.333 C 199.642 142.287,199.636 142.194,199.647 142.125 C 199.658 142.056,199.587 142.000,199.490 142.000 C 199.393 142.000,199.360 141.925,199.417 141.833 C 199.473 141.742,199.448 141.667,199.359 141.667 C 199.271 141.667,199.116 141.428,199.014 141.136 C 198.912 140.844,198.725 140.488,198.598 140.344 C 198.302 140.009,197.514 138.671,197.390 138.292 C 197.337 138.131,197.236 138.000,197.165 138.000 C 197.094 138.000,196.989 137.813,196.932 137.583 C 196.874 137.354,196.753 137.167,196.663 137.167 C 196.574 137.167,196.500 137.079,196.500 136.971 C 196.500 136.864,196.385 136.649,196.245 136.494 C 196.104 136.339,195.960 136.058,195.923 135.869 C 195.850 135.488,195.353 134.652,195.087 134.461 C 194.993 134.394,194.977 134.337,195.050 134.336 C 195.124 134.334,195.001 134.090,194.778 133.792 C 194.555 133.494,194.321 133.082,194.258 132.876 C 194.196 132.670,194.043 132.400,193.918 132.275 C 193.704 132.061,192.671 130.291,191.664 128.411 C 191.040 127.247,190.764 126.764,190.667 126.667 C 190.493 126.493,190.158 125.894,189.899 125.292 C 189.751 124.948,189.564 124.667,189.482 124.667 C 189.400 124.667,189.333 124.579,189.333 124.471 C 189.333 124.364,189.227 124.158,189.097 124.013 C 188.967 123.868,188.604 123.255,188.290 122.651 C 187.976 122.046,187.653 121.446,187.572 121.318 C 187.492 121.189,187.411 120.981,187.392 120.857 C 187.373 120.732,187.212 120.470,187.034 120.274 C 186.856 120.077,186.606 119.713,186.480 119.463 C 185.675 117.876,185.261 117.167,185.139 117.167 C 185.063 117.167,185.000 117.054,185.000 116.917 C 185.000 116.779,184.921 116.667,184.823 116.667 C 184.726 116.667,184.693 116.592,184.750 116.500 C 184.807 116.408,184.787 116.333,184.707 116.333 C 184.627 116.333,184.393 116.033,184.187 115.667 C 183.981 115.300,183.856 115.000,183.910 115.000 C 183.964 115.000,183.892 114.775,183.750 114.500 C 183.608 114.225,183.418 114.000,183.329 114.000 C 183.240 114.000,183.167 113.878,183.167 113.728 C 183.167 113.467,182.556 112.339,182.321 112.167 C 182.258 112.121,181.865 111.463,181.446 110.705 C 181.027 109.946,180.531 109.130,180.342 108.890 C 180.154 108.651,180.000 108.362,180.000 108.248 C 180.000 108.134,179.895 107.954,179.766 107.847 C 179.638 107.740,179.487 107.471,179.431 107.248 C 179.375 107.026,179.107 106.485,178.834 106.047 C 178.562 105.609,178.265 105.081,178.174 104.875 C 178.083 104.669,177.939 104.500,177.854 104.500 C 177.769 104.500,177.620 104.294,177.523 104.042 C 177.426 103.790,177.118 103.208,176.839 102.750 C 176.560 102.292,176.172 101.579,175.976 101.167 C 175.780 100.754,175.555 100.392,175.477 100.361 C 175.398 100.331,175.333 100.208,175.333 100.090 C 175.333 99.971,175.219 99.779,175.079 99.663 C 174.940 99.547,174.863 99.415,174.908 99.370 C 174.954 99.324,174.762 98.997,174.482 98.643 C 174.201 98.290,174.019 98.000,174.077 98.000 C 174.135 98.000,173.991 97.809,173.758 97.576 C 173.524 97.342,173.333 97.070,173.333 96.970 C 173.333 96.870,173.165 96.624,172.958 96.423 C 172.413 95.890,172.000 95.352,172.000 95.173 C 172.000 95.087,171.869 94.940,171.708 94.847 C 171.548 94.753,171.466 94.675,171.527 94.672 C 171.980 94.651,165.691 88.443,164.700 87.933 C 164.397 87.777,164.108 87.541,164.057 87.408 C 164.006 87.275,163.894 87.167,163.808 87.167 C 163.722 87.167,163.471 86.998,163.250 86.792 C 162.582 86.167,162.355 86.000,162.174 86.000 C 162.078 86.000,162.000 85.943,162.000 85.873 C 162.000 85.803,161.857 85.672,161.683 85.581 C 161.508 85.491,160.965 85.144,160.474 84.811 C 158.516 83.480,152.007 80.213,151.085 80.099 C 150.901 80.076,150.637 80.015,150.500 79.963 C 149.434 79.559,147.493 78.944,147.083 78.880 C 146.808 78.837,146.508 78.742,146.417 78.669 C 146.204 78.500,143.145 77.836,141.417 77.585 C 137.672 77.040,132.266 76.860,129.417 77.186 " stroke="none" fill="#1c74e3" fill-rule="evenodd"></path><path id="path4" d="M198.580 145.366 C 197.867 146.585,196.446 149.008,195.421 150.750 C 194.397 152.492,192.769 155.267,191.803 156.917 C 190.838 158.567,189.037 161.642,187.801 163.750 C 184.429 169.500,181.842 173.919,178.919 178.917 C 177.472 181.392,175.822 184.204,175.253 185.167 C 174.683 186.129,173.145 188.754,171.834 191.000 C 170.523 193.246,168.460 196.771,167.249 198.833 C 166.039 200.896,164.237 203.971,163.246 205.667 C 162.254 207.362,160.563 210.250,159.487 212.083 C 156.249 217.603,154.819 220.042,152.164 224.583 C 148.871 230.214,146.743 233.849,143.919 238.667 C 142.657 240.821,140.855 243.896,139.914 245.500 C 138.974 247.104,137.344 249.879,136.291 251.667 C 130.176 262.046,129.071 264.367,127.665 269.783 C 123.984 283.960,128.713 300.324,139.431 310.500 C 140.378 311.399,140.374 311.390,139.201 310.065 C 138.544 309.321,137.889 308.615,137.745 308.496 C 137.602 308.377,137.336 308.071,137.155 307.817 L 136.826 307.355 137.387 305.886 C 137.696 305.078,138.028 304.192,138.127 303.917 C 138.438 303.046,140.491 297.945,140.811 297.250 C 140.979 296.883,141.319 296.021,141.565 295.333 C 141.812 294.646,142.758 292.208,143.668 289.917 C 144.577 287.625,145.995 284.025,146.818 281.917 C 147.641 279.808,148.685 277.146,149.137 276.000 C 149.590 274.854,150.263 273.129,150.633 272.167 C 151.617 269.604,153.465 264.998,153.752 264.391 C 153.888 264.103,154.000 263.795,154.000 263.707 C 154.000 263.544,155.840 258.817,156.254 257.917 C 156.614 257.135,157.480 254.918,158.175 253.000 C 158.524 252.037,159.456 249.675,160.247 247.750 C 161.038 245.825,161.820 243.838,161.985 243.333 C 162.150 242.829,163.077 240.467,164.046 238.083 C 165.014 235.700,165.862 233.525,165.931 233.250 C 165.999 232.975,166.274 232.225,166.540 231.583 C 166.807 230.942,167.685 228.767,168.490 226.750 C 169.880 223.270,170.733 221.099,173.041 215.167 C 173.594 213.746,174.926 210.371,176.002 207.667 C 177.078 204.963,178.302 201.850,178.722 200.750 C 179.142 199.650,180.051 197.341,180.743 195.619 C 181.434 193.897,182.000 192.412,182.000 192.318 C 182.000 192.225,182.152 191.815,182.337 191.408 C 182.523 191.001,183.116 189.561,183.655 188.209 C 184.194 186.856,184.942 185.006,185.317 184.097 C 185.693 183.189,186.000 182.359,186.000 182.254 C 186.000 182.150,186.814 180.043,187.810 177.574 C 188.805 175.104,190.168 171.658,190.838 169.917 C 191.508 168.175,192.258 166.300,192.503 165.750 C 192.749 165.200,193.195 164.075,193.493 163.250 C 194.275 161.090,195.004 159.190,195.363 158.375 C 195.820 157.337,197.663 152.718,198.005 151.750 C 198.518 150.303,199.496 147.801,200.112 146.365 L 200.705 144.980 200.291 144.064 L 199.877 143.148 198.580 145.366 M140.833 311.734 C 141.446 312.426,143.383 313.975,145.000 315.065 C 146.551 316.111,146.278 315.875,143.840 314.058 C 142.960 313.403,141.830 312.506,141.328 312.065 C 140.827 311.624,140.604 311.475,140.833 311.734 M148.167 317.080 C 148.167 317.125,148.767 317.465,149.500 317.833 C 150.233 318.202,150.833 318.466,150.833 318.420 C 150.833 318.375,150.233 318.035,149.500 317.667 C 148.767 317.298,148.167 317.034,148.167 317.080 M151.500 318.833 C 151.821 319.009,152.158 319.153,152.250 319.153 C 152.342 319.153,152.154 319.009,151.833 318.833 C 151.512 318.658,151.175 318.514,151.083 318.514 C 150.992 318.514,151.179 318.658,151.500 318.833 M163.667 322.500 C 164.309 322.706,164.652 322.706,164.333 322.500 C 164.196 322.411,163.896 322.345,163.667 322.352 L 163.250 322.367 163.667 322.500 " stroke="none" fill="#1c6cd4" fill-rule="evenodd"></path></g></svg>